<?xml version="1.0" standalone="no"?>
<!DOCTYPE svg PUBLIC "-//W3C//DTD SVG 1.1//EN" "http://www.w3.org/Graphics/SVG/1.1/DTD/svg11.dtd" >
<svg xmlns="http://www.w3.org/2000/svg">
<metadata>
This is a custom SVG webfont generated by Font Squirrel.
Copyright   : c 2008 Typodermic Fonts This font is freeware Read attached text file for details Check out the rest of the Rexlia family and the OpenType version at Typodermic httpwwwtypodermiccom
Designer    : Ray Larabie
Foundry     : Ray Larabie
Foundry URL : httpwwwtypodermiccom
</metadata>
<defs>
<font id="RexliaFree" horiz-adv-x="704" >
<font-face units-per-em="1000" ascent="775" descent="-225" />
<missing-glyph horiz-adv-x="330" />
<glyph unicode="&#x28;C&#x29;" horiz-adv-x="708" d="M651 607q8 -8 8 -20v-483q0 -12 -8 -20l-75 -75q-9 -9 -20 -9h-403q-11 0 -20 9l-75 75q-8 8 -8 20v483q0 12 8 20l75 75q9 9 20 9h403q11 0 20 -9zM550 624q-5 5 -12 5h-367q-7 0 -12 -5l-39 -40q-5 -5 -5 -14v-449q0 -9 5 -14l39 -40q5 -5 12 -5h367q7 0 12 5l39 40 q5 5 5 14v449q0 9 -5 14zM490 444q0 -16 -16 -16h-156q-4 0 -7 -3l-15 -16q-3 -3 -3 -8v-109q0 -5 3 -8l15 -16q3 -3 7 -3h156q16 0 16 -16v-25q0 -16 -16 -16h-189q-11 0 -21 10l-34 33q-9 7 -9 20v151q0 12 9 20l34 33q10 10 21 10h189q16 0 16 -16v-25z" />
<glyph unicode="&#x28;R&#x29;" horiz-adv-x="708" d="M490 450q5 -5 5 -14v-59q0 -9 -6 -16l-28 -33l39 -94l2 -8v-2q0 -17 -17 -17h-26q-12 0 -16 12l-37 91h-121v-86q0 -16 -15 -16h-29q-16 0 -16 16v230q0 30 29 30h193q11 0 19 -8zM425 431q-4 4 -10 4h-117q-9 0 -11 -3t-2 -11v-72h125l23 25q3 4 3 9v31q0 4 -3 9z M651 607q8 -8 8 -20v-483q0 -12 -8 -20l-75 -75q-9 -9 -20 -9h-403q-11 0 -20 9l-75 75q-8 8 -8 20v483q0 12 8 20l75 75q9 9 20 9h403q11 0 20 -9zM550 624q-5 5 -12 5h-367q-7 0 -12 -5l-39 -40q-5 -5 -5 -14v-449q0 -9 5 -14l39 -40q5 -5 12 -5h367q7 0 12 5l39 40 q5 5 5 14v449q0 9 -5 14z" />
<glyph unicode="&#x28;P&#x29;" horiz-adv-x="708" d="M651 607q8 -8 8 -20v-483q0 -12 -8 -20l-75 -75q-9 -9 -20 -9h-403q-11 0 -20 9l-75 75q-8 8 -8 20v483q0 12 8 20l75 75q9 9 20 9h403q11 0 20 -9zM550 624q-5 5 -12 5h-367q-7 0 -12 -5l-39 -40q-5 -5 -5 -14v-449q0 -9 5 -14l39 -40q5 -5 12 -5h367q7 0 12 5l39 40 q5 5 5 14v449q0 9 -5 14zM484 457q10 -10 10 -23v-92q0 -13 -10 -23l-17 -17q-10 -10 -24 -10h-159v-68q0 -16 -15 -16h-29q-16 0 -16 16v230q0 30 29 30h190q14 0 24 -10zM423 435q-4 4 -11 4h-116q-7 0 -9.5 -2t-2.5 -10v-90h128q7 0 11 4l8 8q4 4 4 11v56q0 7 -4 11z" />
<glyph unicode=" "  horiz-adv-x="330" />
<glyph unicode="&#x09;" horiz-adv-x="330" />
<glyph unicode="&#xa0;" horiz-adv-x="330" />
<glyph unicode="!" horiz-adv-x="283" d="M233 657l-19 -455q0 -14 -15 -14h-115q-16 0 -16 14l-18 455v44q0 18 16 18h150q17 0 17 -18v-44zM215 16q0 -16 -16 -16h-116q-15 0 -15 16v94q0 16 15 16h116q16 0 16 -16v-94z" />
<glyph unicode="&#x22;" horiz-adv-x="329" d="M290 408q0 -7 -4.5 -11t-10.5 -4h-32q-6 0 -11 4t-5 11l-9 312q0 7 4 12t11 5h51q7 0 11 -5t4 -12zM96 408q0 -7 -4.5 -11t-10.5 -4h-32q-6 0 -10.5 4t-4.5 11l-10 312q0 7 4 12t11 5h51q7 0 11.5 -5t4.5 -12z" />
<glyph unicode="#" horiz-adv-x="604" d="M480 493h83q7 0 11.5 -4.5t4.5 -10.5v-49q0 -16 -16 -16h-89l-8 -123h86q16 0 16 -16v-49q0 -6 -4.5 -10.5t-11.5 -4.5h-92l-13 -195q-2 -15 -16 -15h-44q-7 0 -11.5 5t-4.5 12l13 193h-177l-13 -195q-2 -15 -15 -15h-44q-8 0 -12.5 5t-4.5 12l13 193h-93q-6 0 -10.5 4.5 t-4.5 10.5v49q0 7 4.5 11.5t10.5 4.5h98l8 123h-95q-6 0 -10.5 4.5t-4.5 11.5v49q0 6 4.5 10.5t10.5 4.5h101l12 182q1 16 16 16h44q17 0 17 -17l-13 -181h177l12 182q1 16 17 16h44q8 0 12 -5t4 -12zM221 413l-8 -123h177l8 123h-177z" />
<glyph unicode="$" horiz-adv-x="660" d="M603 559q0 -16 -16 -16h-343q-9 0 -16 -7l-29 -31q-4 -4 -4 -12v-47q0 -8 5 -13l27 -31q7 -7 13 -7h269q23 0 36 -13l57 -54q9 -9 9 -20v-135q0 -10 -9 -19l-74 -72q-11 -11 -28 -11h-129v-55q0 -16 -16 -16h-34q-15 0 -15 16v55h-241q-15 0 -15 15v46q0 16 15 16h349 q11 0 18 7l34 31q5 5 5 13v52q0 8 -6 13l-30 28q-7 7 -19 7h-270q-13 0 -20 9l-62 71q-7 7 -7 24v115q0 12 8 20l70 72q10 10 25 10h146v55q0 16 15 16h34q16 0 16 -16v-55h216q16 0 16 -16v-45z" />
<glyph unicode="%" horiz-adv-x="898" d="M849 101q0 -14 -9 -21l-71 -71q-11 -9 -22 -9h-139q-12 0 -22 9l-71 71q-9 7 -9 21v149q0 4 12 20.5t28.5 34.5t33.5 32t28 14h139q13 0 22 -9q10 -10 23.5 -22.5t26 -25.5t21.5 -25t9 -19v-149zM734 287q-6 3 -12 3h-89q-7 0 -13 -3l-46 -45q-1 -5 -1.5 -9t-0.5 -8v-100 q0 -4 0.5 -8t1.5 -9l46 -45q6 -3 13 -3h89q6 0 12 3l46 45q3 7 3 17v100q0 9 -3 17zM384 611q8 -8 8 -20v-150q0 -12 -8 -20l-72 -71q-9 -9 -21 -9h-140q-12 0 -21 9l-72 71q-8 8 -8 20v150q0 12 8 20l72 71q9 9 21 9h140q12 0 21 -9zM278 628q-6 3 -12 3h-89q-7 0 -13 -3 l-46 -45q-2 -8 -2 -9v-116q0 -7 4 -11l44 -43q6 -3 13 -3h89q6 0 12 3l46 45q3 7 3 17v100q0 9 -3 17zM303 9q-5 -9 -15 -9h-28q-16 0 -16 15q0 6 3 11l345 656q4 9 14 9h27q16 0 16 -15q0 1 -2 -9z" />
<glyph unicode="&#x26;" horiz-adv-x="785" d="M536 603q0 -16 -15 -16h-194q-9 0 -16 -6l-44 -47q-5 -5 -5 -16v-84h444q28 0 28 -29v-375q0 -30 -28 -30h-506q-13 0 -21 8l-116 123q-8 8 -10.5 16t-2.5 19v188q0 14 9 23l45 44v133q0 10 3 20t11 18l83 88q11 11 24 11h296q15 0 15 -16v-72zM260 336l-21 -29 q-3 -5 -3 -11v-111q0 -11 4 -15l60 -64q5 -5 12 -5h276q18 0 18 19v198q0 18 -16 18h-330z" />
<glyph unicode="'" horiz-adv-x="136" d="M96 408q0 -7 -4.5 -11t-10.5 -4h-32q-6 0 -10.5 4.5t-4.5 10.5l-10 312q0 7 4 12t11 5h51q7 0 11.5 -5t4.5 -12z" />
<glyph unicode="(" horiz-adv-x="389" d="M338 791q0 -15 -15 -15h-97q-8 0 -12 -4l-41 -41q-5 -5 -5 -13v-835q0 -8 5 -13l41 -41q4 -4 12 -4h97q15 0 15 -15v-31q0 -16 -15 -16h-111q-15 0 -25 9l-75 74q-9 9 -9 22v865q0 13 9 22l75 74q10 9 25 9h111q15 0 15 -16v-31z" />
<glyph unicode=")" horiz-adv-x="387" d="M276 755q9 -9 9 -22v-865q0 -13 -9 -22l-75 -74q-11 -9 -25 -9h-111q-15 0 -15 16v31q0 15 15 15h97q8 0 12 4l41 41q5 5 5 13v835q0 8 -5 13l-41 41q-4 4 -12 4h-97q-15 0 -15 15v31q0 16 15 16h111q14 0 25 -9z" />
<glyph unicode="*" horiz-adv-x="522" d="M469 573q2 -8 2 -12q0 -13 -14 -15l-137 -36l93 -108q5 -5 5 -13q0 -10 -9 -16l-46 -31q-4 -4 -12 -4t-14 9l-75 118l-75 -118q-6 -9 -14 -9t-12 4l-46 31q-9 6 -9 16q0 8 5 13l93 108l-137 36q-14 2 -14 15q0 4 2 12l16 48q4 12 16 12q3 0 11 -2l128 -53l-10 135 q0 24 16 24h60q16 0 16 -24l-10 -135l128 53q8 2 11 2q11 0 16 -12z" />
<glyph unicode="+" horiz-adv-x="565" d="M515 341q0 -16 -15 -16h-175v-175q0 -15 -15 -15h-55q-16 0 -16 15v175h-174q-15 0 -15 16v55q0 15 15 15h174v174q0 15 16 15h55q15 0 15 -15v-174h175q15 0 15 -15v-55z" />
<glyph unicode="," horiz-adv-x="246" d="M195 119v-8.5t-1 -9.5l-17 -165q-1 -19 -16 -19h-27q-14 0 -17 19l-13 94h-39q-15 0 -15 15v81q0 16 15 16h114q16 0 16 -14v-9z" />
<glyph unicode="-" horiz-adv-x="361" d="M339 270q0 -16 -16 -16h-284q-15 0 -15 16v34q0 16 15 16h284q16 0 16 -16v-34z" />
<glyph unicode="." horiz-adv-x="245" d="M197 16q0 -16 -16 -16h-116q-15 0 -15 16v110q0 16 15 16h116q16 0 16 -16v-110z" />
<glyph unicode="/" horiz-adv-x="337" d="M60 -76q-5 -12 -16 -12h-32q-13 0 -13 12q0 5 3 13l276 788q4 12 16 12h33q10 0 10 -10q0 -8 -3 -15z" />
<glyph unicode="0" horiz-adv-x="817" d="M762 589q10 -10 10 -27v-433q0 -17 -10 -27l-87 -93q-9 -9 -22 -9h-491q-13 0 -22 9l-87 93q-10 10 -10 27v433q0 17 10 27l87 93q9 9 22 9h491q13 0 22 -9zM550 578q-8 8 -21 8h-243q-13 0 -21 -8l-42 -45q-8 -8 -8 -19v-337q0 -11 8 -19l42 -45q8 -8 21 -8h243 q13 0 21 8l42 45q8 8 8 19v337q0 11 -8 19z" />
<glyph unicode="1" horiz-adv-x="368" d="M308 601q11 -11 11 -29v-556q0 -16 -16 -16h-140q-16 0 -16 16v513q0 8 -6 16l-34 36q-8 5 -15 5h-39q-15 0 -15 15v74q0 16 15 16h144q23 0 38 -15z" />
<glyph unicode="2" horiz-adv-x="798" d="M738 596q7 -7 7 -21v-152q0 -16 -7 -23l-85 -96q-8 -9 -21 -9h-349q-8 0 -12 -4l-43 -37q-7 -6 -7 -17v-121q0 -11 11 -11h502q15 0 15 -16v-73q0 -16 -15 -16h-656q-28 0 -28 30v252q0 19 12 30l90 80q16 14 36 14h360q7 0 13 6l34 36q7 10 7 23v60q0 6 -6 14l-33 35 q-6 6 -14 6h-448q-16 0 -16 15v74q0 16 16 16h534q15 0 24 -11z" />
<glyph unicode="3" horiz-adv-x="783" d="M671 586q8 -8 8 -19v-167l45 -46q8 -8 8 -20v-173q0 -16 -9 -26l-118 -127q-11 -8 -24 -8h-516q-15 0 -15 16v73q0 16 15 16h404q9 0 14 5l59 64q5 5 5 12v92q0 5 -3 10l-22 27h-435q-16 0 -16 16v59q0 16 16 16h433v117q0 6 -5 11l-45 47q-5 5 -11 5h-380q-16 0 -16 16 v73q0 16 16 16h480q12 0 22 -10z" />
<glyph unicode="4" horiz-adv-x="750" d="M677 264h35q16 0 16 -17v-64q0 -16 -16 -16h-35v-151q0 -16 -16 -16h-122q-16 0 -16 16v151h-462q-28 0 -28 29v80q0 22 7 36l161 360q9 19 30 19h417q29 0 29 -29v-398zM334 591q-6 0 -9 -6l-131 -291q-3 -6 -3 -12v-10q0 -8 8 -8h324v317q0 10 -9 10h-180z" />
<glyph unicode="5" horiz-adv-x="797" d="M713 601q0 -15 -15 -15h-471q-13 0 -13 -15v-151q0 -16 13 -16h399q23 0 37 -12l72 -68q13 -13 13 -32v-161q0 -20 -13 -34l-11 -13q-9 -11 -20.5 -25.5t-24 -27.5t-24.5 -22t-21 -9h-569q-15 0 -15 16v73q0 16 15 16h453q7 0 14 7l35 40q5 5 5 16v85q0 9 -5 14l-33 31 q-7 7 -17 7h-436q-29 0 -29 28v329q0 29 28 29h618q15 0 15 -16v-74z" />
<glyph unicode="6" horiz-adv-x="797" d="M713 601q0 -15 -15 -15h-399q-10 0 -17 -7l-58 -54q-5 -5 -5 -17v-91h409q19 0 30 -11l81 -76q9 -8 9 -21v-158q0 -23 -12 -36q-25 -25 -49 -51.5t-48 -54.5q-11 -9 -23 -9h-416q-15 0 -22 9l-108 115q-11 11 -15.5 25t-4.5 30v342q0 25 13 38l115 123q7 9 21 9h499 q15 0 15 -16v-74zM544 329q-4 4 -7.5 5.5t-11.5 1.5h-306v-126q0 -19 8 -30l59 -64q11 -11 25 -11h200q13 0 19 8l54 65q5 5 5 14v88q0 6 -5 11z" />
<glyph unicode="7" horiz-adv-x="669" d="M643 643q0 -13 -3.5 -24t-8.5 -22l-282 -587q-4 -10 -16 -10h-148q-15 0 -15 16v9q0 5 2 10.5t4 9.5l285 541h-417q-15 0 -15 15v74q0 16 15 16h573q26 0 26 -26v-22z" />
<glyph unicode="8" horiz-adv-x="797" d="M693 586q8 -8 8 -19v-167l45 -46q8 -8 8 -20v-173q0 -16 -9 -26l-118 -127q-11 -8 -24 -8h-410q-13 0 -24 8l-118 127q-9 10 -9 26v173q0 12 8 20l45 46v167q0 11 8 19l90 95q10 10 22 10h366q12 0 22 -10zM233 315l-22 -27q-3 -5 -3 -10v-92q0 -7 5 -12l59 -64 q5 -5 14 -5h224q9 0 14 5l59 64q5 5 5 12v92q0 5 -3 10l-22 27h-330zM511 581q-5 5 -11 5h-204q-6 0 -11 -5l-45 -47q-5 -5 -5 -11v-117h326v117q0 6 -5 11z" />
<glyph unicode="9" horiz-adv-x="797" d="M728 567q20 -23 20 -55v-342q0 -25 -13 -38l-115 -123q-8 -9 -21 -9h-463q-15 0 -15 16v74q0 15 15 15h363q10 0 17 7l58 54q5 5 5 17v84h-409q-19 0 -30 11l-81 76q-9 7 -9 21v165q0 22 12 36q25 25 49 51.5t48 54.5q10 9 23 9h416q14 0 22 -9zM512 575q-11 11 -25 11 h-200q-13 0 -19 -8l-54 -65q-5 -5 -5 -14v-90q0 -6 5 -11l40 -38q4 -4 7.5 -5.5t11.5 -1.5h306v128q0 22 -8 30z" />
<glyph unicode=":" horiz-adv-x="245" d="M197 347q0 -16 -16 -16h-116q-15 0 -15 16v110q0 16 15 16h116q16 0 16 -16v-110zM197 16q0 -16 -16 -16h-116q-15 0 -15 16v110q0 16 15 16h116q16 0 16 -16v-110z" />
<glyph unicode=";" horiz-adv-x="248" d="M197 347q0 -16 -16 -16h-116q-15 0 -15 16v110q0 16 15 16h116q16 0 16 -16v-110zM198 119v-8.5t-1 -9.5l-17 -165q-1 -19 -16 -19h-27q-14 0 -17 19l-13 94h-39q-15 0 -15 15v81q0 16 15 16h114q16 0 16 -14v-9z" />
<glyph unicode="&#x3c;" horiz-adv-x="565" d="M515 548q0 -11 -10 -15l-358 -166l358 -166q10 -4 10 -15v-55q0 -16 -12 -16q-5 0 -9 2l-430 194q-14 6 -14 22v68q0 16 14 22l430 194q4 2 9 2q12 0 12 -16v-55z" />
<glyph unicode="=" horiz-adv-x="565" d="M515 210q0 -16 -15 -16h-435q-15 0 -15 16v54q0 16 15 16h435q15 0 15 -16v-54zM515 473q0 -16 -15 -16h-435q-15 0 -15 16v54q0 15 15 15h435q15 0 15 -15v-54z" />
<glyph unicode="&#x3e;" horiz-adv-x="565" d="M515 333q0 -16 -14 -22l-430 -194q-4 -2 -9 -2q-12 0 -12 16v55q0 11 10 15l358 166l-358 166q-10 4 -10 15v55q0 16 12 16q5 0 9 -2l430 -194q14 -6 14 -22v-68z" />
<glyph unicode="?" horiz-adv-x="594" d="M548 637q8 -11 8 -23v-97q0 -17 -11 -28l-210 -217q-9 -11 -9 -25v-45q0 -15 -16 -15h-116q-16 0 -16 15v57q0 15 3.5 24.5t12.5 18.5l198 207q5 5 5 13v43q0 6 -4 10l-34 37q-7 7 -15 7h-290q-15 0 -15 16v67q0 16 15 16h407q12 0 21 -11zM325 16q0 -16 -16 -16h-116 q-15 0 -15 16v94q0 16 15 16h116q16 0 16 -16v-94z" />
<glyph unicode="@" horiz-adv-x="722" d="M666 552q9 -9 9 -21v-389q0 -14 -9 -21l-71 -71q-11 -9 -21 -9h-204q-11 0 -20 9l-72 71q-8 8 -8 21v169q0 14 8 22l72 70q8 6 12.5 8t12.5 2h234v101q0 7 -5 12l-40 39q-6 6 -14 6h-373q-7 0 -12 -5l-41 -40q-4 -4 -4 -9v-579q0 -11 6 -17l38 -37q7 -7 18 -7h453 q15 0 15 -15v-30q0 -15 -15 -15h-480q-11 0 -20 9l-73 71q-7 7 -7 21v613q0 14 7 21l72 71q10 9 20 9h420q12 0 21 -9zM394 352q-7 0 -12 -5l-41 -40q-6 -6 -6 -16v-131q0 -8 6 -14l41 -40q5 -5 13 -5h154q6 0 14 6l41 40q5 5 5 12v193h-215z" />
<glyph unicode="A" horiz-adv-x="914" d="M875 59q3 -8 5 -14.5t2 -14.5v-14q0 -16 -15 -16h-152q-10 0 -14 12l-48 131h-424l-47 -131q-5 -12 -15 -12h-123q-15 0 -15 16v14q0 8 2 14.5t5 14.5l220 612q3 9 12.5 14.5t16.5 5.5h341q21 0 29 -20zM400 586q-10 0 -11 -6l-124 -338h352l-124 339q-2 5 -9 5h-84z" />
<glyph unicode="B" horiz-adv-x="928" d="M775 564q8 -8 8 -21v-142l105 -52q12 -6 12 -20v-213q0 -12 -8 -20l-88 -88q-8 -8 -21 -8h-705q-28 0 -28 30v632q0 29 28 29h549q17 0 28 -12zM656 328h-416v-204q0 -19 18 -19h396q8 0 13 5l43 42q6 6 6 16v122q0 7 -5 10zM574 579q-7 7 -19 7h-298q-17 0 -17 -19v-168 h396v110q0 10 -8 18z" />
<glyph unicode="C" horiz-adv-x="792" d="M749 601q0 -15 -16 -15h-431q-9 0 -15 -6l-49 -47q-5 -5 -5 -14v-331q0 -10 5 -15l66 -62q7 -6 17 -6h412q16 0 16 -16v-73q0 -16 -16 -16h-522q-15 0 -26 11l-133 125q-9 9 -9 22v407q0 13 9 22l97 93q11 11 26 11h558q16 0 16 -16v-74z" />
<glyph unicode="D" horiz-adv-x="909" d="M857 559q9 -8 9 -21v-349q0 -9 -1.5 -13t-7.5 -10l-160 -152q-12 -14 -36 -14h-582q-29 0 -29 30v632q0 29 29 29h618q23 0 40 -14zM612 577q-9 9 -23 9h-335q-14 0 -14 -14v-450q0 -17 16 -17h313q14 0 22 8l77 73q8 8 8 19v299q0 10 -7 17z" />
<glyph unicode="E" horiz-adv-x="805" d="M768 601q0 -15 -16 -15h-450q-9 0 -16 -7l-46 -44q-7 -7 -7 -18v-113h512q16 0 16 -15v-71q0 -15 -16 -15h-512v-114q0 -10 7 -17l64 -60q7 -7 17 -7h432q16 0 16 -16v-73q0 -16 -16 -16h-539q-16 0 -30 11l-132 125q-9 9 -9 22v407q0 13 9 22l96 92q12 12 28 12h576 q16 0 16 -16v-74z" />
<glyph unicode="F" horiz-adv-x="727" d="M701 601q0 -15 -15 -15h-377q-9 0 -15 -6l-48 -45q-6 -6 -6 -15v-156h439q15 0 15 -16v-72q0 -16 -15 -16h-439v-244q0 -16 -16 -16h-159q-15 0 -15 16v549q0 14 8 22l97 93q11 11 27 11h504q15 0 15 -16v-74z" />
<glyph unicode="G" horiz-adv-x="834" d="M763 601q0 -15 -15 -15h-434q-14 0 -23 -9l-53 -50q-5 -5 -5 -13v-325q0 -10 7 -17l65 -61q6 -6 15 -6h299q16 0 16 19v245q0 16 15 16h123q16 0 16 -16v-339q0 -30 -29 -30h-548q-15 0 -25 9l-135 127q-9 9 -9 22v407q0 13 9 22l97 93q11 11 26 11h573q15 0 15 -16v-74z " />
<glyph unicode="H" horiz-adv-x="908" d="M859 16q0 -16 -16 -16h-155q-16 0 -16 16v289h-432v-289q0 -16 -16 -16h-159q-15 0 -15 16v659q0 16 15 16h159q16 0 16 -16v-270h432v270q0 16 16 16h155q16 0 16 -16v-659z" />
<glyph unicode="I" horiz-adv-x="308" d="M249 16q0 -16 -16 -16h-159q-16 0 -16 16v659q0 16 16 16h159q16 0 16 -16v-659z" />
<glyph unicode="J" horiz-adv-x="630" d="M581 158q0 -13 -9 -22l-133 -125q-11 -11 -28 -11h-377q-15 0 -15 16v78q0 16 15 16h267q12 0 20 8l62 58q7 7 7 16v483q0 16 16 16h159q16 0 16 -16v-517z" />
<glyph unicode="K" horiz-adv-x="917" d="M860 652q0 -8 -4 -13l-184 -241l209 -344q4 -7 4 -18v-19q0 -17 -16 -17h-155q-9 0 -16 10l-192 320h-266v-314q0 -16 -16 -16h-159q-15 0 -15 16v659q0 16 15 16h159q16 0 16 -16v-255h265l190 262q7 9 15 9h134q16 0 16 -15v-24z" />
<glyph unicode="L" horiz-adv-x="700" d="M240 192q0 -9 7 -16l62 -58q8 -8 20 -8h342q15 0 15 -16v-78q0 -16 -15 -16h-452q-17 0 -28 11l-133 125q-9 9 -9 22v517q0 16 16 16h159q16 0 16 -16v-483z" />
<glyph unicode="M" horiz-adv-x="1148" d="M1097 16q0 -16 -15 -16h-108q-15 0 -15 16v470l-297 -474q-8 -12 -21 -12h-136q-14 0 -21 12l-298 474v-470q0 -16 -15 -16h-106q-15 0 -15 16v651q0 24 23 24h181q14 0 23 -15l304 -500l305 500q9 15 24 15h164q23 0 23 -24v-651z" />
<glyph unicode="N" horiz-adv-x="890" d="M840 27q0 -27 -25 -27h-99q-28 0 -49 21l-476 447v-452q0 -16 -15 -16h-111q-15 0 -15 16v648q0 27 25 27h99q28 0 49 -21l472 -449v454q0 16 16 16h114q15 0 15 -16v-648z" />
<glyph unicode="O" horiz-adv-x="896" d="M841 589q11 -11 11 -27v-433q0 -16 -11 -27l-97 -93q-9 -9 -24 -9h-545q-15 0 -24 9l-97 93q-11 11 -11 27v433q0 16 11 27l97 93q9 9 24 9h545q15 0 24 -9zM612 578q-8 8 -19 8h-291q-11 0 -19 -8l-45 -44q-7 -7 -7 -18v-341q0 -11 7 -18l45 -44q8 -8 19 -8h291 q11 0 19 8l45 44q7 7 7 18v341q0 11 -7 18z" />
<glyph unicode="P" horiz-adv-x="883" d="M849 587q9 -9 9 -22v-157q0 -15 -9 -22l-126 -121q-16 -16 -39 -16h-446v-233q0 -16 -16 -16h-157q-15 0 -15 16v646q0 29 28 29h645q18 0 30 -12zM617 579q-7 7 -18 7h-344q-17 0 -17 -17v-218h341q15 0 26 11l56 54q9 9 9 22v79q0 11 -9 20z" />
<glyph unicode="Q" horiz-adv-x="896" d="M841 589q11 -11 11 -27v-433q0 -16 -11 -27l-97 -93q-9 -9 -24 -9h-82l39 -89q2 -5 3.5 -11t1.5 -17v-10q0 -6 -3 -11t-12 -5h-143q-11 0 -15 12l-55 131h-279q-15 0 -24 9l-97 93q-11 11 -11 27v433q0 16 11 27l97 93q9 9 24 9h545q15 0 24 -9zM612 578q-8 8 -19 8h-291 q-11 0 -19 -8l-45 -44q-7 -7 -7 -18v-341q0 -11 7 -18l45 -44q8 -8 19 -8h291q11 0 19 8l45 44q7 7 7 18v341q0 11 -7 18z" />
<glyph unicode="R" horiz-adv-x="905" d="M850 587q8 -8 8 -22v-160q0 -20 -13 -33l-84 -79l111 -235q4 -8 5.5 -14t1.5 -15v-11q0 -8 -2.5 -13t-13.5 -5h-151q-11 0 -16 11l-101 238h-357v-233q0 -16 -16 -16h-157q-15 0 -15 16v646q0 29 28 29h645q18 0 30 -12zM617 580q-6 6 -16 6h-346q-17 0 -17 -19v-217h365 l60 56q7 7 7 14v100q0 9 -7 16z" />
<glyph unicode="S" horiz-adv-x="861" d="M808 601q0 -15 -16 -15h-493q-13 0 -22 -9l-35 -34q-9 -8 -9 -20v-57q0 -7 6 -13l40 -39q6 -6 13 -6h407q21 0 35 -14l73 -78q13 -13 13 -31v-155q0 -16 -12 -28l-92 -88q-8 -8 -17.5 -10.5t-18.5 -3.5h-630q-15 0 -15 16v73q0 16 15 16h521q13 0 23 7l34 35q7 7 7 16v78 q-2 4 -6 8l-39 38q-7 7 -19 8h-417q-12 0 -20 8l-75 83q-8 8 -11 14.5t-2 18.5v148q0 11 5.5 17t13.5 14l86 81q12 12 30 12h611q16 0 16 -16v-74z" />
<glyph unicode="T" horiz-adv-x="769" d="M756 597q0 -16 -15 -16h-260v-565q0 -16 -16 -16h-160q-15 0 -15 16v565h-261q-16 0 -16 16v78q0 16 16 16h712q15 0 15 -16v-78z" />
<glyph unicode="U" horiz-adv-x="900" d="M854 138q0 -13 -9 -20l-108 -104q-8 -8 -17.5 -10.5t-19.5 -3.5h-500q-21 0 -37 14l-108 104q-9 7 -9 20v537q0 16 16 16h159q15 0 15 -16v-500q0 -7 6 -13l57 -52q5 -5 13 -5h279q8 0 13 5l57 52q6 6 6 13v500q0 16 15 16h156q16 0 16 -16v-537z" />
<glyph unicode="V" horiz-adv-x="914" d="M882 661q0 -8 -2 -14.5t-5 -14.5l-220 -612q-3 -9 -12.5 -14.5t-16.5 -5.5h-341q-21 0 -29 20l-220 612q-3 8 -5 14.5t-2 14.5v14q0 16 15 16h152q9 0 14 -12l208 -569q2 -5 9 -5h84q9 0 11 6l207 568q4 12 15 12h123q15 0 15 -16v-14z" />
<glyph unicode="W" horiz-adv-x="1305" d="M1260 138q0 -13 -9 -20l-108 -104q-8 -8 -17.5 -10.5t-19.5 -3.5h-906q-21 0 -37 14l-108 104q-9 7 -9 20v537q0 16 16 16h159q15 0 15 -16v-500q0 -7 6 -13l57 -52q5 -5 13 -5h258v570q0 16 15 16h138q16 0 16 -16v-570h258q8 0 13 5l57 52q6 6 6 13v500q0 16 15 16h156 q16 0 16 -16v-537z" />
<glyph unicode="X" horiz-adv-x="889" d="M850 652q0 -10 -6 -16l-287 -271l300 -310q6 -6 6 -16v-22q0 -17 -17 -17h-163q-26 0 -38 13l-227 244l-228 -243q-6 -6 -13 -10t-17 -4h-122q-7 0 -11.5 2t-4.5 15v22q0 13 8 19l301 291l-279 288q-5 5 -5 14v23q0 17 17 17h163q13 0 21.5 -4t14.5 -10l209 -223l222 224 q12 13 28 13h111q17 0 17 -15v-24z" />
<glyph unicode="Y" horiz-adv-x="840" d="M803 461q0 -12 -9 -19l-280 -211v-215q0 -16 -16 -16h-159q-15 0 -15 16v215l-280 211q-9 7 -9 19v214q0 16 15 16h149q16 0 16 -16v-193q0 -14 8 -20l198 -147l197 147q8 6 8 20v193q0 16 16 16h145q16 0 16 -16v-214z" />
<glyph unicode="Z" horiz-adv-x="877" d="M830 621q0 -8 -3 -16.5t-9 -13.5l-523 -463q-5 -5 -5 -11q0 -12 14 -12h524q16 0 16 -16v-73q0 -16 -16 -16h-771q-25 0 -25 27v39q0 10 3.5 20t10.5 16l524 455q7 6 7 15q0 14 -17 14h-480q-16 0 -16 15v74q0 16 16 16h724q26 0 26 -26v-44z" />
<glyph unicode="[" horiz-adv-x="389" d="M338 791q0 -15 -15 -15h-143q-12 0 -12 -14v-924q0 -13 14 -13h141q15 0 15 -16v-30q0 -16 -15 -16h-191q-29 0 -29 29v1017q0 29 29 29h191q15 0 15 -16v-31z" />
<glyph unicode="\" horiz-adv-x="337" d="M334 -63q3 -8 3 -13q0 -12 -13 -12h-32q-12 0 -16 12l-274 788q-3 7 -3 15q0 10 10 10h33q11 0 16 -12z" />
<glyph unicode="]" horiz-adv-x="387" d="M286 -208q0 -29 -29 -29h-191q-15 0 -15 16v30q0 16 15 16h141q14 0 14 13v924q0 14 -12 14h-143q-15 0 -15 15v31q0 16 15 16h191q29 0 29 -29v-1017z" />
<glyph unicode="^" horiz-adv-x="548" d="M514 246q2 -4 2 -9q0 -12 -16 -12h-55q-11 0 -15 10l-166 358l-166 -358q-4 -10 -15 -10h-55q-16 0 -16 12q0 5 2 9l194 430q6 14 22 14h68q16 0 22 -14z" />
<glyph unicode="_" horiz-adv-x="533" d="M577 -104q0 -15 -16 -15h-587q-15 0 -15 15v30q0 16 15 16h587q16 0 16 -16v-30z" />
<glyph unicode="`" horiz-adv-x="480" d="M431 619q0 -16 -13 -16q-2 0 -10 2l-347 94q-12 3 -12 15v41q0 16 13 16q6 0 17 -3l338 -97q14 -5 14 -17v-35z" />
<glyph unicode="a" horiz-adv-x="702" d="M646 440q2 -2 5 -9t3 -11v-390q0 -30 -29 -30h-464q-13 0 -25 9l-80 74q-9 7 -9 21v186q0 30 28 30h432v74q0 10 -7 17l-46 47q-5 5 -14 5h-378q-15 0 -15 16v54q0 16 15 16h463q12 0 21 -9zM200 257q-17 0 -17 -17v-92q0 -12 8 -20l35 -31q8 -8 18 -8h247q16 0 16 17 v151h-307z" />
<glyph unicode="b" horiz-adv-x="707" d="M661 132q0 -13 -9 -23l-98 -99q-4 -4 -10.5 -7t-11.5 -3h-384q-14 0 -21 9l-67 74q-10 10 -10 27v440q0 17 1 32.5t3 32.5l13 109q1 13 16 13h100q15 0 15 -16v-172h434q29 0 29 -29v-388zM198 460v-298q0 -11 6 -18l31 -44q9 -14 24 -14h191q13 0 19 10l42 62q8 14 8 24 v263q0 15 -12 15h-309z" />
<glyph unicode="c" horiz-adv-x="647" d="M609 472q0 -16 -16 -16h-347q-9 0 -15 -6l-35 -34q-6 -6 -6 -15v-237q0 -9 4 -13l49 -49q6 -7 18 -7h328q16 0 16 -16v-63q0 -16 -16 -16h-417q-13 0 -21 8l-99 101q-4 5 -6.5 9.5t-2.5 10.5v316q0 12 9 21l74 73q10 10 21 10h446q16 0 16 -16v-61z" />
<glyph unicode="d" d="M649 615q2 -17 3 -32.5t1 -32.5v-534q0 -16 -15 -16h-466q-13 0 -21 8l-99 101q-9 9 -9 20v316q0 12 9 21l75 74q10 9 19 9h359v172q0 16 15 16h100q15 0 16 -13zM237 460q-5 0 -10 -5l-38 -38q-5 -5 -5 -13v-250q0 -8 5 -13l49 -50q5 -5 13 -5h254v374h-268z" />
<glyph unicode="e" horiz-adv-x="701" d="M650 265q0 -29 -29 -29h-431v-78q0 -11 5 -16l52 -52q4 -4 14 -4h373q16 0 16 -16v-54q0 -16 -16 -16h-462q-13 0 -21 8l-100 102q-8 8 -8 19v316q0 12 9 21l73 72q11 11 23 11h473q29 0 29 -29v-255zM247 460q-9 0 -15 -6l-35 -34q-7 -7 -7 -17v-101h307q17 0 17 15v127 q0 16 -17 16h-250z" />
<glyph unicode="f" horiz-adv-x="390" d="M401 674q0 -16 -15 -16h-149q-8 0 -8 -10v-99h130q15 0 15 -16v-38q0 -14 -12 -15l-130 -8v-456q0 -16 -15 -16h-115q-16 0 -16 16v456l-65 8q-12 1 -12 15v38q0 16 16 16h61v158q0 30 29 30h150q16 0 34 -3l90 -14q12 -3 12 -15v-31z" />
<glyph unicode="g" horiz-adv-x="707" d="M658 -118q0 -17 -16 -26l-65 -37q-13 -7 -29 -7h-267q-37 0 -50 4l-109 16q-12 3 -12 12v38q0 6 3.5 11t12.5 5h322q10 0 21 6l33 18q7 4 7 12v92h-359q-11 0 -19 8l-76 75q-8 8 -8 20v291q0 12 8 20l101 101q5 5 10 6.5t10 1.5h453q29 0 29 -29v-638zM255 463 q-7 0 -12 -5l-48 -48q-6 -6 -6 -19v-217q0 -8 2 -12t5 -8l31 -32q5 -5 9 -6.5t14 -1.5h259v336q0 13 -11 13h-243z" />
<glyph unicode="h" horiz-adv-x="717" d="M662 466q9 -8 9 -21v-429q0 -16 -16 -16h-115q-16 0 -16 16v390q0 6 -5 11l-37 38q-5 5 -13 5h-271v-444q0 -16 -15 -16h-118q-15 0 -15 16v534q0 17 1 32.5t3 32.5l13 109q1 13 16 13h100q15 0 15 -16v-172h363q14 0 26 -9z" />
<glyph unicode="i" horiz-adv-x="255" d="M201 16q0 -16 -16 -16h-115q-15 0 -15 16v517q0 16 15 16h115q16 0 16 -16v-517zM201 619q0 -15 -16 -15h-115q-15 0 -15 15v102q0 16 15 16h115q16 0 16 -16v-102z" />
<glyph unicode="j" horiz-adv-x="314" d="M263 -118q0 -17 -16 -26l-60 -34q-18 -11 -46 -10h-69q-21 0 -42 3l-88 14q-12 3 -12 15v38q0 16 15 16h116q8 0 12 1t11 5l22 13q11 8 11 21v595q0 16 15 16h115q16 0 16 -16v-651zM263 619q0 -15 -16 -15h-115q-15 0 -15 15v102q0 16 15 16h115q16 0 16 -16v-102z" />
<glyph unicode="k" horiz-adv-x="714" d="M671 517q0 -11 -7 -21l-119 -182l143 -268q3 -6 3 -14v-15q0 -8 -3 -12.5t-14 -4.5h-110q-16 0 -24 14l-130 238h-212v-236q0 -16 -15 -16h-118q-15 0 -15 16v534q0 17 1 32.5t3 32.5l13 109q1 13 16 13h100q15 0 15 -16v-380h211l109 194q5 8 9 11t14 3h112q18 0 18 -15 v-17z" />
<glyph unicode="l" horiz-adv-x="248" d="M198 16q0 -16 -15 -16h-118q-15 0 -15 16v534q0 17 1 32.5t3 32.5l13 109q1 13 16 13h100q15 0 15 -16v-705z" />
<glyph unicode="m" horiz-adv-x="1040" d="M1005 466q9 -11 9 -21v-429q0 -16 -16 -16h-115q-16 0 -16 16v388q0 8 -5 13l-38 38q-5 5 -13 5h-87q-9 0 -19 -3l-112 -28v-413q0 -16 -16 -16h-104q-16 0 -16 16v398q0 8 -5 13l-27 28q-5 5 -12 5h-97q-11 0 -23 -3l-85 -21q-10 -3 -10 -14v-406q0 -16 -15 -16h-118 q-15 0 -15 16v452q0 23 21 29l166 48q13 4 32 4h219q12 0 20 -9l41 -40l165 46q13 3 25 3h171q11 0 20 -9z" />
<glyph unicode="n" horiz-adv-x="717" d="M662 466q9 -9 9 -23v-427q0 -16 -16 -16h-115q-16 0 -16 16v389q0 7 -5 12l-37 38q-5 5 -13 5h-148q-13 0 -26 -3l-83 -21q-14 -3 -14 -18v-402q0 -16 -15 -16h-118q-15 0 -15 16v450q0 25 21 31l158 46q19 6 37 6h300q13 0 21 -9z" />
<glyph unicode="o" horiz-adv-x="703" d="M652 466q9 -9 9 -21v-341q0 -12 -9 -21l-75 -74q-9 -9 -20 -9h-410q-11 0 -20 9l-75 74q-9 9 -9 21v341q0 12 9 21l75 74q9 9 20 9h410q11 0 20 -9zM240 460q-8 0 -12 -7l-32 -38q-6 -6 -6 -17v-240q0 -11 6 -17l32 -38q4 -7 12 -7h224q8 0 12 7l32 38q6 6 6 17v240 q0 11 -6 17l-32 38q-4 7 -12 7h-224z" />
<glyph unicode="p" horiz-adv-x="713" d="M662 440q9 -8 9 -20v-315q0 -12 -9 -21l-75 -76q-8 -8 -20 -8h-369v-172q0 -16 -15 -16h-118q-15 0 -15 16v642q0 23 21 29l156 44q19 6 46 6h268q12 0 21 -9zM472 455q-8 8 -17 8h-142q-18 0 -30 -4l-70 -18q-15 -5 -15 -21v-331h263q16 0 25 9l31 32q7 7 7 19v239 q0 15 -8 23z" />
<glyph unicode="q" horiz-adv-x="721" d="M672 -172q0 -16 -16 -16h-117q-16 0 -16 16v172h-370q-11 0 -19 8l-76 75q-8 11 -8 21v313q0 14 10 24l92 95q12 13 31 13h460q29 0 29 -30v-691zM264 463q-8 0 -13 -5l-46 -47q-8 -8 -8 -22v-238q0 -10 6 -17l28 -37q5 -8 16 -8h276v359q0 15 -15 15h-244z" />
<glyph unicode="r" horiz-adv-x="486" d="M471 462q0 -15 -16 -15h-145q-9 1 -18.5 -1.5t-19.5 -5.5l-59 -18q-15 -5 -15 -26v-380q0 -16 -15 -16h-118q-15 0 -15 16v452q0 23 21 29l160 46q22 6 44 6h180q16 0 16 -16v-71z" />
<glyph unicode="s" horiz-adv-x="692" d="M641 488q0 -16 -16 -16h-396q-10 0 -17 -7l-27 -29q-6 -6 -6 -14v-47q0 -13 7 -20l20 -24q9 -9 19 -9h324q22 0 36 -14l54 -55q10 -10 10 -29v-122q0 -10 -9 -19l-74 -72q-11 -11 -28 -11h-488q-15 0 -15 16v45q0 16 15 16h402q12 0 20 8l32 30q5 5 5 10v58q0 7 -5 12 l-34 30q-5 5 -14 5h-325q-12 0 -21 9l-59 59q-9 9 -9 23v126q0 12 8 20l71 74q8 8 20 8h484q16 0 16 -16v-45z" />
<glyph unicode="t" horiz-adv-x="395" d="M236 549h124q15 0 15 -16v-38q0 -13 -14 -15l-125 -8v-456q0 -16 -16 -16h-115q-16 0 -16 16v456l-63 8q-14 2 -14 15v38q0 16 16 16h66l20 172q1 16 20 16h86q16 0 16 -16v-172z" />
<glyph unicode="u" d="M656 110q0 -9 -8 -20l-82 -82q-8 -8 -20 -8h-390q-13 0 -21 8l-80 82q-8 11 -8 20v423q0 16 15 16h116q16 0 16 -16v-389q0 -9 7 -16l35 -36q7 -6 11 -6h213q4 0 12 8l35 35q5 5 7 10v394q0 16 16 16h110q16 0 16 -16v-423z" />
<glyph unicode="v" horiz-adv-x="707" d="M685 522q0 -12 -4 -20l-173 -482q-8 -20 -29 -20h-244q-21 0 -29 20l-171 476q-2 7 -4 13.5t-2 12.5v11q0 16 15 16h114q12 0 15 -12l145 -440q3 -8 12 -8h76q9 0 12 8l145 440q4 12 15 12h91q16 0 16 -16v-11z" />
<glyph unicode="w" horiz-adv-x="1016" d="M968 110q0 -9 -8 -20l-82 -82q-8 -8 -20 -8h-702q-13 0 -21 8l-80 82q-8 11 -8 20v423q0 16 15 16h116q16 0 16 -16v-389q0 -9 7 -16l35 -36q7 -6 11 -6h197v447q0 16 15 16h102q16 0 16 -16v-447h195q4 0 12 8l35 35q5 5 7 10v394q0 16 16 16h110q16 0 16 -16v-423z" />
<glyph unicode="x" horiz-adv-x="692" d="M654 514q0 -8 -4 -12l-207 -204l216 -249q5 -5 5 -13v-19q0 -17 -17 -17h-120q-19 0 -31 13l-161 187l-178 -193q-6 -7 -16 -7h-75q-16 0 -16 17v15q0 11 6 17l215 225l-198 225q-6 7 -6 17v16q0 17 18 17h123q16 0 27 -14l143 -166l172 173q4 7 13 7h75q16 0 16 -15v-20 z" />
<glyph unicode="y" horiz-adv-x="719" d="M669 -118q0 -17 -16 -26l-65 -37q-13 -7 -29 -7h-266q-37 0 -50 4l-109 16q-12 3 -12 12v38q0 6 3.5 11t12.5 5h322q10 0 21 6l33 18q7 4 7 12v92h-371q-11 0 -19 8l-76 75q-8 8 -8 20v406q0 16 15 16h116q16 0 16 -16v-361q0 -8 2 -12t5 -8l31 -32q5 -5 9 -6.5t14 -1.5 h266v421q0 16 16 16h116q16 0 16 -16v-653z" />
<glyph unicode="z" horiz-adv-x="700" d="M657 486q0 -14 -11 -25l-388 -351q-8 -6 -8 -14q0 -10 14 -10h387q15 0 15 -16v-54q0 -16 -15 -16h-575q-26 0 -26 27v33q0 17 11 28l393 351q8 8 8 15q0 9 -13 9h-359q-16 0 -16 16v54q0 16 16 16h541q26 0 26 -26v-37z" />
<glyph unicode="{" horiz-adv-x="389" d="M340 791q0 -15 -16 -15h-69q-7 0 -12 -5l-41 -41q-4 -4 -4 -10v-371q0 -11 -8 -19l-30 -30l30 -30q8 -8 8 -19v-370q0 -6 4 -10l41 -41q5 -5 12 -5h69q16 0 16 -15v-31q0 -16 -16 -16h-83q-15 0 -24 9l-76 74q-7 7 -7 19v389l-19 17h-34q-15 0 -15 16v26q0 16 15 16h34 l19 17v390q0 12 7 19l76 74q9 9 24 9h83q16 0 16 -16v-31z" />
<glyph unicode="|" horiz-adv-x="165" d="M115 -222q0 -15 -16 -15h-34q-15 0 -15 15v1045q0 15 15 15h34q16 0 16 -15v-1045z" />
<glyph unicode="}" horiz-adv-x="378" d="M250 755q7 -7 7 -19v-390l19 -17h34q15 0 15 -16v-26q0 -16 -15 -16h-34l-19 -17v-389q0 -12 -7 -19l-76 -74q-9 -9 -24 -9h-83q-16 0 -16 16v31q0 15 16 15h69q7 0 12 5l41 41q4 4 4 10v370q0 11 8 19l30 30l-30 30q-8 8 -8 19v371q0 6 -4 10l-41 41q-5 5 -12 5h-69 q-16 0 -16 15v31q0 16 16 16h83q15 0 24 -9z" />
<glyph unicode="~" horiz-adv-x="567" d="M518 364q0 -11 -10 -14l-113 -45q-8 -4 -23 -4q-2 0 -6 0.5t-9 1.5l-144 35q-10 2 -14 2q-2 0 -12 -2l-106 -42q-7 -4 -18 -4t-11 16v55q0 11 10 14l113 45q8 4 23 4q2 0 6 -0.5t9 -1.5l144 -35q10 -2 14 -2q2 0 12 2l106 42q7 4 18 4t11 -16v-55z" />
<glyph unicode="&#xa1;" horiz-adv-x="283" d="M51.0146 -56.96l18.998 454.973q0 13.999 14.999 13.999h114.993q15.999 0 15.999 -13.999l17.999 -454.973v-43.9971q0 -17.999 -15.999 -17.999h-149.99q-16.999 0 -16.999 17.999v43.9971zM69.0127 584.001q0 15.999 15.999 15.999h115.993q14.999 0 14.999 -15.999 v-93.9941q0 -15.999 -14.999 -15.999h-115.993q-15.999 0 -15.999 15.999v93.9941z" />
<glyph unicode="&#xa2;" horiz-adv-x="625" d="M579 543q0 -16 -16 -16h-310q-9 0 -15 -6l-35 -34q-6 -6 -6 -15v-237q0 -9 4 -13l49 -49q6 -7 18 -7h291q16 0 16 -16v-63q0 -16 -16 -16h-196v-55q0 -16 -15 -16h-34q-15 0 -15 16v55h-120q-13 0 -21 8l-101 103q-7 7 -7 18v316q0 12 9 21l74 73q10 10 21 10h145v55 q0 16 15 16h34q15 0 15 -16v-55h200q16 0 16 -16v-61z" />
<glyph unicode="&#xa3;" horiz-adv-x="676" d="M581 601q0 -15 -16 -15h-250q-10 0 -17 -7l-42 -43q-6 -6 -6 -17v-130h302q16 0 16 -16v-29q0 -16 -16 -16h-302v-223h370q16 0 16 -16v-73q0 -16 -16 -16h-567q-15 0 -15 16v73q0 16 15 16h24v223h-24q-15 0 -15 16v29q0 16 15 16h24v169q0 21 13 34l82 87q12 12 29 12 h364q16 0 16 -16v-74z" />
<glyph unicode="&#xa5;" horiz-adv-x="695" d="M648 661q1 -15 -7 -30l-212 -391h213q15 0 15 -15v-39q0 -16 -15 -16h-228v-154q0 -16 -16 -16h-98q-16 0 -16 16v154h-228q-15 0 -15 16v39q0 15 15 15h213l-212 391q-8 15 -7 30v14q0 16 16 16h88q10 0 15 -11l180 -345l180 345q5 11 15 11h88q16 0 16 -16v-14z" />
<glyph unicode="&#xa6;" horiz-adv-x="165" d="M115 -222q0 -6 -4.5 -10.5t-11.5 -4.5h-34q-6 0 -10.5 4.5t-4.5 10.5v361q0 7 4.5 11.5t10.5 4.5h34q16 0 16 -16v-361zM115 481q0 -6 -4.5 -10.5t-11.5 -4.5h-34q-6 0 -10.5 4.5t-4.5 10.5v342q0 6 4.5 10.5t10.5 4.5h34q7 0 11.5 -4.5t4.5 -10.5v-342z" />
<glyph unicode="&#xa8;" horiz-adv-x="485" d="M158 645q0 -15 -16 -15h-77q-15 0 -15 15v102q0 15 15 15h77q16 0 16 -15v-102zM437 645q0 -15 -16 -15h-77q-15 0 -15 15v102q0 15 15 15h77q16 0 16 -15v-102z" />
<glyph unicode="&#xaa;" horiz-adv-x="488" d="M445 596q8 -8 8 -20v-230q0 -29 -29 -29h-300q-15 0 -25 10l-41 37q-9 9 -9 23v93q0 30 28 30h282v53q0 7 -6 13l-28 26q-6 6 -15 6h-246q-15 0 -15 16v21q0 16 15 16h305q10 0 19 -9zM154 473q-14 0 -14 -15v-46q0 -9 5 -14l21 -20q5 -5 13 -5h165q15 0 15 14v86h-205z " />
<glyph unicode="&#xab;" horiz-adv-x="526" d="M501 519q4 -3 4 -8t-4 -10l-127 -174q-3 -5 -3 -10q0 -6 3 -9l127 -173q4 -5 4 -10t-4 -8l-36 -34q-5 -4 -11 -4t-11 5l-156 216q-6 9 -6 18t6 18l156 216q5 5 11 5t11 -4zM244 519q4 -3 4 -8t-4 -10l-127 -174q-3 -5 -3 -10q0 -6 3 -9l127 -173q4 -5 4 -10t-4 -8 l-36 -34q-5 -4 -11 -4t-11 5l-156 216q-6 9 -6 18t6 18l156 216q5 5 11 5t11 -4z" />
<glyph unicode="&#xaf;" horiz-adv-x="505" d="M456 675q0 -15 -15 -15h-376q-15 0 -15 15v43q0 15 15 15h376q15 0 15 -15v-43z" />
<glyph unicode="&#xb0;" horiz-adv-x="324" d="M267 632q8 -8 8 -22v-56q0 -14 -8 -22l-50 -50q-9 -9 -21 -9h-70q-12 0 -21 9l-50 50q-8 8 -8 22v56q0 14 8 22l50 50q9 9 21 9h70q12 0 21 -9zM193 645q-3 3 -8 3h-48q-5 0 -8 -3l-35 -35q-3 -3 -3 -8v-40q0 -5 3 -8l35 -35q3 -3 8 -3h48q5 0 8 3l35 35q3 3 3 8v40 q0 5 -3 8z" />
<glyph unicode="&#xb2;" horiz-adv-x="606" d="M544 661q9 -11 9 -26v-76q0 -9 -2 -14t-6 -10l-66 -69q-8 -8 -21 -8h-222q-8 0 -14 -6l-35 -33q-8 -8 -8 -22v-68q0 -12 12 -12h349q15 0 15 -16v-49q0 -16 -15 -16h-462q-28 0 -28 29v149q0 11 3.5 18t9.5 13l69 74q5 5 10 6.5t17 1.5h232q9 0 16 7l30 31q6 6 6 16v19 q0 10 -4 14l-30 31q-8 8 -19 8h-301q-16 0 -16 15v53q0 16 16 16h372q11 0 21 -10z" />
<glyph unicode="&#xb3;" horiz-adv-x="596" d="M499 660q9 -9 9 -23v-113l29 -31q5 -5 6.5 -9t1.5 -9v-119q0 -18 -11 -29l-70 -77q-8 -9 -15 -11.5t-21 -2.5h-363q-15 0 -15 16v49q0 16 15 16h286q8 0 13 5l35 39q7 7 7 20v61q0 5 -3 8l-14 13h-308q-16 0 -16 16v25q0 15 16 15h306v83q0 7 -5 12l-32 34q-3 5 -10 5 h-264q-16 0 -16 15v53q0 16 16 16h339q15 0 22 -10z" />
<glyph unicode="&#xb4;" horiz-adv-x="480" d="M431 714q0 -12 -12 -15l-347 -94q-6 -2 -10 -2q-13 0 -13 16v35q0 12 14 17l338 97q10 3 17 3q13 0 13 -16v-41z" />
<glyph unicode="&#xb6;" horiz-adv-x="554" d="M471 617q-2 -6 -2 -7v-680q0 -16 -16 -16h-48q-15 0 -15 16v731h-179v-731q0 -16 -15 -16h-49q-16 0 -16 16v484l-84 42q-15 7 -15 26v165q0 13 9 21l67 61q8 8 19 8h356q30 0 30 -24q0 -9 -6 -22z" />
<glyph unicode="&#xb7;" horiz-adv-x="245" d="M197 297q0 -16 -16 -16h-116q-15 0 -15 16v111q0 15 15 15h116q16 0 16 -15v-111z" />
<glyph unicode="&#xb8;" horiz-adv-x="162" d="M112 -70v-9t-1 -10l-9 -86q-2 -15 -15 -15h-24q-14 0 -15 15l-9 86q-1 5 -1 10v9v9q0 12 14 12h46q14 0 14 -12v-9z" />
<glyph unicode="&#xb9;" horiz-adv-x="341" d="M284 657q7 -7 7 -17v-388q0 -16 -16 -16h-98q-18 0 -18 16v373q0 10 -7 17l-20 19q-8 5 -16 5h-51q-8 0 -11.5 5t-3.5 12v38q0 16 15 16h129q17 0 29 -12z" />
<glyph unicode="&#xba;" horiz-adv-x="494" d="M453 611q7 -7 7 -20v-204q0 -13 -7 -20l-43 -41q-9 -9 -23 -9h-264q-14 0 -23 9l-43 41q-7 7 -7 20v204q0 13 7 20l43 41q9 9 23 9h264q14 0 23 -9zM341 597q-5 5 -12 5h-148q-7 0 -12 -5l-19 -19q-6 -5 -6 -13v-152q0 -9 6 -13l19 -19q5 -5 12 -5h148q7 0 12 5l19 19 q6 4 6 13v152q0 8 -6 13z" />
<glyph unicode="&#xbb;" horiz-adv-x="526" d="M242 336q6 -9 6 -18t-6 -18l-156 -216q-5 -5 -11 -5t-11 4l-36 34q-4 3 -4 8t4 10l127 173q3 3 3 9q0 5 -3 10l-127 174q-4 5 -4 10t4 8l36 34q5 4 11 4t11 -5zM499 336q6 -9 6 -18t-6 -18l-156 -216q-5 -5 -11 -5t-11 4l-36 34q-4 3 -4 8t4 10l127 173q3 3 3 9 q0 5 -3 10l-127 174q-4 5 -4 10t4 8l36 34q5 4 11 4t11 -5z" />
<glyph unicode="&#xbc;" horiz-adv-x="1128" d="M270 -67q-6 -7 -14 -7h-46q-19 0 -19 12q0 5 1.5 7.5l4.5 7.5l558 805q4 7 13 7h47q18 0 18 -12q0 -7 -5 -15zM285 657q7 -7 7 -17v-388q0 -16 -16 -16h-98q-18 0 -18 16v373q0 10 -7 17l-20 19q-8 5 -16 5h-51q-8 0 -11.5 5t-3.5 12v38q0 16 15 16h129q17 0 29 -12z M1061 104h18q16 0 16 -16v-47q0 -16 -16 -16h-18v-100q0 -16 -16 -16h-85q-15 0 -15 16v100h-340q-28 0 -28 29v49q0 13 2 22t8 19l137 245q11 20 32 20h276q29 0 29 -29v-276zM816 343q-14 0 -22 -14l-104 -187q-5 -8 -5 -18v-9q0 -11 11 -11h249v226q0 13 -12 13h-117z " />
<glyph unicode="&#xbd;" horiz-adv-x="1201" d="M269 -67q-6 -7 -14 -7h-46q-19 0 -19 12q0 5 1.5 7.5l4.5 7.5l558 805q4 7 13 7h47q18 0 18 -12q0 -7 -5 -15zM285 657q7 -7 7 -17v-388q0 -16 -16 -16h-98q-18 0 -18 16v373q0 10 -7 17l-20 19q-8 5 -16 5h-51q-8 0 -11.5 5t-3.5 12v38q0 16 15 16h129q17 0 29 -12z M1149 334q9 -11 9 -26v-76q0 -9 -2 -14t-6 -10l-66 -69q-8 -8 -21 -8h-222q-8 0 -14 -6l-35 -33q-8 -8 -8 -22v-68q0 -12 12 -12h349q15 0 15 -16v-49q0 -16 -15 -16h-462q-28 0 -28 29v149q0 11 3.5 18t9.5 13l69 74q5 5 10 6.5t17 1.5h232q9 0 16 7l30 31q6 6 6 16v19 q0 10 -4 14l-30 31q-8 8 -19 8h-301q-16 0 -16 15v53q0 16 16 16h372q11 0 21 -10z" />
<glyph unicode="&#xbe;" horiz-adv-x="1322" d="M459 -67q-6 -7 -14 -7h-46q-19 0 -19 12q0 5 1.5 7.5l4.5 7.5l558 805q4 7 13 7h47q18 0 18 -12q0 -7 -5 -15zM1246 104h18q16 0 16 -16v-47q0 -16 -16 -16h-18v-100q0 -16 -16 -16h-85q-15 0 -15 16v100h-340q-28 0 -28 29v49q0 13 2 22t8 19l137 245q11 20 32 20h276 q29 0 29 -29v-276zM1001 343q-14 0 -22 -14l-104 -187q-5 -8 -5 -18v-9q0 -11 11 -11h249v226q0 13 -12 13h-117zM500 660q9 -9 9 -23v-113l29 -31q5 -5 6.5 -9t1.5 -9v-119q0 -18 -11 -29l-70 -77q-8 -9 -15 -11.5t-21 -2.5h-363q-15 0 -15 16v49q0 16 15 16h286q8 0 13 5 l35 39q7 7 7 20v61q0 5 -3 8l-14 13h-308q-16 0 -16 16v25q0 15 16 15h306v83q0 7 -5 12l-32 34q-3 5 -10 5h-264q-16 0 -16 15v53q0 16 16 16h339q15 0 22 -10z" />
<glyph unicode="&#xbf;" horiz-adv-x="582" d="M45.0332 -36.9609q-7.99902 10.999 -7.99902 22.998v96.9941q0 16.999 10.999 27.999l209.987 216.986q8.99902 10.999 8.99902 24.998v44.998q0 14.999 15.999 14.999h115.993q15.999 0 15.999 -14.999v-56.9971q0 -14.999 -3.5 -24.498q-3.49902 -9.5 -12.499 -18.499 l-197.988 -206.987q-4.99902 -5 -4.99902 -12.999v-42.998q0 -5.99902 4 -9.99902l33.9971 -36.998q7 -6.99902 15 -6.99902h289.981q14.999 0 14.999 -15.999v-66.9961q0 -15.999 -14.999 -15.999h-406.975q-11.999 0 -20.999 10.999zM268.02 584.001 q0 15.999 15.999 15.999h115.993q14.999 0 14.999 -15.999v-93.9941q0 -15.999 -14.999 -15.999h-115.993q-15.999 0 -15.999 15.999v93.9941z" />
<glyph unicode="&#xc0;" horiz-adv-x="914" d="M875 59q3 -8 5 -14.5t2 -14.5v-14q0 -16 -15 -16h-152q-10 0 -14 12l-48 131h-424l-47 -131q-5 -12 -15 -12h-123q-15 0 -15 16v14q0 8 2 14.5t5 14.5l220 612q3 9 12.5 14.5t16.5 5.5h341q21 0 29 -20zM400 586q-10 0 -11 -6l-124 -338h352l-124 339q-2 5 -9 5h-84z M623 761q0 -16 -13 -16q-2 0 -10 2l-347 94q-12 3 -12 15v41q0 16 13 16q6 0 17 -3l338 -97q14 -5 14 -17v-35z" />
<glyph unicode="&#xc1;" horiz-adv-x="914" d="M875 59q3 -8 5 -14.5t2 -14.5v-14q0 -16 -15 -16h-152q-10 0 -14 12l-48 131h-424l-47 -131q-5 -12 -15 -12h-123q-15 0 -15 16v14q0 8 2 14.5t5 14.5l220 612q3 9 12.5 14.5t16.5 5.5h341q21 0 29 -20zM400 586q-10 0 -11 -6l-124 -338h352l-124 339q-2 5 -9 5h-84z M682 856q0 -12 -12 -15l-347 -94q-6 -2 -10 -2q-13 0 -13 16v35q0 12 14 17l338 97q10 3 17 3q13 0 13 -16v-41z" />
<glyph unicode="&#xc2;" horiz-adv-x="914" d="M875 59q3 -8 5 -14.5t2 -14.5v-14q0 -16 -15 -16h-152q-10 0 -14 12l-48 131h-424l-47 -131q-5 -12 -15 -12h-123q-15 0 -15 16v14q0 8 2 14.5t5 14.5l220 612q3 9 12.5 14.5t16.5 5.5h341q21 0 29 -20zM400 586q-10 0 -11 -6l-124 -338h352l-124 339q-2 5 -9 5h-84z M653 779q0 -16 -13 -16q-4 0 -9 2l-10 4l-159 76l-160 -76q-5 -2 -9.5 -4t-9.5 -2q-12 0 -12 16v45q0 11 9 16l170 86q6 3 12 3t12 -3l169 -86q10 -4 10 -16v-45z" />
<glyph unicode="&#xc3;" horiz-adv-x="914" d="M875 59q3 -8 5 -14.5t2 -14.5v-14q0 -16 -15 -16h-152q-10 0 -14 12l-48 131h-424l-47 -131q-5 -12 -15 -12h-123q-15 0 -15 16v14q0 8 2 14.5t5 14.5l220 612q3 9 12.5 14.5t16.5 5.5h341q21 0 29 -20zM400 586q-10 0 -11 -6l-124 -338h352l-124 339q-2 5 -9 5h-84z M674 840q0 -15 -12 -19l-97 -40q-8 -4 -20 -4q-9 0 -12 1l-140 35q-4 1 -10 1q-1 0 -9 -2l-97 -38q-7 -4 -14 -4q-11 0 -11 11v44q0 14 12 19l97 40q8 4 20 4q9 0 12 -1l140 -35q4 -1 10 -1q1 0 9 2l97 38q7 4 14 4q11 0 11 -11v-44z" />
<glyph unicode="&#xc4;" horiz-adv-x="914" d="M875 59q3 -8 5 -14.5t2 -14.5v-14q0 -16 -15 -16h-152q-10 0 -14 12l-48 131h-424l-47 -131q-5 -12 -15 -12h-123q-15 0 -15 16v14q0 8 2 14.5t5 14.5l220 612q3 9 12.5 14.5t16.5 5.5h341q21 0 29 -20zM400 586q-10 0 -11 -6l-124 -338h352l-124 339q-2 5 -9 5h-84z M377 787q0 -15 -16 -15h-77q-15 0 -15 15v102q0 15 15 15h77q16 0 16 -15v-102zM656 787q0 -15 -16 -15h-77q-15 0 -15 15v102q0 15 15 15h77q16 0 16 -15v-102z" />
<glyph unicode="&#xc5;" horiz-adv-x="914" d="M875 59q3 -8 5 -14.5t2 -14.5v-14q0 -16 -15 -16h-152q-10 0 -14 12l-48 131h-424l-47 -131q-5 -12 -15 -12h-123q-15 0 -15 16v14q0 8 2 14.5t5 14.5l220 612q3 9 12.5 14.5t16.5 5.5h341q21 0 29 -20zM400 586q-10 0 -11 -6l-124 -338h352l-124 339q-2 5 -9 5h-84z M568 901q9 -11 9 -22v-59q0 -12 -9 -22l-49 -50q-9 -9 -21 -9h-72q-12 0 -21 9l-49 50q-9 10 -9 22v59q0 11 9 22l49 50q9 9 21 9h72q12 0 21 -9zM496 913q-4 4 -11 4h-46q-7 0 -11 -4l-32 -32q-5 -8 -5 -14v-35q0 -6 5 -14l32 -32q4 -4 11 -4h46q7 0 11 4l32 32q5 8 5 14 v35q0 6 -5 14z" />
<glyph unicode="&#xc6;" horiz-adv-x="1228" d="M1190 601q0 -15 -15 -15h-467v-184h459q16 0 16 -16v-68q0 -15 -16 -15h-459v-118q0 -6 5 -11l66 -62q7 -7 16 -7h380q16 0 16 -16v-73q0 -16 -16 -16h-467q-19 0 -32 13l-131 123q-9 9 -9 22v428h-180q-13 0 -16 -12l-131 -469h230q15 0 15 -18v-71q0 -16 -15 -16h-387 q-23 0 -23 24v21q0 9 3 17l174 609q6 20 28 20h941q15 0 15 -16v-74z" />
<glyph unicode="&#xc7;" horiz-adv-x="792" d="M749 601q0 -15 -16 -15h-431q-9 0 -15 -6l-49 -47q-5 -5 -5 -14v-331q0 -10 5 -15l66 -62q7 -6 17 -6h412q16 0 16 -16v-73q0 -16 -16 -16h-522q-15 0 -26 11l-133 125q-9 9 -9 22v407q0 13 9 22l97 93q11 11 26 11h558q16 0 16 -16v-74zM447 -70v-9t-1 -10l-9 -86 q-2 -15 -15 -15h-24q-14 0 -15 15l-9 86q-1 5 -1 10v9v9q0 12 14 12h46q14 0 14 -12v-9z" />
<glyph unicode="&#xc8;" horiz-adv-x="805" d="M768 601q0 -15 -16 -15h-450q-9 0 -16 -7l-46 -44q-7 -7 -7 -18v-113h512q16 0 16 -15v-71q0 -15 -16 -15h-512v-114q0 -10 7 -17l64 -60q7 -7 17 -7h432q16 0 16 -16v-73q0 -16 -16 -16h-539q-16 0 -30 11l-132 125q-9 9 -9 22v407q0 13 9 22l96 92q12 12 28 12h576 q16 0 16 -16v-74zM588 761q0 -16 -13 -16q-2 0 -10 2l-347 94q-12 3 -12 15v41q0 16 13 16q6 0 17 -3l338 -97q14 -5 14 -17v-35z" />
<glyph unicode="&#xc9;" horiz-adv-x="805" d="M768 601q0 -15 -16 -15h-450q-9 0 -16 -7l-46 -44q-7 -7 -7 -18v-113h512q16 0 16 -15v-71q0 -15 -16 -15h-512v-114q0 -10 7 -17l64 -60q7 -7 17 -7h432q16 0 16 -16v-73q0 -16 -16 -16h-539q-16 0 -30 11l-132 125q-9 9 -9 22v407q0 13 9 22l96 92q12 12 28 12h576 q16 0 16 -16v-74zM646 856q0 -12 -12 -15l-347 -94q-6 -2 -10 -2q-13 0 -13 16v35q0 12 14 17l338 97q10 3 17 3q13 0 13 -16v-41z" />
<glyph unicode="&#xca;" horiz-adv-x="805" d="M768 601q0 -15 -16 -15h-450q-9 0 -16 -7l-46 -44q-7 -7 -7 -18v-113h512q16 0 16 -15v-71q0 -15 -16 -15h-512v-114q0 -10 7 -17l64 -60q7 -7 17 -7h432q16 0 16 -16v-73q0 -16 -16 -16h-539q-16 0 -30 11l-132 125q-9 9 -9 22v407q0 13 9 22l96 92q12 12 28 12h576 q16 0 16 -16v-74zM618 779q0 -16 -13 -16q-4 0 -9 2l-10 4l-159 76l-160 -76q-5 -2 -9.5 -4t-9.5 -2q-12 0 -12 16v45q0 11 9 16l170 86q6 3 12 3t12 -3l169 -86q10 -4 10 -16v-45z" />
<glyph unicode="&#xcb;" horiz-adv-x="805" d="M768 601q0 -15 -16 -15h-450q-9 0 -16 -7l-46 -44q-7 -7 -7 -18v-113h512q16 0 16 -15v-71q0 -15 -16 -15h-512v-114q0 -10 7 -17l64 -60q7 -7 17 -7h432q16 0 16 -16v-73q0 -16 -16 -16h-539q-16 0 -30 11l-132 125q-9 9 -9 22v407q0 13 9 22l96 92q12 12 28 12h576 q16 0 16 -16v-74zM341 787q0 -15 -16 -15h-77q-15 0 -15 15v102q0 15 15 15h77q16 0 16 -15v-102zM620 787q0 -15 -16 -15h-77q-15 0 -15 15v102q0 15 15 15h77q16 0 16 -15v-102z" />
<glyph unicode="&#xcc;" horiz-adv-x="308" d="M249 16q0 -16 -16 -16h-159q-16 0 -16 16v659q0 16 16 16h159q16 0 16 -16v-659zM316 761q0 -16 -13 -16q-2 0 -10 2l-347 94q-12 3 -12 15v41q0 16 13 16q6 0 17 -3l338 -97q14 -5 14 -17v-35z" />
<glyph unicode="&#xcd;" horiz-adv-x="308" d="M249 16q0 -16 -16 -16h-159q-16 0 -16 16v659q0 16 16 16h159q16 0 16 -16v-659zM375 856q0 -12 -12 -15l-347 -94q-6 -2 -10 -2q-13 0 -13 16v35q0 12 14 17l338 97q10 3 17 3q13 0 13 -16v-41z" />
<glyph unicode="&#xce;" horiz-adv-x="308" d="M249 16q0 -16 -16 -16h-159q-16 0 -16 16v659q0 16 16 16h159q16 0 16 -16v-659zM346 779q0 -16 -13 -16q-4 0 -9 2l-10 4l-159 76l-160 -76q-5 -2 -9.5 -4t-9.5 -2q-12 0 -12 16v45q0 11 9 16l170 86q6 3 12 3t12 -3l169 -86q10 -4 10 -16v-45z" />
<glyph unicode="&#xcf;" horiz-adv-x="308" d="M249 16q0 -16 -16 -16h-159q-16 0 -16 16v659q0 16 16 16h159q16 0 16 -16v-659zM70 787q0 -15 -16 -15h-77q-15 0 -15 15v102q0 15 15 15h77q16 0 16 -15v-102zM349 787q0 -15 -16 -15h-77q-15 0 -15 15v102q0 15 15 15h77q16 0 16 -15v-102z" />
<glyph unicode="&#xd0;" horiz-adv-x="899" d="M838 559q9 -8 9 -21v-349q0 -9 -1.5 -13t-7.5 -10l-160 -152q-12 -14 -36 -14h-582q-29 0 -29 30v286h-16q-15 0 -15 16v32q0 16 15 16h16v282q0 29 29 29h618q23 0 40 -14zM593 577q-9 9 -23 9h-335q-14 0 -14 -14v-192h197q16 0 16 -16v-32q0 -6 -5 -11t-11 -5h-197 v-194q0 -17 16 -17h313q14 0 22 8l77 73q8 8 8 19v299q0 10 -7 17z" />
<glyph unicode="&#xd1;" horiz-adv-x="890" d="M840 27q0 -27 -25 -27h-99q-28 0 -49 21l-476 447v-452q0 -16 -15 -16h-111q-15 0 -15 16v648q0 27 25 27h99q28 0 49 -21l472 -449v454q0 16 16 16h114q15 0 15 -16v-648zM656 840q0 -15 -12 -19l-97 -40q-8 -4 -20 -4q-9 0 -12 1l-140 35q-4 1 -10 1q-1 0 -9 -2 l-97 -38q-7 -4 -14 -4q-11 0 -11 11v44q0 14 12 19l97 40q8 4 20 4q9 0 12 -1l140 -35q4 -1 10 -1q1 0 9 2l97 38q7 4 14 4q11 0 11 -11v-44z" />
<glyph unicode="&#xd2;" horiz-adv-x="896" d="M841 589q11 -11 11 -27v-433q0 -16 -11 -27l-97 -93q-9 -9 -24 -9h-545q-15 0 -24 9l-97 93q-11 11 -11 27v433q0 16 11 27l97 93q9 9 24 9h545q15 0 24 -9zM612 578q-8 8 -19 8h-291q-11 0 -19 -8l-45 -44q-7 -7 -7 -18v-341q0 -11 7 -18l45 -44q8 -8 19 -8h291 q11 0 19 8l45 44q7 7 7 18v341q0 11 -7 18zM609 761q0 -16 -13 -16q-2 0 -10 2l-347 94q-12 3 -12 15v41q0 16 13 16q6 0 17 -3l338 -97q14 -5 14 -17v-35z" />
<glyph unicode="&#xd3;" horiz-adv-x="896" d="M841 589q11 -11 11 -27v-433q0 -16 -11 -27l-97 -93q-9 -9 -24 -9h-545q-15 0 -24 9l-97 93q-11 11 -11 27v433q0 16 11 27l97 93q9 9 24 9h545q15 0 24 -9zM612 578q-8 8 -19 8h-291q-11 0 -19 -8l-45 -44q-7 -7 -7 -18v-341q0 -11 7 -18l45 -44q8 -8 19 -8h291 q11 0 19 8l45 44q7 7 7 18v341q0 11 -7 18zM667 856q0 -12 -12 -15l-347 -94q-6 -2 -10 -2q-13 0 -13 16v35q0 12 14 17l338 97q10 3 17 3q13 0 13 -16v-41z" />
<glyph unicode="&#xd4;" horiz-adv-x="896" d="M841 589q11 -11 11 -27v-433q0 -16 -11 -27l-97 -93q-9 -9 -24 -9h-545q-15 0 -24 9l-97 93q-11 11 -11 27v433q0 16 11 27l97 93q9 9 24 9h545q15 0 24 -9zM612 578q-8 8 -19 8h-291q-11 0 -19 -8l-45 -44q-7 -7 -7 -18v-341q0 -11 7 -18l45 -44q8 -8 19 -8h291 q11 0 19 8l45 44q7 7 7 18v341q0 11 -7 18zM639 779q0 -16 -13 -16q-4 0 -9 2l-10 4l-159 76l-160 -76q-5 -2 -9.5 -4t-9.5 -2q-12 0 -12 16v45q0 11 9 16l170 86q6 3 12 3t12 -3l169 -86q10 -4 10 -16v-45z" />
<glyph unicode="&#xd5;" horiz-adv-x="896" d="M841 589q11 -11 11 -27v-433q0 -16 -11 -27l-97 -93q-9 -9 -24 -9h-545q-15 0 -24 9l-97 93q-11 11 -11 27v433q0 16 11 27l97 93q9 9 24 9h545q15 0 24 -9zM612 578q-8 8 -19 8h-291q-11 0 -19 -8l-45 -44q-7 -7 -7 -18v-341q0 -11 7 -18l45 -44q8 -8 19 -8h291 q11 0 19 8l45 44q7 7 7 18v341q0 11 -7 18zM659 840q0 -15 -12 -19l-97 -40q-8 -4 -20 -4q-9 0 -12 1l-140 35q-4 1 -10 1q-1 0 -9 -2l-97 -38q-7 -4 -14 -4q-11 0 -11 11v44q0 14 12 19l97 40q8 4 20 4q9 0 12 -1l140 -35q4 -1 10 -1q1 0 9 2l97 38q7 4 14 4q11 0 11 -11 v-44z" />
<glyph unicode="&#xd6;" horiz-adv-x="896" d="M841 589q11 -11 11 -27v-433q0 -16 -11 -27l-97 -93q-9 -9 -24 -9h-545q-15 0 -24 9l-97 93q-11 11 -11 27v433q0 16 11 27l97 93q9 9 24 9h545q15 0 24 -9zM612 578q-8 8 -19 8h-291q-11 0 -19 -8l-45 -44q-7 -7 -7 -18v-341q0 -11 7 -18l45 -44q8 -8 19 -8h291 q11 0 19 8l45 44q7 7 7 18v341q0 11 -7 18zM362 787q0 -15 -16 -15h-77q-15 0 -15 15v102q0 15 15 15h77q16 0 16 -15v-102zM641 787q0 -15 -16 -15h-77q-15 0 -15 15v102q0 15 15 15h77q16 0 16 -15v-102z" />
<glyph unicode="&#xd7;" horiz-adv-x="474" d="M421 512q4 -4 4 -11q0 -6 -4 -10l-123 -123l123 -124q5 -8 5 -11q0 -5 -5 -10l-39 -39q-6 -6 -12 -6q-2 0 -10 5l-123 124l-124 -124q-5 -5 -11 -5q-5 0 -10 5l-39 39q-6 6 -6 12q0 5 5 10l124 124l-123 123q-5 5 -5 10q0 6 6 12l38 39q4 4 11 4t11 -4l123 -123l123 123 q4 4 10 4q7 0 12 -5z" />
<glyph unicode="&#xd8;" horiz-adv-x="896" d="M736 687l4 -2t4 -3l97 -93q11 -11 11 -27v-433q0 -16 -11 -27l-97 -93q-9 -9 -24 -9h-505l-38 -50q-5 -7 -12 -12.5t-14 -5.5h-23q-16 0 -16 12q0 2 0.5 5.5t4.5 9.5l36 47l-99 96q-11 11 -11 27v433q0 16 11 27l97 93q9 9 24 9h503l35 46q1 3 5.5 5t8.5 2h21 q17 0 17 -11q0 -2 -1.5 -7.5t-4.5 -8.5zM636 554l-341 -449h298q11 0 19 8l45 44q7 7 7 18v341q0 11 -7 18zM302 586q-11 0 -19 -8l-45 -44q-7 -7 -7 -18v-341q0 -11 7 -18l17 -17l342 446h-295z" />
<glyph unicode="&#xd9;" horiz-adv-x="900" d="M854 138q0 -13 -9 -20l-108 -104q-8 -8 -17.5 -10.5t-19.5 -3.5h-500q-21 0 -37 14l-108 104q-9 7 -9 20v537q0 16 16 16h159q15 0 15 -16v-500q0 -7 6 -13l57 -52q5 -5 13 -5h279q8 0 13 5l57 52q6 6 6 13v500q0 16 15 16h156q16 0 16 -16v-537zM611 761q0 -16 -13 -16 q-2 0 -10 2l-347 94q-12 3 -12 15v41q0 16 13 16q6 0 17 -3l338 -97q14 -5 14 -17v-35z" />
<glyph unicode="&#xda;" horiz-adv-x="900" d="M854 138q0 -13 -9 -20l-108 -104q-8 -8 -17.5 -10.5t-19.5 -3.5h-500q-21 0 -37 14l-108 104q-9 7 -9 20v537q0 16 16 16h159q15 0 15 -16v-500q0 -7 6 -13l57 -52q5 -5 13 -5h279q8 0 13 5l57 52q6 6 6 13v500q0 16 15 16h156q16 0 16 -16v-537zM669 856q0 -12 -12 -15 l-347 -94q-6 -2 -10 -2q-13 0 -13 16v35q0 12 14 17l338 97q10 3 17 3q13 0 13 -16v-41z" />
<glyph unicode="&#xdb;" horiz-adv-x="900" d="M854 138q0 -13 -9 -20l-108 -104q-8 -8 -17.5 -10.5t-19.5 -3.5h-500q-21 0 -37 14l-108 104q-9 7 -9 20v537q0 16 16 16h159q15 0 15 -16v-500q0 -7 6 -13l57 -52q5 -5 13 -5h279q8 0 13 5l57 52q6 6 6 13v500q0 16 15 16h156q16 0 16 -16v-537zM640 779q0 -16 -13 -16 q-4 0 -9 2l-10 4l-159 76l-160 -76q-5 -2 -9.5 -4t-9.5 -2q-12 0 -12 16v45q0 11 9 16l170 86q6 3 12 3t12 -3l169 -86q10 -4 10 -16v-45z" />
<glyph unicode="&#xdc;" horiz-adv-x="900" d="M854 138q0 -13 -9 -20l-108 -104q-8 -8 -17.5 -10.5t-19.5 -3.5h-500q-21 0 -37 14l-108 104q-9 7 -9 20v537q0 16 16 16h159q15 0 15 -16v-500q0 -7 6 -13l57 -52q5 -5 13 -5h279q8 0 13 5l57 52q6 6 6 13v500q0 16 15 16h156q16 0 16 -16v-537zM364 787q0 -15 -16 -15 h-77q-15 0 -15 15v102q0 15 15 15h77q16 0 16 -15v-102zM643 787q0 -15 -16 -15h-77q-15 0 -15 15v102q0 15 15 15h77q16 0 16 -15v-102z" />
<glyph unicode="&#xdd;" horiz-adv-x="840" d="M803 461q0 -12 -9 -19l-280 -211v-215q0 -16 -16 -16h-159q-15 0 -15 16v215l-280 211q-9 7 -9 19v214q0 16 15 16h149q16 0 16 -16v-193q0 -14 8 -20l198 -147l197 147q8 6 8 20v193q0 16 16 16h145q16 0 16 -16v-214zM639 856q0 -12 -12 -15l-347 -94q-6 -2 -10 -2 q-13 0 -13 16v35q0 12 14 17l338 97q10 3 17 3q13 0 13 -16v-41z" />
<glyph unicode="&#xde;" horiz-adv-x="891" d="M833 465q9 -9 9 -23v-178q0 -15 -9 -24l-130 -124q-13 -13 -30 -13h-435v-87q0 -16 -16 -16h-157q-15 0 -15 16v659q0 16 15 16h157q16 0 16 -16v-106h466q20 0 34 -12zM600 457q-7 7 -19 7h-343v-260h315q21 0 30 9l59 50q6 5 9 11.5t3 18.5v102q0 6 -1 9t-6 8z" />
<glyph unicode="&#xdf;" horiz-adv-x="809" d="M577 457h92q12 0 20 -8l76 -74q8 -11 8 -22v-224q0 -9 -8 -20l-102 -101q-8 -8 -20 -8h-226q-16 0 -16 16v63q0 16 16 16h144q5 0 10 5l50 50q5 5 5 12v149q0 9 -7 16l-31 32q-5 6 -13 6h-105q-16 0 -16 16v249q0 9 -8 11l-56 14q-9 3 -19 3h-164q-10 0 -10 -10v-632 q0 -16 -16 -16h-116q-15 0 -15 16v691q0 30 28 30h318q29 0 42 -4l118 -29q21 -6 21 -28v-219z" />
<glyph unicode="&#xe0;" horiz-adv-x="702" d="M646 440q2 -2 5 -9t3 -11v-390q0 -30 -29 -30h-464q-13 0 -25 9l-80 74q-9 7 -9 21v186q0 30 28 30h432v74q0 10 -7 17l-46 47q-5 5 -14 5h-378q-15 0 -15 16v54q0 16 15 16h463q12 0 21 -9zM200 257q-17 0 -17 -17v-92q0 -12 8 -20l35 -31q8 -8 18 -8h247q16 0 16 17 v151h-307zM506 619q0 -16 -13 -16q-2 0 -10 2l-347 94q-12 3 -12 15v41q0 16 13 16q6 0 17 -3l338 -97q14 -5 14 -17v-35z" />
<glyph unicode="&#xe1;" horiz-adv-x="702" d="M646 440q2 -2 5 -9t3 -11v-390q0 -30 -29 -30h-464q-13 0 -25 9l-80 74q-9 7 -9 21v186q0 30 28 30h432v74q0 10 -7 17l-46 47q-5 5 -14 5h-378q-15 0 -15 16v54q0 16 15 16h463q12 0 21 -9zM200 257q-17 0 -17 -17v-92q0 -12 8 -20l35 -31q8 -8 18 -8h247q16 0 16 17 v151h-307zM565 714q0 -12 -12 -15l-347 -94q-6 -2 -10 -2q-13 0 -13 16v35q0 12 14 17l338 97q10 3 17 3q13 0 13 -16v-41z" />
<glyph unicode="&#xe2;" horiz-adv-x="702" d="M646 440q2 -2 5 -9t3 -11v-390q0 -30 -29 -30h-464q-13 0 -25 9l-80 74q-9 7 -9 21v186q0 30 28 30h432v74q0 10 -7 17l-46 47q-5 5 -14 5h-378q-15 0 -15 16v54q0 16 15 16h463q12 0 21 -9zM200 257q-17 0 -17 -17v-92q0 -12 8 -20l35 -31q8 -8 18 -8h247q16 0 16 17 v151h-307zM536 637q0 -16 -13 -16q-4 0 -9 2l-10 4l-159 76l-160 -76q-5 -2 -9.5 -4t-9.5 -2q-12 0 -12 16v45q0 11 9 16l170 86q6 3 12 3t12 -3l169 -86q10 -4 10 -16v-45z" />
<glyph unicode="&#xe3;" horiz-adv-x="702" d="M646 440q2 -2 5 -9t3 -11v-390q0 -30 -29 -30h-464q-13 0 -25 9l-80 74q-9 7 -9 21v186q0 30 28 30h432v74q0 10 -7 17l-46 47q-5 5 -14 5h-378q-15 0 -15 16v54q0 16 15 16h463q12 0 21 -9zM200 257q-17 0 -17 -17v-92q0 -12 8 -20l35 -31q8 -8 18 -8h247q16 0 16 17 v151h-307zM557 698q0 -15 -12 -19l-97 -40q-8 -4 -20 -4q-9 0 -12 1l-140 35q-4 1 -10 1q-1 0 -9 -2l-97 -38q-7 -4 -14 -4q-11 0 -11 11v44q0 14 12 19l97 40q8 4 20 4q9 0 12 -1l140 -35q4 -1 10 -1q1 0 9 2l97 38q7 4 14 4q11 0 11 -11v-44z" />
<glyph unicode="&#xe4;" horiz-adv-x="702" d="M646 440q2 -2 5 -9t3 -11v-390q0 -30 -29 -30h-464q-13 0 -25 9l-80 74q-9 7 -9 21v186q0 30 28 30h432v74q0 10 -7 17l-46 47q-5 5 -14 5h-378q-15 0 -15 16v54q0 16 15 16h463q12 0 21 -9zM200 257q-17 0 -17 -17v-92q0 -12 8 -20l35 -31q8 -8 18 -8h247q16 0 16 17 v151h-307zM260 645q0 -15 -16 -15h-77q-15 0 -15 15v102q0 15 15 15h77q16 0 16 -15v-102zM539 645q0 -15 -16 -15h-77q-15 0 -15 15v102q0 15 15 15h77q16 0 16 -15v-102z" />
<glyph unicode="&#xe5;" horiz-adv-x="702" d="M646 440q2 -2 5 -9t3 -11v-390q0 -30 -29 -30h-464q-13 0 -25 9l-80 74q-9 7 -9 21v186q0 30 28 30h432v74q0 10 -7 17l-46 47q-5 5 -14 5h-378q-15 0 -15 16v54q0 16 15 16h463q12 0 21 -9zM200 257q-17 0 -17 -17v-92q0 -12 8 -20l35 -31q8 -8 18 -8h247q16 0 16 17 v151h-307zM451 759q9 -11 9 -22v-59q0 -12 -9 -22l-49 -50q-9 -9 -21 -9h-72q-12 0 -21 9l-49 50q-9 10 -9 22v59q0 11 9 22l49 50q9 9 21 9h72q12 0 21 -9zM379 771q-4 4 -11 4h-46q-7 0 -11 -4l-32 -32q-5 -8 -5 -14v-35q0 -6 5 -14l32 -32q4 -4 11 -4h46q7 0 11 4l32 32 q5 8 5 14v35q0 6 -5 14z" />
<glyph unicode="&#xe6;" horiz-adv-x="1032" d="M983 275q0 -29 -29 -29h-362v-160h375q16 0 16 -16v-54q0 -16 -16 -16h-803q-18 0 -29 11l-79 72q-9 7 -9 21v179q0 29 28 29h370v151h-383q-15 0 -15 16v54q0 16 15 16h892q29 0 29 -29v-245zM200 246q-17 0 -17 -15v-87q0 -10 8 -18l36 -33q7 -7 17 -7h201v160h-245z M592 463v-151h239q15 0 15 15v122q0 14 -15 14h-239z" />
<glyph unicode="&#xe7;" horiz-adv-x="647" d="M609 472q0 -16 -16 -16h-347q-9 0 -15 -6l-35 -34q-6 -6 -6 -15v-237q0 -9 4 -13l49 -49q6 -7 18 -7h328q16 0 16 -16v-63q0 -16 -16 -16h-417q-13 0 -21 8l-99 101q-4 5 -6.5 9.5t-2.5 10.5v316q0 12 9 21l74 73q10 10 21 10h446q16 0 16 -16v-61zM375 -70v-9t-1 -10 l-9 -86q-2 -15 -15 -15h-24q-14 0 -15 15l-9 86q-1 5 -1 10v9v9q0 12 14 12h46q14 0 14 -12v-9z" />
<glyph unicode="&#xe8;" horiz-adv-x="701" d="M650 265q0 -29 -29 -29h-431v-78q0 -11 5 -16l52 -52q4 -4 14 -4h373q16 0 16 -16v-54q0 -16 -16 -16h-462q-13 0 -21 8l-100 102q-8 8 -8 19v316q0 12 9 21l73 72q11 11 23 11h473q29 0 29 -29v-255zM247 460q-9 0 -15 -6l-35 -34q-7 -7 -7 -17v-101h307q17 0 17 15v127 q0 16 -17 16h-250zM521 619q0 -16 -13 -16q-2 0 -10 2l-347 94q-12 3 -12 15v41q0 16 13 16q6 0 17 -3l338 -97q14 -5 14 -17v-35z" />
<glyph unicode="&#xe9;" horiz-adv-x="701" d="M650 265q0 -29 -29 -29h-431v-78q0 -11 5 -16l52 -52q4 -4 14 -4h373q16 0 16 -16v-54q0 -16 -16 -16h-462q-13 0 -21 8l-100 102q-8 8 -8 19v316q0 12 9 21l73 72q11 11 23 11h473q29 0 29 -29v-255zM247 460q-9 0 -15 -6l-35 -34q-7 -7 -7 -17v-101h307q17 0 17 15v127 q0 16 -17 16h-250zM579 714q0 -12 -12 -15l-347 -94q-6 -2 -10 -2q-13 0 -13 16v35q0 12 14 17l338 97q10 3 17 3q13 0 13 -16v-41z" />
<glyph unicode="&#xea;" horiz-adv-x="701" d="M650 265q0 -29 -29 -29h-431v-78q0 -11 5 -16l52 -52q4 -4 14 -4h373q16 0 16 -16v-54q0 -16 -16 -16h-462q-13 0 -21 8l-100 102q-8 8 -8 19v316q0 12 9 21l73 72q11 11 23 11h473q29 0 29 -29v-255zM247 460q-9 0 -15 -6l-35 -34q-7 -7 -7 -17v-101h307q17 0 17 15v127 q0 16 -17 16h-250zM551 637q0 -16 -13 -16q-4 0 -9 2l-10 4l-159 76l-160 -76q-5 -2 -9.5 -4t-9.5 -2q-12 0 -12 16v45q0 11 9 16l170 86q6 3 12 3t12 -3l169 -86q10 -4 10 -16v-45z" />
<glyph unicode="&#xeb;" horiz-adv-x="701" d="M650 265q0 -29 -29 -29h-431v-78q0 -11 5 -16l52 -52q4 -4 14 -4h373q16 0 16 -16v-54q0 -16 -16 -16h-462q-13 0 -21 8l-100 102q-8 8 -8 19v316q0 12 9 21l73 72q11 11 23 11h473q29 0 29 -29v-255zM247 460q-9 0 -15 -6l-35 -34q-7 -7 -7 -17v-101h307q17 0 17 15v127 q0 16 -17 16h-250zM274 645q0 -15 -16 -15h-77q-15 0 -15 15v102q0 15 15 15h77q16 0 16 -15v-102zM553 645q0 -15 -16 -15h-77q-15 0 -15 15v102q0 15 15 15h77q16 0 16 -15v-102z" />
<glyph unicode="&#xec;" horiz-adv-x="255" d="M290 619q0 -16 -13 -16q-2 0 -10 2l-347 94q-12 3 -12 15v41q0 16 13 16q6 0 17 -3l338 -97q14 -5 14 -17v-35zM201 16q0 -16 -16 -16h-115q-15 0 -15 16v517q0 16 15 16h115q16 0 16 -16v-517z" />
<glyph unicode="&#xed;" horiz-adv-x="255" d="M348 714q0 -12 -12 -15l-347 -94q-6 -2 -10 -2q-13 0 -13 16v35q0 12 14 17l338 97q10 3 17 3q13 0 13 -16v-41zM201 16q0 -16 -16 -16h-115q-15 0 -15 16v517q0 16 15 16h115q16 0 16 -16v-517z" />
<glyph unicode="&#xee;" horiz-adv-x="255" d="M201 16q0 -16 -16 -16h-115q-15 0 -15 16v517q0 16 15 16h115q16 0 16 -16v-517zM320 637q0 -16 -13 -16q-4 0 -9 2l-10 4l-159 76l-160 -76q-5 -2 -9.5 -4t-9.5 -2q-12 0 -12 16v45q0 11 9 16l170 86q6 3 12 3t12 -3l169 -86q10 -4 10 -16v-45z" />
<glyph unicode="&#xef;" horiz-adv-x="255" d="M43 645q0 -15 -16 -15h-77q-15 0 -15 15v102q0 15 15 15h77q16 0 16 -15v-102zM322 645q0 -15 -16 -15h-77q-15 0 -15 15v102q0 15 15 15h77q16 0 16 -15v-102zM201 16q0 -16 -16 -16h-115q-15 0 -15 16v517q0 16 15 16h115q16 0 16 -16v-517z" />
<glyph unicode="&#xf0;" horiz-adv-x="705" d="M657 30q0 -30 -30 -30h-463q-13 0 -21 8l-100 101q-8 11 -8 20v291q0 12 8 20l76 75q8 8 19 8h370v91q0 6 -7 10l-34 23q-7 4 -15 4h-235q-15 0 -15 16v38q0 12 12 15l126 17h198q14 0 24.5 -3t17.5 -7l61 -33q16 -9 16 -26v-638zM240 435q-8 0 -12.5 -2.5t-9.5 -7.5 l-31 -31q-6 -6 -6 -20v-219q0 -9 6 -15l50 -49q5 -5 13 -5h246q12 0 12 12v337h-268z" />
<glyph unicode="&#xf1;" horiz-adv-x="717" d="M662 466q9 -9 9 -23v-427q0 -16 -16 -16h-115q-16 0 -16 16v389q0 7 -5 12l-37 38q-5 5 -13 5h-148q-13 0 -26 -3l-83 -21q-14 -3 -14 -18v-402q0 -16 -15 -16h-118q-15 0 -15 16v450q0 25 21 31l158 46q19 6 37 6h300q13 0 21 -9zM570 698q0 -15 -12 -19l-97 -40 q-8 -4 -20 -4q-9 0 -12 1l-140 35q-4 1 -10 1q-1 0 -9 -2l-97 -38q-7 -4 -14 -4q-11 0 -11 11v44q0 14 12 19l97 40q8 4 20 4q9 0 12 -1l140 -35q4 -1 10 -1q1 0 9 2l97 38q7 4 14 4q11 0 11 -11v-44z" />
<glyph unicode="&#xf2;" horiz-adv-x="703" d="M652 466q9 -9 9 -21v-341q0 -12 -9 -21l-75 -74q-9 -9 -20 -9h-410q-11 0 -20 9l-75 74q-9 9 -9 21v341q0 12 9 21l75 74q9 9 20 9h410q11 0 20 -9zM240 460q-8 0 -12 -7l-32 -38q-6 -6 -6 -17v-240q0 -11 6 -17l32 -38q4 -7 12 -7h224q8 0 12 7l32 38q6 6 6 17v240 q0 11 -6 17l-32 38q-4 7 -12 7h-224zM512 619q0 -16 -13 -16q-2 0 -10 2l-347 94q-12 3 -12 15v41q0 16 13 16q6 0 17 -3l338 -97q14 -5 14 -17v-35z" />
<glyph unicode="&#xf3;" horiz-adv-x="703" d="M652 466q9 -9 9 -21v-341q0 -12 -9 -21l-75 -74q-9 -9 -20 -9h-410q-11 0 -20 9l-75 74q-9 9 -9 21v341q0 12 9 21l75 74q9 9 20 9h410q11 0 20 -9zM240 460q-8 0 -12 -7l-32 -38q-6 -6 -6 -17v-240q0 -11 6 -17l32 -38q4 -7 12 -7h224q8 0 12 7l32 38q6 6 6 17v240 q0 11 -6 17l-32 38q-4 7 -12 7h-224zM571 714q0 -12 -12 -15l-347 -94q-6 -2 -10 -2q-13 0 -13 16v35q0 12 14 17l338 97q10 3 17 3q13 0 13 -16v-41z" />
<glyph unicode="&#xf4;" horiz-adv-x="703" d="M652 466q9 -9 9 -21v-341q0 -12 -9 -21l-75 -74q-9 -9 -20 -9h-410q-11 0 -20 9l-75 74q-9 9 -9 21v341q0 12 9 21l75 74q9 9 20 9h410q11 0 20 -9zM240 460q-8 0 -12 -7l-32 -38q-6 -6 -6 -17v-240q0 -11 6 -17l32 -38q4 -7 12 -7h224q8 0 12 7l32 38q6 6 6 17v240 q0 11 -6 17l-32 38q-4 7 -12 7h-224zM543 637q0 -16 -13 -16q-4 0 -9 2l-10 4l-159 76l-160 -76q-5 -2 -9.5 -4t-9.5 -2q-12 0 -12 16v45q0 11 9 16l170 86q6 3 12 3t12 -3l169 -86q10 -4 10 -16v-45z" />
<glyph unicode="&#xf5;" horiz-adv-x="703" d="M652 466q9 -9 9 -21v-341q0 -12 -9 -21l-75 -74q-9 -9 -20 -9h-410q-11 0 -20 9l-75 74q-9 9 -9 21v341q0 12 9 21l75 74q9 9 20 9h410q11 0 20 -9zM240 460q-8 0 -12 -7l-32 -38q-6 -6 -6 -17v-240q0 -11 6 -17l32 -38q4 -7 12 -7h224q8 0 12 7l32 38q6 6 6 17v240 q0 11 -6 17l-32 38q-4 7 -12 7h-224zM563 698q0 -15 -12 -19l-97 -40q-8 -4 -20 -4q-9 0 -12 1l-140 35q-4 1 -10 1q-1 0 -9 -2l-97 -38q-7 -4 -14 -4q-11 0 -11 11v44q0 14 12 19l97 40q8 4 20 4q9 0 12 -1l140 -35q4 -1 10 -1q1 0 9 2l97 38q7 4 14 4q11 0 11 -11v-44z " />
<glyph unicode="&#xf6;" horiz-adv-x="703" d="M652 466q9 -9 9 -21v-341q0 -12 -9 -21l-75 -74q-9 -9 -20 -9h-410q-11 0 -20 9l-75 74q-9 9 -9 21v341q0 12 9 21l75 74q9 9 20 9h410q11 0 20 -9zM240 460q-8 0 -12 -7l-32 -38q-6 -6 -6 -17v-240q0 -11 6 -17l32 -38q4 -7 12 -7h224q8 0 12 7l32 38q6 6 6 17v240 q0 11 -6 17l-32 38q-4 7 -12 7h-224zM266 645q0 -15 -16 -15h-77q-15 0 -15 15v102q0 15 15 15h77q16 0 16 -15v-102zM545 645q0 -15 -16 -15h-77q-15 0 -15 15v102q0 15 15 15h77q16 0 16 -15v-102z" />
<glyph unicode="&#xf7;" horiz-adv-x="565" d="M515 341q0 -16 -15 -16h-435q-15 0 -15 16v55q0 15 15 15h435q15 0 15 -15v-55zM341 108q0 -15 -15 -15h-79q-16 0 -16 15v97q0 15 16 15h79q15 0 15 -15v-97zM341 531q0 -15 -15 -15h-79q-16 0 -16 15v96q0 16 16 16h79q15 0 15 -16v-96z" />
<glyph unicode="&#xf8;" horiz-adv-x="703" d="M569 547l83 -81q9 -9 9 -21v-341q0 -12 -9 -21l-75 -74q-9 -9 -20 -9h-362l-35 -51q-3 -5 -7.5 -6.5t-8.5 -1.5h-22q-18 0 -18 11q0 8 7 18l23 33l-82 80q-9 9 -9 21v341q0 12 9 21l75 74q9 9 20 9h361l47 68q1 4 5.5 6t8.5 2h21q17 0 17 -12q0 -8 -4 -15zM240 460 q-8 0 -12 -7l-32 -38q-6 -6 -6 -17v-240q0 -11 6 -17l18 -21l233 340h-207zM260 96h204q8 0 12 7l32 38q6 6 6 17v240q0 11 -6 17l-17 19z" />
<glyph unicode="&#xf9;" d="M656 110q0 -9 -8 -20l-82 -82q-8 -8 -20 -8h-390q-13 0 -21 8l-80 82q-8 11 -8 20v423q0 16 15 16h116q16 0 16 -16v-389q0 -9 7 -16l35 -36q7 -6 11 -6h213q4 0 12 8l35 35q5 5 7 10v394q0 16 16 16h110q16 0 16 -16v-423zM512 619q0 -16 -13 -16q-2 0 -10 2l-347 94 q-12 3 -12 15v41q0 16 13 16q6 0 17 -3l338 -97q14 -5 14 -17v-35z" />
<glyph unicode="&#xfa;" d="M656 110q0 -9 -8 -20l-82 -82q-8 -8 -20 -8h-390q-13 0 -21 8l-80 82q-8 11 -8 20v423q0 16 15 16h116q16 0 16 -16v-389q0 -9 7 -16l35 -36q7 -6 11 -6h213q4 0 12 8l35 35q5 5 7 10v394q0 16 16 16h110q16 0 16 -16v-423zM571 714q0 -12 -12 -15l-347 -94q-6 -2 -10 -2 q-13 0 -13 16v35q0 12 14 17l338 97q10 3 17 3q13 0 13 -16v-41z" />
<glyph unicode="&#xfb;" d="M656 110q0 -9 -8 -20l-82 -82q-8 -8 -20 -8h-390q-13 0 -21 8l-80 82q-8 11 -8 20v423q0 16 15 16h116q16 0 16 -16v-389q0 -9 7 -16l35 -36q7 -6 11 -6h213q4 0 12 8l35 35q5 5 7 10v394q0 16 16 16h110q16 0 16 -16v-423zM542 637q0 -16 -13 -16q-4 0 -9 2l-10 4 l-159 76l-160 -76q-5 -2 -9.5 -4t-9.5 -2q-12 0 -12 16v45q0 11 9 16l170 86q6 3 12 3t12 -3l169 -86q10 -4 10 -16v-45z" />
<glyph unicode="&#xfc;" d="M656 110q0 -9 -8 -20l-82 -82q-8 -8 -20 -8h-390q-13 0 -21 8l-80 82q-8 11 -8 20v423q0 16 15 16h116q16 0 16 -16v-389q0 -9 7 -16l35 -36q7 -6 11 -6h213q4 0 12 8l35 35q5 5 7 10v394q0 16 16 16h110q16 0 16 -16v-423zM266 645q0 -15 -16 -15h-77q-15 0 -15 15v102 q0 15 15 15h77q16 0 16 -15v-102zM545 645q0 -15 -16 -15h-77q-15 0 -15 15v102q0 15 15 15h77q16 0 16 -15v-102z" />
<glyph unicode="&#xfd;" horiz-adv-x="719" d="M669 -118q0 -17 -16 -26l-65 -37q-13 -7 -29 -7h-266q-37 0 -50 4l-109 16q-12 3 -12 12v38q0 6 3.5 11t12.5 5h322q10 0 21 6l33 18q7 4 7 12v92h-371q-11 0 -19 8l-76 75q-8 8 -8 20v406q0 16 15 16h116q16 0 16 -16v-361q0 -8 2 -12t5 -8l31 -32q5 -5 9 -6.5t14 -1.5 h266v421q0 16 16 16h116q16 0 16 -16v-653zM578 714q0 -12 -12 -15l-347 -94q-6 -2 -10 -2q-13 0 -13 16v35q0 12 14 17l338 97q10 3 17 3q13 0 13 -16v-41z" />
<glyph unicode="&#xfe;" horiz-adv-x="701" d="M666 104q0 -11 -9 -20l-75 -76q-8 -8 -20 -8h-364v-172q0 -16 -15 -16h-118q-15 0 -15 16v722q0 17 1 32.5t3 32.5l13 109q1 13 16 13h100q15 0 15 -16v-172h439q29 0 29 -29v-416zM198 460v-371h263q11 0 18 7l33 34q7 7 7 17v297q0 16 -14 16h-307z" />
<glyph unicode="&#xff;" horiz-adv-x="719" d="M669 -118q0 -17 -16 -26l-65 -37q-13 -7 -29 -7h-266q-37 0 -50 4l-109 16q-12 3 -12 12v38q0 6 3.5 11t12.5 5h322q10 0 21 6l33 18q7 4 7 12v92h-371q-11 0 -19 8l-76 75q-8 8 -8 20v406q0 16 15 16h116q16 0 16 -16v-361q0 -8 2 -12t5 -8l31 -32q5 -5 9 -6.5t14 -1.5 h266v421q0 16 16 16h116q16 0 16 -16v-653zM273 645q0 -15 -16 -15h-77q-15 0 -15 15v102q0 15 15 15h77q16 0 16 -15v-102zM552 645q0 -15 -16 -15h-77q-15 0 -15 15v102q0 15 15 15h77q16 0 16 -15v-102z" />
<glyph unicode="&#x100;" horiz-adv-x="914" d="M875 59q3 -8 5 -14.5t2 -14.5v-14q0 -16 -15 -16h-152q-10 0 -14 12l-48 131h-424l-47 -131q-5 -12 -15 -12h-123q-15 0 -15 16v14q0 8 2 14.5t5 14.5l220 612q3 9 12.5 14.5t16.5 5.5h341q21 0 29 -20zM400 586q-10 0 -11 -6l-124 -338h352l-124 339q-2 5 -9 5h-84z M665 817q0 -15 -15 -15h-376q-15 0 -15 15v43q0 15 15 15h376q15 0 15 -15v-43z" />
<glyph unicode="&#x101;" horiz-adv-x="702" d="M646 440q2 -2 5 -9t3 -11v-390q0 -30 -29 -30h-464q-13 0 -25 9l-80 74q-9 7 -9 21v186q0 30 28 30h432v74q0 10 -7 17l-46 47q-5 5 -14 5h-378q-15 0 -15 16v54q0 16 15 16h463q12 0 21 -9zM200 257q-17 0 -17 -17v-92q0 -12 8 -20l35 -31q8 -8 18 -8h247q16 0 16 17 v151h-307zM548 675q0 -15 -15 -15h-376q-15 0 -15 15v43q0 15 15 15h376q15 0 15 -15v-43z" />
<glyph unicode="&#x102;" horiz-adv-x="914" d="M875 59q3 -8 5 -14.5t2 -14.5v-14q0 -16 -15 -16h-152q-10 0 -14 12l-48 131h-424l-47 -131q-5 -12 -15 -12h-123q-15 0 -15 16v14q0 8 2 14.5t5 14.5l220 612q3 9 12.5 14.5t16.5 5.5h341q21 0 29 -20zM400 586q-10 0 -11 -6l-124 -338h352l-124 339q-2 5 -9 5h-84z M653 876q0 -10 -7 -16l-103 -82q-7 -7 -25 -7h-112q-18 0 -25 7l-103 82q-7 6 -7 16v43q0 17 12 17q6 0 13 -4l109 -80q4 -4 18 -4h78q14 0 18 4l109 80q7 4 13 4q12 0 12 -17v-43z" />
<glyph unicode="&#x103;" horiz-adv-x="702" d="M646 440q2 -2 5 -9t3 -11v-390q0 -30 -29 -30h-464q-13 0 -25 9l-80 74q-9 7 -9 21v186q0 30 28 30h432v74q0 10 -7 17l-46 47q-5 5 -14 5h-378q-15 0 -15 16v54q0 16 15 16h463q12 0 21 -9zM200 257q-17 0 -17 -17v-92q0 -12 8 -20l35 -31q8 -8 18 -8h247q16 0 16 17 v151h-307zM536 734q0 -10 -7 -16l-103 -82q-7 -7 -25 -7h-112q-18 0 -25 7l-103 82q-7 6 -7 16v43q0 17 12 17q6 0 13 -4l109 -80q4 -4 18 -4h78q14 0 18 4l109 80q7 4 13 4q12 0 12 -17v-43z" />
<glyph unicode="&#x104;" horiz-adv-x="914" d="M875 59q3 -8 5 -14.5t2 -14.5v-14q0 -8 -6 -14l-63 -61q-5 -5 -5 -13v-20q0 -7 5 -9l43 -19q8 -2 12 -2h132q16 0 16 -15v-19q0 -5 -3 -9.5t-9 -5.5l-103 -15q-5 -1 -10 -1.5t-10 -0.5h-14q-11 0 -26 5l-75 38q-18 9 -18 27v37q0 18 11 27l56 54h-100q-10 0 -14 12 l-48 131h-424l-47 -131q-5 -12 -15 -12h-123q-15 0 -15 16v14q0 8 2 14.5t5 14.5l220 612q3 9 12.5 14.5t16.5 5.5h341q21 0 29 -20zM400 586q-10 0 -11 -6l-124 -338h352l-124 339q-2 5 -9 5h-84z" />
<glyph unicode="&#x105;" horiz-adv-x="702" d="M646 440q2 -2 5 -9t3 -11v-390q0 -16 -6 -22l-70 -67q-5 -5 -5 -13v-20q0 -7 5 -9l43 -19q10 -2 12 -2h132q16 0 16 -15v-19q0 -5 -3 -9.5t-9 -5.5l-103 -15q-5 -1 -10 -1.5t-10 -0.5h-14q-9 0 -26 5l-75 38q-18 9 -18 27v37q0 18 11 27l56 54h-419q-13 0 -25 9l-80 74 q-9 7 -9 21v186q0 30 28 30h432v74q0 10 -7 17l-49 47q-8 5 -14 5h-375q-15 0 -15 16v54q0 16 15 16h463q12 0 21 -9zM200 257q-17 0 -17 -17v-92q0 -12 8 -20l35 -31q8 -8 18 -8h247q16 0 16 17v151h-307z" />
<glyph unicode="&#x106;" horiz-adv-x="792" d="M749 601q0 -15 -16 -15h-431q-9 0 -15 -6l-49 -47q-5 -5 -5 -14v-331q0 -10 5 -15l66 -62q7 -6 17 -6h412q16 0 16 -16v-73q0 -16 -16 -16h-522q-15 0 -26 11l-133 125q-9 9 -9 22v407q0 13 9 22l97 93q11 11 26 11h558q16 0 16 -16v-74zM640 856q0 -12 -12 -15l-347 -94 q-6 -2 -10 -2q-13 0 -13 16v35q0 12 14 17l338 97q10 3 17 3q13 0 13 -16v-41z" />
<glyph unicode="&#x107;" horiz-adv-x="647" d="M609 472q0 -16 -16 -16h-347q-9 0 -15 -6l-35 -34q-6 -6 -6 -15v-237q0 -9 4 -13l49 -49q6 -7 18 -7h328q16 0 16 -16v-63q0 -16 -16 -16h-417q-13 0 -21 8l-99 101q-4 5 -6.5 9.5t-2.5 10.5v316q0 12 9 21l74 73q10 10 21 10h446q16 0 16 -16v-61zM562 714 q0 -12 -12 -15l-347 -94q-6 -2 -10 -2q-13 0 -13 16v35q0 12 14 17l338 97q10 3 17 3q13 0 13 -16v-41z" />
<glyph unicode="&#x108;" horiz-adv-x="792" d="M749 601q0 -15 -16 -15h-431q-9 0 -15 -6l-49 -47q-5 -5 -5 -14v-331q0 -10 5 -15l66 -62q7 -6 17 -6h412q16 0 16 -16v-73q0 -16 -16 -16h-522q-15 0 -26 11l-133 125q-9 9 -9 22v407q0 13 9 22l97 93q11 11 26 11h558q16 0 16 -16v-74zM611 779q0 -16 -13 -16 q-4 0 -9 2l-10 4l-159 76l-160 -76q-5 -2 -9.5 -4t-9.5 -2q-12 0 -12 16v45q0 11 9 16l170 86q6 3 12 3t12 -3l169 -86q10 -4 10 -16v-45z" />
<glyph unicode="&#x109;" horiz-adv-x="647" d="M609 472q0 -16 -16 -16h-347q-9 0 -15 -6l-35 -34q-6 -6 -6 -15v-237q0 -9 4 -13l49 -49q6 -7 18 -7h328q16 0 16 -16v-63q0 -16 -16 -16h-417q-13 0 -21 8l-99 101q-4 5 -6.5 9.5t-2.5 10.5v316q0 12 9 21l74 73q10 10 21 10h446q16 0 16 -16v-61zM534 637 q0 -16 -13 -16q-4 0 -9 2l-10 4l-159 76l-160 -76q-5 -2 -9.5 -4t-9.5 -2q-12 0 -12 16v45q0 11 9 16l170 86q6 3 12 3t12 -3l169 -86q10 -4 10 -16v-45z" />
<glyph unicode="&#x10a;" horiz-adv-x="792" d="M749 601q0 -15 -16 -15h-431q-9 0 -15 -6l-49 -47q-5 -5 -5 -14v-331q0 -10 5 -15l66 -62q7 -6 17 -6h412q16 0 16 -16v-73q0 -16 -16 -16h-522q-15 0 -26 11l-133 125q-9 9 -9 22v407q0 13 9 22l97 93q11 11 26 11h558q16 0 16 -16v-74zM474 787q0 -15 -16 -15h-77 q-15 0 -15 15v102q0 15 15 15h77q16 0 16 -15v-102z" />
<glyph unicode="&#x10b;" horiz-adv-x="647" d="M609 472q0 -16 -16 -16h-347q-9 0 -15 -6l-35 -34q-6 -6 -6 -15v-237q0 -9 4 -13l49 -49q6 -7 18 -7h328q16 0 16 -16v-63q0 -16 -16 -16h-417q-13 0 -21 8l-99 101q-4 5 -6.5 9.5t-2.5 10.5v316q0 12 9 21l74 73q10 10 21 10h446q16 0 16 -16v-61zM397 645 q0 -15 -16 -15h-77q-15 0 -15 15v102q0 15 15 15h77q16 0 16 -15v-102z" />
<glyph unicode="&#x10c;" horiz-adv-x="792" d="M749 601q0 -15 -16 -15h-431q-9 0 -15 -6l-49 -47q-5 -5 -5 -14v-331q0 -10 5 -15l66 -62q7 -6 17 -6h412q16 0 16 -16v-73q0 -16 -16 -16h-522q-15 0 -26 11l-133 125q-9 9 -9 22v407q0 13 9 22l97 93q11 11 26 11h558q16 0 16 -16v-74zM612 874q0 -12 -9 -16l-170 -86 q-6 -3 -12 -3t-12 3l-169 86q-10 4 -10 16v45q0 16 13 16q4 0 9 -2l10 -4l159 -76l160 76q5 2 9.5 4t9.5 2q12 0 12 -16v-45z" />
<glyph unicode="&#x10d;" horiz-adv-x="647" d="M609 472q0 -16 -16 -16h-347q-9 0 -15 -6l-35 -34q-6 -6 -6 -15v-237q0 -9 4 -13l49 -49q6 -7 18 -7h328q16 0 16 -16v-63q0 -16 -16 -16h-417q-13 0 -21 8l-99 101q-4 5 -6.5 9.5t-2.5 10.5v316q0 12 9 21l74 73q10 10 21 10h446q16 0 16 -16v-61zM535 732q0 -12 -9 -16 l-170 -86q-6 -3 -12 -3t-12 3l-169 86q-10 4 -10 16v45q0 16 13 16q4 0 9 -2l10 -4l159 -76l160 76q5 2 9.5 4t9.5 2q12 0 12 -16v-45z" />
<glyph unicode="&#x10e;" horiz-adv-x="909" d="M857 559q9 -8 9 -21v-349q0 -9 -1.5 -13t-7.5 -10l-160 -152q-12 -14 -36 -14h-582q-29 0 -29 30v632q0 29 29 29h618q23 0 40 -14zM612 577q-9 9 -23 9h-335q-14 0 -14 -14v-450q0 -17 16 -17h313q14 0 22 8l77 73q8 8 8 19v299q0 10 -7 17zM616 874q0 -12 -9 -16 l-170 -86q-6 -3 -12 -3t-12 3l-169 86q-10 4 -10 16v45q0 16 13 16q4 0 9 -2l10 -4l159 -76l160 76q5 2 9.5 4t9.5 2q12 0 12 -16v-45z" />
<glyph unicode="&#x10f;" horiz-adv-x="765" d="M649 615q2 -17 3 -32.5t1 -32.5v-534q0 -16 -15 -16h-466q-13 0 -21 8l-99 101q-9 9 -9 20v316q0 12 9 21l75 74q10 9 19 9h359v172q0 16 15 16h100q15 0 16 -13zM237 460q-5 0 -10 -5l-38 -38q-5 -5 -5 -13v-250q0 -8 5 -13l49 -50q5 -5 13 -5h254v374h-268zM776 716v-9 t-1 -10l-9 -86q-2 -15 -15 -15h-24q-14 0 -15 15l-9 86q-1 5 -1 10v9v9q0 12 14 12h46q14 0 14 -12v-9z" />
<glyph unicode="&#x110;" horiz-adv-x="899" d="M838 559q9 -8 9 -21v-349q0 -9 -1.5 -13t-7.5 -10l-160 -152q-12 -14 -36 -14h-582q-29 0 -29 30v286h-16q-15 0 -15 16v32q0 16 15 16h16v282q0 29 29 29h618q23 0 40 -14zM593 577q-9 9 -23 9h-335q-14 0 -14 -14v-192h197q16 0 16 -16v-32q0 -6 -5 -11t-11 -5h-197 v-194q0 -17 16 -17h313q14 0 22 8l77 73q8 8 8 19v299q0 10 -7 17z" />
<glyph unicode="&#x111;" d="M649 615q2 -17 3 -32.5t1 -32.5v-534q0 -16 -15 -16h-466q-13 0 -21 8l-99 101q-9 9 -9 20v316q0 12 9 21l75 74q10 9 19 9h359v89h-285q-15 0 -15 15v13q0 16 15 16h285v39q0 16 15 16h100q15 0 16 -13zM237 460q-5 0 -10 -5l-38 -38q-5 -5 -5 -13v-250q0 -8 5 -13 l49 -50q5 -5 13 -5h254v374h-268z" />
<glyph unicode="&#x112;" horiz-adv-x="805" d="M768 601q0 -15 -16 -15h-450q-9 0 -16 -7l-46 -44q-7 -7 -7 -18v-113h512q16 0 16 -15v-71q0 -15 -16 -15h-512v-114q0 -10 7 -17l64 -60q7 -7 17 -7h432q16 0 16 -16v-73q0 -16 -16 -16h-539q-16 0 -30 11l-132 125q-9 9 -9 22v407q0 13 9 22l96 92q12 12 28 12h576 q16 0 16 -16v-74zM630 817q0 -15 -15 -15h-376q-15 0 -15 15v43q0 15 15 15h376q15 0 15 -15v-43z" />
<glyph unicode="&#x113;" horiz-adv-x="701" d="M650 265q0 -29 -29 -29h-431v-78q0 -11 5 -16l52 -52q4 -4 14 -4h373q16 0 16 -16v-54q0 -16 -16 -16h-462q-13 0 -21 8l-100 102q-8 8 -8 19v316q0 12 9 21l73 72q11 11 23 11h473q29 0 29 -29v-255zM247 460q-9 0 -15 -6l-35 -34q-7 -7 -7 -17v-101h307q17 0 17 15v127 q0 16 -17 16h-250zM563 675q0 -15 -15 -15h-376q-15 0 -15 15v43q0 15 15 15h376q15 0 15 -15v-43z" />
<glyph unicode="&#x114;" horiz-adv-x="805" d="M768 601q0 -15 -16 -15h-450q-9 0 -16 -7l-46 -44q-7 -7 -7 -18v-113h512q16 0 16 -15v-71q0 -15 -16 -15h-512v-114q0 -10 7 -17l64 -60q7 -7 17 -7h432q16 0 16 -16v-73q0 -16 -16 -16h-539q-16 0 -30 11l-132 125q-9 9 -9 22v407q0 13 9 22l96 92q12 12 28 12h576 q16 0 16 -16v-74zM618 876q0 -10 -7 -16l-103 -82q-7 -7 -25 -7h-112q-18 0 -25 7l-103 82q-7 6 -7 16v43q0 17 12 17q6 0 13 -4l109 -80q4 -4 18 -4h78q14 0 18 4l109 80q7 4 13 4q12 0 12 -17v-43z" />
<glyph unicode="&#x115;" horiz-adv-x="701" d="M650 265q0 -29 -29 -29h-431v-78q0 -11 5 -16l52 -52q4 -4 14 -4h373q16 0 16 -16v-54q0 -16 -16 -16h-462q-13 0 -21 8l-100 102q-8 8 -8 19v316q0 12 9 21l73 72q11 11 23 11h473q29 0 29 -29v-255zM247 460q-9 0 -15 -6l-35 -34q-7 -7 -7 -17v-101h307q17 0 17 15v127 q0 16 -17 16h-250zM551 734q0 -10 -7 -16l-103 -82q-7 -7 -25 -7h-112q-18 0 -25 7l-103 82q-7 6 -7 16v43q0 17 12 17q6 0 13 -4l109 -80q4 -4 18 -4h78q14 0 18 4l109 80q7 4 13 4q12 0 12 -17v-43z" />
<glyph unicode="&#x116;" horiz-adv-x="805" d="M768 601q0 -15 -16 -15h-450q-9 0 -16 -7l-46 -44q-7 -7 -7 -18v-113h512q16 0 16 -15v-71q0 -15 -16 -15h-512v-114q0 -10 7 -17l64 -60q7 -7 17 -7h432q16 0 16 -16v-73q0 -16 -16 -16h-539q-16 0 -30 11l-132 125q-9 9 -9 22v407q0 13 9 22l96 92q12 12 28 12h576 q16 0 16 -16v-74zM481 787q0 -15 -16 -15h-77q-15 0 -15 15v102q0 15 15 15h77q16 0 16 -15v-102z" />
<glyph unicode="&#x117;" horiz-adv-x="701" d="M650 265q0 -29 -29 -29h-431v-78q0 -11 5 -16l52 -52q4 -4 14 -4h373q16 0 16 -16v-54q0 -16 -16 -16h-462q-13 0 -21 8l-100 102q-8 8 -8 19v316q0 12 9 21l73 72q11 11 23 11h473q29 0 29 -29v-255zM247 460q-9 0 -15 -6l-35 -34q-7 -7 -7 -17v-101h307q17 0 17 15v127 q0 16 -17 16h-250zM414 645q0 -15 -16 -15h-77q-15 0 -15 15v102q0 15 15 15h77q16 0 16 -15v-102z" />
<glyph unicode="&#x118;" horiz-adv-x="805" d="M768 601q0 -15 -16 -15h-450q-9 0 -16 -7l-46 -44q-7 -7 -7 -18v-113h512q16 0 16 -15v-71q0 -15 -16 -15h-512v-114q0 -10 7 -17l64 -60q7 -7 17 -7h432q16 0 16 -16v-73q0 -8 -5 -13l-64 -62q-5 -5 -5 -13v-20q0 -7 5 -9l43 -19q8 -2 12 -2h132q16 0 16 -15v-19 q0 -5 -3 -9.5t-9 -5.5l-103 -15q-5 -1 -10 -1.5t-10 -0.5h-14q-11 0 -26 5l-75 38q-18 9 -18 27v37q0 18 11 27l56 54h-488q-16 0 -30 11l-132 125q-9 9 -9 22v407q0 13 9 22l96 92q12 12 28 12h576q16 0 16 -16v-74z" />
<glyph unicode="&#x119;" horiz-adv-x="701" d="M650 265q0 -29 -29 -29h-431v-78q0 -11 5 -16l52 -52q4 -4 14 -4h373q16 0 16 -16v-54q0 -8 -5 -13l-64 -62q-5 -5 -5 -13v-20q0 -7 5 -9l43 -19q8 -2 12 -2h132q16 0 16 -15v-19q0 -5 -3 -9.5t-9 -5.5l-103 -15q-5 -1 -10 -1.5t-10 -0.5h-14q-11 0 -26 5l-75 38 q-18 9 -18 27v37q0 18 11 27l56 54h-411q-13 0 -21 8l-100 102q-8 8 -8 19v316q0 12 9 21l73 72q11 11 23 11h473q29 0 29 -29v-255zM247 460q-9 0 -15 -6l-35 -34q-7 -7 -7 -17v-101h307q17 0 17 15v127q0 16 -17 16h-250z" />
<glyph unicode="&#x11a;" horiz-adv-x="805" d="M768 601q0 -15 -16 -15h-450q-9 0 -16 -7l-46 -44q-7 -7 -7 -18v-113h512q16 0 16 -15v-71q0 -15 -16 -15h-512v-114q0 -10 7 -17l64 -60q7 -7 17 -7h432q16 0 16 -16v-73q0 -16 -16 -16h-539q-16 0 -30 11l-132 125q-9 9 -9 22v407q0 13 9 22l96 92q12 12 28 12h576 q16 0 16 -16v-74zM619 874q0 -12 -9 -16l-170 -86q-6 -3 -12 -3t-12 3l-169 86q-10 4 -10 16v45q0 16 13 16q4 0 9 -2l10 -4l159 -76l160 76q5 2 9.5 4t9.5 2q12 0 12 -16v-45z" />
<glyph unicode="&#x11b;" horiz-adv-x="701" d="M650 265q0 -29 -29 -29h-431v-78q0 -11 5 -16l52 -52q4 -4 14 -4h373q16 0 16 -16v-54q0 -16 -16 -16h-462q-13 0 -21 8l-100 102q-8 8 -8 19v316q0 12 9 21l73 72q11 11 23 11h473q29 0 29 -29v-255zM247 460q-9 0 -15 -6l-35 -34q-7 -7 -7 -17v-101h307q17 0 17 15v127 q0 16 -17 16h-250zM552 732q0 -12 -9 -16l-170 -86q-6 -3 -12 -3t-12 3l-169 86q-10 4 -10 16v45q0 16 13 16q4 0 9 -2l10 -4l159 -76l160 76q5 2 9.5 4t9.5 2q12 0 12 -16v-45z" />
<glyph unicode="&#x11c;" horiz-adv-x="834" d="M763 601q0 -15 -15 -15h-434q-14 0 -23 -9l-53 -50q-5 -5 -5 -13v-325q0 -10 7 -17l65 -61q6 -6 15 -6h299q16 0 16 19v245q0 16 15 16h123q16 0 16 -16v-339q0 -30 -29 -30h-548q-15 0 -25 9l-135 127q-9 9 -9 22v407q0 13 9 22l97 93q11 11 26 11h573q15 0 15 -16v-74z M627 779q0 -16 -13 -16q-4 0 -9 2l-10 4l-159 76l-160 -76q-5 -2 -9.5 -4t-9.5 -2q-12 0 -12 16v45q0 11 9 16l170 86q6 3 12 3t12 -3l169 -86q10 -4 10 -16v-45z" />
<glyph unicode="&#x11d;" horiz-adv-x="707" d="M658 -118q0 -17 -16 -26l-65 -37q-13 -7 -29 -7h-267q-37 0 -50 4l-109 16q-12 3 -12 12v38q0 6 3.5 11t12.5 5h322q10 0 21 6l33 18q7 4 7 12v92h-359q-11 0 -19 8l-76 75q-8 8 -8 20v291q0 12 8 20l101 101q5 5 10 6.5t10 1.5h453q29 0 29 -29v-638zM255 463 q-7 0 -12 -5l-48 -48q-6 -6 -6 -19v-217q0 -8 2 -12t5 -8l31 -32q5 -5 9 -6.5t14 -1.5h259v336q0 13 -11 13h-243zM564 637q0 -16 -13 -16q-4 0 -9 2l-10 4l-159 76l-160 -76q-5 -2 -9.5 -4t-9.5 -2q-12 0 -12 16v45q0 11 9 16l170 86q6 3 12 3t12 -3l169 -86q10 -4 10 -16 v-45z" />
<glyph unicode="&#x11e;" horiz-adv-x="834" d="M763 601q0 -15 -15 -15h-434q-14 0 -23 -9l-53 -50q-5 -5 -5 -13v-325q0 -10 7 -17l65 -61q6 -6 15 -6h299q16 0 16 19v245q0 16 15 16h123q16 0 16 -16v-339q0 -30 -29 -30h-548q-15 0 -25 9l-135 127q-9 9 -9 22v407q0 13 9 22l97 93q11 11 26 11h573q15 0 15 -16v-74z M627 876q0 -10 -7 -16l-103 -82q-7 -7 -25 -7h-112q-18 0 -25 7l-103 82q-7 6 -7 16v43q0 17 12 17q6 0 13 -4l109 -80q4 -4 18 -4h78q14 0 18 4l109 80q7 4 13 4q12 0 12 -17v-43z" />
<glyph unicode="&#x11f;" horiz-adv-x="707" d="M658 -118q0 -17 -16 -26l-65 -37q-13 -7 -29 -7h-267q-37 0 -50 4l-109 16q-12 3 -12 12v38q0 6 3.5 11t12.5 5h322q10 0 21 6l33 18q7 4 7 12v92h-359q-11 0 -19 8l-76 75q-8 8 -8 20v291q0 12 8 20l101 101q5 5 10 6.5t10 1.5h453q29 0 29 -29v-638zM255 463 q-7 0 -12 -5l-48 -48q-6 -6 -6 -19v-217q0 -8 2 -12t5 -8l31 -32q5 -5 9 -6.5t14 -1.5h259v336q0 13 -11 13h-243zM564 734q0 -10 -7 -16l-103 -82q-7 -7 -25 -7h-112q-18 0 -25 7l-103 82q-7 6 -7 16v43q0 17 12 17q6 0 13 -4l109 -80q4 -4 18 -4h78q14 0 18 4l109 80 q7 4 13 4q12 0 12 -17v-43z" />
<glyph unicode="&#x120;" horiz-adv-x="834" d="M763 601q0 -15 -15 -15h-434q-14 0 -23 -9l-53 -50q-5 -5 -5 -13v-325q0 -10 7 -17l65 -61q6 -6 15 -6h299q16 0 16 19v245q0 16 15 16h123q16 0 16 -16v-339q0 -30 -29 -30h-548q-15 0 -25 9l-135 127q-9 9 -9 22v407q0 13 9 22l97 93q11 11 26 11h573q15 0 15 -16v-74z M490 787q0 -15 -16 -15h-77q-15 0 -15 15v102q0 15 15 15h77q16 0 16 -15v-102z" />
<glyph unicode="&#x121;" horiz-adv-x="707" d="M658 -118q0 -17 -16 -26l-65 -37q-13 -7 -29 -7h-267q-37 0 -50 4l-109 16q-12 3 -12 12v38q0 6 3.5 11t12.5 5h322q10 0 21 6l33 18q7 4 7 12v92h-359q-11 0 -19 8l-76 75q-8 8 -8 20v291q0 12 8 20l101 101q5 5 10 6.5t10 1.5h453q29 0 29 -29v-638zM255 463 q-7 0 -12 -5l-48 -48q-6 -6 -6 -19v-217q0 -8 2 -12t5 -8l31 -32q5 -5 9 -6.5t14 -1.5h259v336q0 13 -11 13h-243zM427 645q0 -15 -16 -15h-77q-15 0 -15 15v102q0 15 15 15h77q16 0 16 -15v-102z" />
<glyph unicode="&#x122;" horiz-adv-x="834" d="M763 601q0 -15 -15 -15h-434q-14 0 -23 -9l-53 -50q-5 -5 -5 -13v-325q0 -10 7 -17l65 -61q6 -6 15 -6h299q16 0 16 19v245q0 16 15 16h123q16 0 16 -16v-339q0 -30 -29 -30h-548q-15 0 -25 9l-135 127q-9 9 -9 22v407q0 13 9 22l97 93q11 11 26 11h573q15 0 15 -16v-74z M480 -70v-9t-1 -10l-9 -86q-2 -15 -15 -15h-24q-14 0 -15 15l-9 86q-1 5 -1 10v9v9q0 12 14 12h46q14 0 14 -12v-9z" />
<glyph unicode="&#x123;" horiz-adv-x="707" d="M658 -118q0 -17 -16 -26l-65 -37q-13 -7 -29 -7h-267q-37 0 -50 4l-109 16q-12 3 -12 12v38q0 6 3.5 11t12.5 5h322q10 0 21 6l33 18q7 4 7 12v92h-359q-11 0 -19 8l-76 75q-8 8 -8 20v291q0 12 8 20l101 101q5 5 10 6.5t10 1.5h453q29 0 29 -29v-638zM255 463 q-7 0 -12 -5l-48 -48q-6 -6 -6 -19v-217q0 -8 2 -12t5 -8l31 -32q5 -5 9 -6.5t14 -1.5h259v336q0 13 -11 13h-243zM405 716v-9t-1 -10l-9 -86q-2 -15 -15 -15h-24q-14 0 -15 15l-9 86q-1 5 -1 10v9v9q0 12 14 12h46q14 0 14 -12v-9z" />
<glyph unicode="&#x124;" horiz-adv-x="908" d="M859 16q0 -16 -16 -16h-155q-16 0 -16 16v289h-432v-289q0 -16 -16 -16h-159q-15 0 -15 16v659q0 16 15 16h159q16 0 16 -16v-270h432v270q0 16 16 16h155q16 0 16 -16v-659zM646 779q0 -16 -13 -16q-4 0 -9 2l-10 4l-159 76l-160 -76q-5 -2 -9.5 -4t-9.5 -2 q-12 0 -12 16v45q0 11 9 16l170 86q6 3 12 3t12 -3l169 -86q10 -4 10 -16v-45z" />
<glyph unicode="&#x125;" horiz-adv-x="717" d="M662 466q9 -8 9 -21v-429q0 -16 -16 -16h-115q-16 0 -16 16v390q0 6 -5 11l-37 38q-5 5 -13 5h-271v-444q0 -16 -15 -16h-118q-15 0 -15 16v534q0 17 1 32.5t3 32.5l13 109q1 13 16 13h100q15 0 15 -16v-172h363q14 0 26 -9zM325 779q0 -16 -13 -16q-4 0 -9 2l-10 4 l-159 76l-160 -76q-5 -2 -9.5 -4t-9.5 -2q-12 0 -12 16v45q0 11 9 16l170 86q6 3 12 3t12 -3l169 -86q10 -4 10 -16v-45z" />
<glyph unicode="&#x126;" horiz-adv-x="908" d="M859 16q0 -16 -16 -16h-155q-16 0 -16 16v276h-432v-276q0 -16 -16 -16h-159q-15 0 -15 16v659q0 16 15 16h159q16 0 16 -16v-97h432v97q0 16 16 16h155q16 0 16 -16v-659zM240 500v-124h432v124h-432z" />
<glyph unicode="&#x127;" horiz-adv-x="717" d="M532 653q0 -15 -16 -15h-318v-89h363q14 0 26 -9l75 -74q9 -8 9 -21v-429q0 -16 -16 -16h-115q-16 0 -16 16v390q0 6 -5 11l-37 38q-5 5 -13 5h-271v-444q0 -16 -15 -16h-118q-15 0 -15 16v534q0 17 1 32.5t3 32.5l13 109q1 13 16 13h100q15 0 15 -16v-39h318 q16 0 16 -16v-13z" />
<glyph unicode="&#x128;" horiz-adv-x="308" d="M249 16q0 -16 -16 -16h-159q-16 0 -16 16v659q0 16 16 16h159q16 0 16 -16v-659zM367 840q0 -15 -12 -19l-97 -40q-8 -4 -20 -4q-9 0 -12 1l-140 35q-4 1 -10 1q-1 0 -9 -2l-97 -38q-7 -4 -14 -4q-11 0 -11 11v44q0 14 12 19l97 40q8 4 20 4q9 0 12 -1l140 -35 q4 -1 10 -1q1 0 9 2l97 38q7 4 14 4q11 0 11 -11v-44z" />
<glyph unicode="&#x129;" horiz-adv-x="255" d="M341 698q0 -15 -12 -19l-97 -40q-8 -4 -20 -4q-9 0 -12 1l-140 35q-4 1 -10 1q-1 0 -9 -2l-97 -38q-7 -4 -14 -4q-11 0 -11 11v44q0 14 12 19l97 40q8 4 20 4q9 0 12 -1l140 -35q4 -1 10 -1q1 0 9 2l97 38q7 4 14 4q11 0 11 -11v-44zM201 16q0 -16 -16 -16h-115 q-15 0 -15 16v517q0 16 15 16h115q16 0 16 -16v-517z" />
<glyph unicode="&#x12a;" horiz-adv-x="308" d="M249 16q0 -16 -16 -16h-159q-16 0 -16 16v659q0 16 16 16h159q16 0 16 -16v-659zM358 817q0 -15 -15 -15h-376q-15 0 -15 15v43q0 15 15 15h376q15 0 15 -15v-43z" />
<glyph unicode="&#x12b;" horiz-adv-x="255" d="M332 675q0 -15 -15 -15h-376q-15 0 -15 15v43q0 15 15 15h376q15 0 15 -15v-43zM201 16q0 -16 -16 -16h-115q-15 0 -15 16v517q0 16 15 16h115q16 0 16 -16v-517z" />
<glyph unicode="&#x12c;" horiz-adv-x="308" d="M249 16q0 -16 -16 -16h-159q-16 0 -16 16v659q0 16 16 16h159q16 0 16 -16v-659zM346 876q0 -10 -7 -16l-103 -82q-7 -7 -25 -7h-112q-18 0 -25 7l-103 82q-7 6 -7 16v43q0 17 12 17q6 0 13 -4l109 -80q4 -4 18 -4h78q14 0 18 4l109 80q7 4 13 4q12 0 12 -17v-43z" />
<glyph unicode="&#x12d;" horiz-adv-x="255" d="M320 734q0 -10 -7 -16l-103 -82q-7 -7 -25 -7h-112q-18 0 -25 7l-103 82q-7 6 -7 16v43q0 17 12 17q6 0 13 -4l109 -80q4 -4 18 -4h78q14 0 18 4l109 80q7 4 13 4q12 0 12 -17v-43zM201 16q0 -16 -16 -16h-115q-15 0 -15 16v517q0 16 15 16h115q16 0 16 -16v-517z" />
<glyph unicode="&#x12e;" horiz-adv-x="308" d="M249 16q0 -8 -4 -12l-65 -63q-5 -5 -5 -13v-20q0 -7 5 -9l43 -19q8 -2 12 -2h132q16 0 16 -15v-19q0 -5 -3 -9.5t-9 -5.5l-103 -15q-5 -1 -10 -1.5t-10 -0.5h-14q-11 0 -26 5l-75 38q-18 9 -18 27v37q0 18 11 27l56 54h-108q-16 0 -16 16v659q0 16 16 16h159q16 0 16 -16 v-659z" />
<glyph unicode="&#x12f;" horiz-adv-x="255" d="M201 16q0 -8 -5 -13l-64 -62q-5 -5 -5 -13v-20q0 -7 5 -9l43 -19q8 -2 12 -2h132q16 0 16 -15v-19q0 -5 -3 -9.5t-9 -5.5l-103 -15q-5 -1 -10 -1.5t-10 -0.5h-14q-11 0 -26 5l-75 38q-18 9 -18 27v37q0 18 11 27l56 54h-64q-15 0 -15 16v517q0 16 15 16h115q16 0 16 -16 v-517zM201 619q0 -15 -16 -15h-115q-15 0 -15 15v102q0 16 15 16h115q16 0 16 -16v-102z" />
<glyph unicode="&#x130;" horiz-adv-x="308" d="M249 16q0 -16 -16 -16h-159q-16 0 -16 16v659q0 16 16 16h159q16 0 16 -16v-659zM208 787q0 -15 -16 -15h-77q-15 0 -15 15v102q0 15 15 15h77q16 0 16 -15v-102z" />
<glyph unicode="&#x131;" horiz-adv-x="255" d="M201 16q0 -16 -16 -16h-115q-15 0 -15 16v517q0 16 15 16h115q16 0 16 -16v-517z" />
<glyph unicode="&#x132;" horiz-adv-x="933" d="M249 16q0 -16 -16 -16h-159q-16 0 -16 16v659q0 16 16 16h159q16 0 16 -16v-659zM880 158q0 -13 -9 -22l-133 -125q-11 -11 -28 -11h-377q-15 0 -15 16v78q0 16 15 16h267q12 0 20 8l62 58q7 7 7 16v483q0 16 16 16h159q16 0 16 -16v-517z" />
<glyph unicode="&#x133;" horiz-adv-x="570" d="M201 16q0 -16 -16 -16h-115q-15 0 -15 16v517q0 16 15 16h115q16 0 16 -16v-517zM201 619q0 -15 -16 -15h-115q-15 0 -15 15v102q0 16 15 16h115q16 0 16 -16v-102zM518 -118q0 -17 -16 -26l-60 -34q-18 -11 -46 -10h-69q-21 0 -42 3l-88 14q-12 3 -12 15v38q0 16 15 16 h116q8 0 12 1t11 5l22 13q11 8 11 21v595q0 16 15 16h115q16 0 16 -16v-651zM518 619q0 -15 -16 -15h-115q-15 0 -15 15v102q0 16 15 16h115q16 0 16 -16v-102z" />
<glyph unicode="&#x134;" horiz-adv-x="630" d="M581 158q0 -13 -9 -22l-133 -125q-11 -11 -28 -11h-377q-15 0 -15 16v78q0 16 15 16h267q12 0 20 8l62 58q7 7 7 16v483q0 16 16 16h159q16 0 16 -16v-517zM676 779q0 -16 -13 -16q-4 0 -9 2l-10 4l-159 76l-160 -76q-5 -2 -9.5 -4t-9.5 -2q-12 0 -12 16v45q0 11 9 16 l170 86q6 3 12 3t12 -3l169 -86q10 -4 10 -16v-45z" />
<glyph unicode="&#x135;" horiz-adv-x="314" d="M263 -118q0 -17 -16 -26l-60 -34q-18 -11 -46 -10h-69q-21 0 -42 3l-88 14q-12 3 -12 15v38q0 16 15 16h116q8 0 12 1t11 5l22 13q11 8 11 21v595q0 16 15 16h115q16 0 16 -16v-651zM382 637q0 -16 -13 -16q-4 0 -9 2l-10 4l-159 76l-160 -76q-5 -2 -9.5 -4t-9.5 -2 q-12 0 -12 16v45q0 11 9 16l170 86q6 3 12 3t12 -3l169 -86q10 -4 10 -16v-45z" />
<glyph unicode="&#x136;" horiz-adv-x="917" d="M860 652q0 -8 -4 -13l-184 -241l209 -344q4 -7 4 -18v-19q0 -17 -16 -17h-155q-9 0 -16 10l-192 320h-266v-314q0 -16 -16 -16h-159q-15 0 -15 16v659q0 16 15 16h159q16 0 16 -16v-255h265l190 262q7 9 15 9h134q16 0 16 -15v-24zM464 -70v-9t-1 -10l-9 -86 q-2 -15 -15 -15h-24q-14 0 -15 15l-9 86q-1 5 -1 10v9v9q0 12 14 12h46q14 0 14 -12v-9z" />
<glyph unicode="&#x137;" horiz-adv-x="714" d="M671 517q0 -11 -7 -21l-119 -182l143 -268q3 -6 3 -14v-15q0 -8 -3 -12.5t-14 -4.5h-110q-16 0 -24 14l-130 238h-212v-236q0 -16 -15 -16h-118q-15 0 -15 16v534q0 17 1 32.5t3 32.5l13 109q1 13 16 13h100q15 0 15 -16v-380h211l109 194q5 8 9 11t14 3h112q18 0 18 -15 v-17zM390 -70v-9t-1 -10l-9 -86q-2 -15 -15 -15h-24q-14 0 -15 15l-9 86q-1 5 -1 10v9v9q0 12 14 12h46q14 0 14 -12v-9z" />
<glyph unicode="&#x138;" horiz-adv-x="714" d="M671 517q0 -11 -7 -21l-119 -182l143 -268q3 -6 3 -14v-15q0 -8 -3 -12.5t-14 -4.5h-110q-16 0 -24 14l-130 238h-212v-236q0 -16 -15 -16h-118q-15 0 -15 16v517q0 16 17 16h116q15 0 15 -16v-192h211l109 194q5 8 9 11t14 3h112q18 0 18 -15v-17z" />
<glyph unicode="&#x139;" horiz-adv-x="700" d="M240 192q0 -9 7 -16l62 -58q8 -8 20 -8h342q15 0 15 -16v-78q0 -16 -15 -16h-452q-17 0 -28 11l-133 125q-9 9 -9 22v517q0 16 16 16h159q16 0 16 -16v-483zM368 856q0 -12 -12 -15l-347 -94q-6 -2 -10 -2q-13 0 -13 16v35q0 12 14 17l338 97q10 3 17 3q13 0 13 -16v-41z " />
<glyph unicode="&#x13a;" horiz-adv-x="248" d="M198 16q0 -16 -15 -16h-118q-15 0 -15 16v534q0 17 1 32.5t3 32.5l13 109q1 13 16 13h100q15 0 15 -16v-705zM353 856q0 -12 -12 -15l-347 -94q-6 -2 -10 -2q-13 0 -13 16v35q0 12 14 17l338 97q10 3 17 3q13 0 13 -16v-41z" />
<glyph unicode="&#x13b;" horiz-adv-x="700" d="M240 192q0 -9 7 -16l62 -58q8 -8 20 -8h342q15 0 15 -16v-78q0 -16 -15 -16h-452q-17 0 -28 11l-133 125q-9 9 -9 22v517q0 16 16 16h159q16 0 16 -16v-483zM411 -70v-9t-1 -10l-9 -86q-2 -15 -15 -15h-24q-14 0 -15 15l-9 86q-1 5 -1 10v9v9q0 12 14 12h46q14 0 14 -12 v-9z" />
<glyph unicode="&#x13c;" horiz-adv-x="248" d="M198 16q0 -16 -15 -16h-118q-15 0 -15 16v534q0 17 1 32.5t3 32.5l13 109q1 13 16 13h100q15 0 15 -16v-705zM160 -70v-9t-1 -10l-9 -86q-2 -15 -15 -15h-24q-14 0 -15 15l-9 86q-1 5 -1 10v9v9q0 12 14 12h46q14 0 14 -12v-9z" />
<glyph unicode="&#x13d;" horiz-adv-x="700" d="M240 192q0 -9 7 -16l62 -58q8 -8 20 -8h342q15 0 15 -16v-78q0 -16 -15 -16h-452q-17 0 -28 11l-133 125q-9 9 -9 22v517q0 16 16 16h159q16 0 16 -16v-483zM411 -70v-9t-1 -10l-9 -86q-2 -15 -15 -15h-24q-14 0 -15 15l-9 86q-1 5 -1 10v9v9q0 12 14 12h46q14 0 14 -12 v-9z" />
<glyph unicode="&#x13e;" horiz-adv-x="317" d="M198 16q0 -16 -15 -16h-118q-15 0 -15 16v534q0 17 1 32.5t3 32.5l13 109q1 13 16 13h100q15 0 15 -16v-705zM327 716v-9t-1 -10l-9 -86q-2 -15 -15 -15h-24q-14 0 -15 15l-9 86q-1 5 -1 10v9v9q0 12 14 12h46q14 0 14 -12v-9z" />
<glyph unicode="&#x13f;" horiz-adv-x="700" d="M240 192q0 -9 7 -16l62 -58q8 -8 20 -8h342q15 0 15 -16v-78q0 -16 -15 -16h-452q-17 0 -28 11l-133 125q-9 9 -9 22v517q0 16 16 16h159q16 0 16 -16v-483zM470 344q0 -15 -16 -15h-77q-15 0 -15 15v102q0 15 15 15h77q16 0 16 -15v-102z" />
<glyph unicode="&#x140;" horiz-adv-x="359" d="M198 16q0 -16 -15 -16h-118q-15 0 -15 16v534q0 17 1 32.5t3 32.5l13 109q1 13 16 13h100q15 0 15 -16v-705zM361 324q0 -15 -16 -15h-77q-15 0 -15 15v102q0 15 15 15h77q16 0 16 -15v-102z" />
<glyph unicode="&#x141;" horiz-adv-x="700" d="M567 443q0 -13 -15 -16l-312 -50v-185q0 -9 7 -16l62 -58q8 -8 20 -8h342q15 0 15 -16v-78q0 -16 -15 -16h-452q-17 0 -28 11l-133 125q-9 9 -9 22v517q0 16 16 16h159q16 0 16 -16v-253l310 51q17 0 17 -17v-13z" />
<glyph unicode="&#x142;" horiz-adv-x="266" d="M206 460l47 8q13 0 13 -17v-13q0 -13 -15 -16l-45 -7v-399q0 -16 -15 -16h-118q-15 0 -15 16v377l-42 -5q-15 0 -15 16v12q0 13 15 16l42 7v111q0 17 1 32.5t3 32.5l13 109q1 13 16 13h100q15 0 15 -16v-261z" />
<glyph unicode="&#x143;" horiz-adv-x="890" d="M840 27q0 -27 -25 -27h-99q-28 0 -49 21l-476 447v-452q0 -16 -15 -16h-111q-15 0 -15 16v648q0 27 25 27h99q28 0 49 -21l472 -449v454q0 16 16 16h114q15 0 15 -16v-648zM664 856q0 -12 -12 -15l-347 -94q-6 -2 -10 -2q-13 0 -13 16v35q0 12 14 17l338 97q10 3 17 3 q13 0 13 -16v-41z" />
<glyph unicode="&#x144;" horiz-adv-x="717" d="M662 466q9 -9 9 -23v-427q0 -16 -16 -16h-115q-16 0 -16 16v389q0 7 -5 12l-37 38q-5 5 -13 5h-148q-13 0 -26 -3l-83 -21q-14 -3 -14 -18v-402q0 -16 -15 -16h-118q-15 0 -15 16v450q0 25 21 31l158 46q19 6 37 6h300q13 0 21 -9zM578 714q0 -12 -12 -15l-347 -94 q-6 -2 -10 -2q-13 0 -13 16v35q0 12 14 17l338 97q10 3 17 3q13 0 13 -16v-41z" />
<glyph unicode="&#x145;" horiz-adv-x="890" d="M840 27q0 -27 -25 -27h-99q-28 0 -49 21l-476 447v-452q0 -16 -15 -16h-111q-15 0 -15 16v648q0 27 25 27h99q28 0 49 -21l472 -449v454q0 16 16 16h114q15 0 15 -16v-648zM482 -70v-9t-1 -10l-9 -86q-2 -15 -15 -15h-24q-14 0 -15 15l-9 86q-1 5 -1 10v9v9q0 12 14 12 h46q14 0 14 -12v-9z" />
<glyph unicode="&#x146;" horiz-adv-x="717" d="M662 466q9 -9 9 -23v-427q0 -16 -16 -16h-115q-16 0 -16 16v389q0 7 -5 12l-37 38q-5 5 -13 5h-148q-13 0 -26 -3l-83 -21q-14 -3 -14 -18v-402q0 -16 -15 -16h-118q-15 0 -15 16v450q0 25 21 31l158 46q19 6 37 6h300q13 0 21 -9zM410 -70v-9t-1 -10l-9 -86 q-2 -15 -15 -15h-24q-14 0 -15 15l-9 86q-1 5 -1 10v9v9q0 12 14 12h46q14 0 14 -12v-9z" />
<glyph unicode="&#x147;" horiz-adv-x="890" d="M840 27q0 -27 -25 -27h-99q-28 0 -49 21l-476 447v-452q0 -16 -15 -16h-111q-15 0 -15 16v648q0 27 25 27h99q28 0 49 -21l472 -449v454q0 16 16 16h114q15 0 15 -16v-648zM636 874q0 -12 -9 -16l-170 -86q-6 -3 -12 -3t-12 3l-169 86q-10 4 -10 16v45q0 16 13 16 q4 0 9 -2l10 -4l159 -76l160 76q5 2 9.5 4t9.5 2q12 0 12 -16v-45z" />
<glyph unicode="&#x148;" horiz-adv-x="717" d="M662 466q9 -9 9 -23v-427q0 -16 -16 -16h-115q-16 0 -16 16v389q0 7 -5 12l-37 38q-5 5 -13 5h-148q-13 0 -26 -3l-83 -21q-14 -3 -14 -18v-402q0 -16 -15 -16h-118q-15 0 -15 16v450q0 25 21 31l158 46q19 6 37 6h300q13 0 21 -9zM550 732q0 -12 -9 -16l-170 -86 q-6 -3 -12 -3t-12 3l-169 86q-10 4 -10 16v45q0 16 13 16q4 0 9 -2l10 -4l159 -76l160 76q5 2 9.5 4t9.5 2q12 0 12 -16v-45z" />
<glyph unicode="&#x149;" horiz-adv-x="717" d="M662 466q9 -9 9 -23v-427q0 -16 -16 -16h-115q-16 0 -16 16v389q0 7 -5 12l-37 38q-5 5 -13 5h-148q-13 0 -26 -3l-83 -21q-14 -3 -14 -18v-402q0 -16 -15 -16h-118q-15 0 -15 16v450q0 25 21 31l158 46q19 6 37 6h300q13 0 21 -9zM125 716v-9t-1 -10l-9 -86 q-2 -15 -15 -15h-24q-14 0 -15 15l-9 86q-1 5 -1 10v9v9q0 12 14 12h46q14 0 14 -12v-9z" />
<glyph unicode="&#x14a;" horiz-adv-x="890" d="M840 -118q0 -17 -16 -26l-60 -34q-18 -11 -46 -10h-68q-21 0 -42 3l-88 14q-12 3 -12 15v38q0 16 15 16h116q8 0 12 1t11 5l22 13q11 8 11 21v56l-504 474v-452q0 -16 -15 -16h-111q-15 0 -15 16v648q0 27 25 27h99q28 0 49 -21l472 -449v454q0 16 16 16h114q15 0 15 -16 v-793z" />
<glyph unicode="&#x14b;" horiz-adv-x="717" d="M662 466q9 -9 9 -23v-561q0 -17 -16 -26l-60 -34q-18 -11 -46 -10h-70q-21 0 -42 3l-88 14q-12 3 -12 15v38q0 16 15 16h116q8 0 12 1t11 5l22 13q11 8 11 21v467q0 7 -5 12l-37 38q-5 5 -13 5h-148q-13 0 -26 -3l-83 -21q-14 -3 -14 -18v-402q0 -16 -15 -16h-118 q-15 0 -15 16v450q0 25 21 31l158 46q19 6 37 6h300q13 0 21 -9z" />
<glyph unicode="&#x14c;" horiz-adv-x="896" d="M841 589q11 -11 11 -27v-433q0 -16 -11 -27l-97 -93q-9 -9 -24 -9h-545q-15 0 -24 9l-97 93q-11 11 -11 27v433q0 16 11 27l97 93q9 9 24 9h545q15 0 24 -9zM612 578q-8 8 -19 8h-291q-11 0 -19 -8l-45 -44q-7 -7 -7 -18v-341q0 -11 7 -18l45 -44q8 -8 19 -8h291 q11 0 19 8l45 44q7 7 7 18v341q0 11 -7 18zM651 817q0 -15 -15 -15h-376q-15 0 -15 15v43q0 15 15 15h376q15 0 15 -15v-43z" />
<glyph unicode="&#x14d;" horiz-adv-x="703" d="M652 466q9 -9 9 -21v-341q0 -12 -9 -21l-75 -74q-9 -9 -20 -9h-410q-11 0 -20 9l-75 74q-9 9 -9 21v341q0 12 9 21l75 74q9 9 20 9h410q11 0 20 -9zM240 460q-8 0 -12 -7l-32 -38q-6 -6 -6 -17v-240q0 -11 6 -17l32 -38q4 -7 12 -7h224q8 0 12 7l32 38q6 6 6 17v240 q0 11 -6 17l-32 38q-4 7 -12 7h-224zM554 675q0 -15 -15 -15h-376q-15 0 -15 15v43q0 15 15 15h376q15 0 15 -15v-43z" />
<glyph unicode="&#x14e;" horiz-adv-x="896" d="M841 589q11 -11 11 -27v-433q0 -16 -11 -27l-97 -93q-9 -9 -24 -9h-545q-15 0 -24 9l-97 93q-11 11 -11 27v433q0 16 11 27l97 93q9 9 24 9h545q15 0 24 -9zM612 578q-8 8 -19 8h-291q-11 0 -19 -8l-45 -44q-7 -7 -7 -18v-341q0 -11 7 -18l45 -44q8 -8 19 -8h291 q11 0 19 8l45 44q7 7 7 18v341q0 11 -7 18zM638 876q0 -10 -7 -16l-103 -82q-7 -7 -25 -7h-112q-18 0 -25 7l-103 82q-7 6 -7 16v43q0 17 12 17q6 0 13 -4l109 -80q4 -4 18 -4h78q14 0 18 4l109 80q7 4 13 4q12 0 12 -17v-43z" />
<glyph unicode="&#x14f;" horiz-adv-x="703" d="M652 466q9 -9 9 -21v-341q0 -12 -9 -21l-75 -74q-9 -9 -20 -9h-410q-11 0 -20 9l-75 74q-9 9 -9 21v341q0 12 9 21l75 74q9 9 20 9h410q11 0 20 -9zM240 460q-8 0 -12 -7l-32 -38q-6 -6 -6 -17v-240q0 -11 6 -17l32 -38q4 -7 12 -7h224q8 0 12 7l32 38q6 6 6 17v240 q0 11 -6 17l-32 38q-4 7 -12 7h-224zM542 734q0 -10 -7 -16l-103 -82q-7 -7 -25 -7h-112q-18 0 -25 7l-103 82q-7 6 -7 16v43q0 17 12 17q6 0 13 -4l109 -80q4 -4 18 -4h78q14 0 18 4l109 80q7 4 13 4q12 0 12 -17v-43z" />
<glyph unicode="&#x150;" horiz-adv-x="896" d="M841 589q11 -11 11 -27v-433q0 -16 -11 -27l-97 -93q-9 -9 -24 -9h-545q-15 0 -24 9l-97 93q-11 11 -11 27v433q0 16 11 27l97 93q9 9 24 9h545q15 0 24 -9zM612 578q-8 8 -19 8h-291q-11 0 -19 -8l-45 -44q-7 -7 -7 -18v-341q0 -11 7 -18l45 -44q8 -8 19 -8h291 q11 0 19 8l45 44q7 7 7 18v341q0 11 -7 18zM578 757q-5 -12 -15 -12h-26q-11 0 -14.5 3.5t-3.5 8.5q0 2 2 10l45 143q4 12 9 17.5t16 5.5h25q19 0 19 -13q0 -10 -5 -18zM389 757q-5 -12 -15 -12h-26q-11 0 -14.5 3.5t-3.5 8.5q0 2 2 10l45 143q4 12 9 17.5t16 5.5h25 q19 0 19 -13q0 -10 -5 -18z" />
<glyph unicode="&#x151;" horiz-adv-x="703" d="M652 466q9 -9 9 -21v-341q0 -12 -9 -21l-75 -74q-9 -9 -20 -9h-410q-11 0 -20 9l-75 74q-9 9 -9 21v341q0 12 9 21l75 74q9 9 20 9h410q11 0 20 -9zM240 460q-8 0 -12 -7l-32 -38q-6 -6 -6 -17v-240q0 -11 6 -17l32 -38q4 -7 12 -7h224q8 0 12 7l32 38q6 6 6 17v240 q0 11 -6 17l-32 38q-4 7 -12 7h-224zM482 615q-5 -12 -15 -12h-26q-11 0 -14.5 3.5t-3.5 8.5q0 2 2 10l45 143q4 12 9 17.5t16 5.5h25q19 0 19 -13q0 -10 -5 -18zM293 615q-5 -12 -15 -12h-26q-11 0 -14.5 3.5t-3.5 8.5q0 2 2 10l45 143q4 12 9 17.5t16 5.5h25q19 0 19 -13 q0 -10 -5 -18z" />
<glyph unicode="&#x152;" horiz-adv-x="1171" d="M1133 601q0 -15 -16 -15h-386v-182h379q16 0 16 -15v-71q0 -15 -16 -15h-379v-198h387q16 0 16 -16v-73q0 -16 -16 -16h-943q-15 0 -24 9l-97 93q-11 11 -11 27v433q0 16 11 27l97 93q9 9 24 9h942q16 0 16 -16v-74zM302 586q-11 0 -19 -8l-45 -44q-7 -7 -7 -18v-341 q0 -11 7 -18l45 -44q8 -8 19 -8h265v481h-265z" />
<glyph unicode="&#x153;" horiz-adv-x="1049" d="M1000 265q0 -29 -30 -29h-361v-140h375q16 0 16 -16v-64q0 -16 -16 -16h-830q-11 0 -20 9l-75 74q-9 9 -9 21v341q0 12 9 21l75 74q9 9 20 9h816q30 0 30 -29v-255zM247 460q-8 0 -12 -7l-32 -38q-6 -6 -6 -17v-240q0 -11 6 -17l32 -38q4 -7 12 -7h215v364h-215zM609 460 v-158h235q19 0 19 17v127q0 14 -14 14h-240z" />
<glyph unicode="&#x154;" horiz-adv-x="905" d="M850 587q8 -8 8 -22v-160q0 -20 -13 -33l-84 -79l111 -235q4 -8 5.5 -14t1.5 -15v-11q0 -8 -2.5 -13t-13.5 -5h-151q-11 0 -16 11l-101 238h-357v-233q0 -16 -16 -16h-157q-15 0 -15 16v646q0 29 28 29h645q18 0 30 -12zM617 580q-6 6 -16 6h-346q-17 0 -17 -19v-217h365 l60 56q7 7 7 14v100q0 9 -7 16zM672 856q0 -12 -12 -15l-347 -94q-6 -2 -10 -2q-13 0 -13 16v35q0 12 14 17l338 97q10 3 17 3q13 0 13 -16v-41z" />
<glyph unicode="&#x155;" horiz-adv-x="486" d="M471 462q0 -15 -16 -15h-145q-9 1 -18.5 -1.5t-19.5 -5.5l-59 -18q-15 -5 -15 -26v-380q0 -16 -15 -16h-118q-15 0 -15 16v452q0 23 21 29l160 46q22 6 44 6h180q16 0 16 -16v-71zM472 714q0 -12 -12 -15l-347 -94q-6 -2 -10 -2q-13 0 -13 16v35q0 12 14 17l338 97 q10 3 17 3q13 0 13 -16v-41z" />
<glyph unicode="&#x156;" horiz-adv-x="905" d="M850 587q8 -8 8 -22v-160q0 -20 -13 -33l-84 -79l111 -235q4 -8 5.5 -14t1.5 -15v-11q0 -8 -2.5 -13t-13.5 -5h-151q-11 0 -16 11l-101 238h-357v-233q0 -16 -16 -16h-157q-15 0 -15 16v646q0 29 28 29h645q18 0 30 -12zM617 580q-6 6 -16 6h-346q-17 0 -17 -19v-217h365 l60 56q7 7 7 14v100q0 9 -7 16zM494 -70v-9t-1 -10l-9 -86q-2 -15 -15 -15h-24q-14 0 -15 15l-9 86q-1 5 -1 10v9v9q0 12 14 12h46q14 0 14 -12v-9z" />
<glyph unicode="&#x157;" horiz-adv-x="486" d="M471 462q0 -15 -16 -15h-145q-9 1 -18.5 -1.5t-19.5 -5.5l-59 -18q-15 -5 -15 -26v-380q0 -16 -15 -16h-118q-15 0 -15 16v452q0 23 21 29l160 46q22 6 44 6h180q16 0 16 -16v-71zM162 -70v-9t-1 -10l-9 -86q-2 -15 -15 -15h-24q-14 0 -15 15l-9 86q-1 5 -1 10v9v9 q0 12 14 12h46q14 0 14 -12v-9z" />
<glyph unicode="&#x158;" horiz-adv-x="905" d="M850 587q8 -8 8 -22v-160q0 -20 -13 -33l-84 -79l111 -235q4 -8 5.5 -14t1.5 -15v-11q0 -8 -2.5 -13t-13.5 -5h-151q-11 0 -16 11l-101 238h-357v-233q0 -16 -16 -16h-157q-15 0 -15 16v646q0 29 28 29h645q18 0 30 -12zM617 580q-6 6 -16 6h-346q-17 0 -17 -19v-217h365 l60 56q7 7 7 14v100q0 9 -7 16zM634 874q0 -12 -9 -16l-170 -86q-6 -3 -12 -3t-12 3l-169 86q-10 4 -10 16v45q0 16 13 16q4 0 9 -2l10 -4l159 -76l160 76q5 2 9.5 4t9.5 2q12 0 12 -16v-45z" />
<glyph unicode="&#x159;" horiz-adv-x="486" d="M471 462q0 -15 -16 -15h-145q-9 1 -18.5 -1.5t-19.5 -5.5l-59 -18q-15 -5 -15 -26v-380q0 -16 -15 -16h-118q-15 0 -15 16v452q0 23 21 29l160 46q22 6 44 6h180q16 0 16 -16v-71zM438 732q0 -12 -9 -16l-170 -86q-6 -3 -12 -3t-12 3l-169 86q-10 4 -10 16v45q0 16 13 16 q4 0 9 -2l10 -4l159 -76l160 76q5 2 9.5 4t9.5 2q12 0 12 -16v-45z" />
<glyph unicode="&#x15a;" horiz-adv-x="861" d="M808 601q0 -15 -16 -15h-493q-13 0 -22 -9l-35 -34q-9 -8 -9 -20v-57q0 -7 6 -13l40 -39q6 -6 13 -6h407q21 0 35 -14l73 -78q13 -13 13 -31v-155q0 -16 -12 -28l-92 -88q-8 -8 -17.5 -10.5t-18.5 -3.5h-630q-15 0 -15 16v73q0 16 15 16h521q13 0 23 7l34 35q7 7 7 16v78 q-2 4 -6 8l-39 38q-7 7 -19 8h-417q-12 0 -20 8l-75 83q-8 8 -11 14.5t-2 18.5v148q0 11 5.5 17t13.5 14l86 81q12 12 30 12h611q16 0 16 -16v-74zM650 856q0 -12 -12 -15l-347 -94q-6 -2 -10 -2q-13 0 -13 16v35q0 12 14 17l338 97q10 3 17 3q13 0 13 -16v-41z" />
<glyph unicode="&#x15b;" horiz-adv-x="692" d="M641 488q0 -16 -16 -16h-396q-10 0 -17 -7l-27 -29q-6 -6 -6 -14v-47q0 -13 7 -20l20 -24q9 -9 19 -9h324q22 0 36 -14l54 -55q10 -10 10 -29v-122q0 -10 -9 -19l-74 -72q-11 -11 -28 -11h-488q-15 0 -15 16v45q0 16 15 16h402q12 0 20 8l32 30q5 5 5 10v58q0 7 -5 12 l-34 30q-5 5 -14 5h-325q-12 0 -21 9l-59 59q-9 9 -9 23v126q0 12 8 20l71 74q8 8 20 8h484q16 0 16 -16v-45zM565 714q0 -12 -12 -15l-347 -94q-6 -2 -10 -2q-13 0 -13 16v35q0 12 14 17l338 97q10 3 17 3q13 0 13 -16v-41z" />
<glyph unicode="&#x15c;" horiz-adv-x="861" d="M808 601q0 -15 -16 -15h-493q-13 0 -22 -9l-35 -34q-9 -8 -9 -20v-57q0 -7 6 -13l40 -39q6 -6 13 -6h407q21 0 35 -14l73 -78q13 -13 13 -31v-155q0 -16 -12 -28l-92 -88q-8 -8 -17.5 -10.5t-18.5 -3.5h-630q-15 0 -15 16v73q0 16 15 16h521q13 0 23 7l34 35q7 7 7 16v78 q-2 4 -6 8l-39 38q-7 7 -19 8h-417q-12 0 -20 8l-75 83q-8 8 -11 14.5t-2 18.5v148q0 11 5.5 17t13.5 14l86 81q12 12 30 12h611q16 0 16 -16v-74zM621 779q0 -16 -13 -16q-4 0 -9 2l-10 4l-159 76l-160 -76q-5 -2 -9.5 -4t-9.5 -2q-12 0 -12 16v45q0 11 9 16l170 86 q6 3 12 3t12 -3l169 -86q10 -4 10 -16v-45z" />
<glyph unicode="&#x15d;" horiz-adv-x="692" d="M641 488q0 -16 -16 -16h-396q-10 0 -17 -7l-27 -29q-6 -6 -6 -14v-47q0 -13 7 -20l20 -24q9 -9 19 -9h324q22 0 36 -14l54 -55q10 -10 10 -29v-122q0 -10 -9 -19l-74 -72q-11 -11 -28 -11h-488q-15 0 -15 16v45q0 16 15 16h402q12 0 20 8l32 30q5 5 5 10v58q0 7 -5 12 l-34 30q-5 5 -14 5h-325q-12 0 -21 9l-59 59q-9 9 -9 23v126q0 12 8 20l71 74q8 8 20 8h484q16 0 16 -16v-45zM537 637q0 -16 -13 -16q-4 0 -9 2l-10 4l-159 76l-160 -76q-5 -2 -9.5 -4t-9.5 -2q-12 0 -12 16v45q0 11 9 16l170 86q6 3 12 3t12 -3l169 -86q10 -4 10 -16v-45z " />
<glyph unicode="&#x15e;" horiz-adv-x="861" d="M808 601q0 -15 -16 -15h-493q-13 0 -22 -9l-35 -34q-9 -8 -9 -20v-57q0 -7 6 -13l40 -39q6 -6 13 -6h407q21 0 35 -14l73 -78q13 -13 13 -31v-155q0 -16 -12 -28l-92 -88q-8 -8 -17.5 -10.5t-18.5 -3.5h-630q-15 0 -15 16v73q0 16 15 16h521q13 0 23 7l34 35q7 7 7 16v78 q-2 4 -6 8l-39 38q-7 7 -19 8h-417q-12 0 -20 8l-75 83q-8 8 -11 14.5t-2 18.5v148q0 11 5.5 17t13.5 14l86 81q12 12 30 12h611q16 0 16 -16v-74zM467 -70v-9t-1 -10l-9 -86q-2 -15 -15 -15h-24q-14 0 -15 15l-9 86q-1 5 -1 10v9v9q0 12 14 12h46q14 0 14 -12v-9z" />
<glyph unicode="&#x15f;" horiz-adv-x="692" d="M641 488q0 -16 -16 -16h-396q-10 0 -17 -7l-27 -29q-6 -6 -6 -14v-47q0 -13 7 -20l20 -24q9 -9 19 -9h324q22 0 36 -14l54 -55q10 -10 10 -29v-122q0 -10 -9 -19l-74 -72q-11 -11 -28 -11h-488q-15 0 -15 16v45q0 16 15 16h402q12 0 20 8l32 30q5 5 5 10v58q0 7 -5 12 l-34 30q-5 5 -14 5h-325q-12 0 -21 9l-59 59q-9 9 -9 23v126q0 12 8 20l71 74q8 8 20 8h484q16 0 16 -16v-45zM382 -70v-9t-1 -10l-9 -86q-2 -15 -15 -15h-24q-14 0 -15 15l-9 86q-1 5 -1 10v9v9q0 12 14 12h46q14 0 14 -12v-9z" />
<glyph unicode="&#x160;" horiz-adv-x="861" d="M808 601q0 -15 -16 -15h-493q-13 0 -22 -9l-35 -34q-9 -8 -9 -20v-57q0 -7 6 -13l40 -39q6 -6 13 -6h407q21 0 35 -14l73 -78q13 -13 13 -31v-155q0 -16 -12 -28l-92 -88q-8 -8 -17.5 -10.5t-18.5 -3.5h-630q-15 0 -15 16v73q0 16 15 16h521q13 0 23 7l34 35q7 7 7 16v78 q-2 4 -6 8l-39 38q-7 7 -19 8h-417q-12 0 -20 8l-75 83q-8 8 -11 14.5t-2 18.5v148q0 11 5.5 17t13.5 14l86 81q12 12 30 12h611q16 0 16 -16v-74zM622 874q0 -12 -9 -16l-170 -86q-6 -3 -12 -3t-12 3l-169 86q-10 4 -10 16v45q0 16 13 16q4 0 9 -2l10 -4l159 -76l160 76 q5 2 9.5 4t9.5 2q12 0 12 -16v-45z" />
<glyph unicode="&#x161;" horiz-adv-x="692" d="M641 488q0 -16 -16 -16h-396q-10 0 -17 -7l-27 -29q-6 -6 -6 -14v-47q0 -13 7 -20l20 -24q9 -9 19 -9h324q22 0 36 -14l54 -55q10 -10 10 -29v-122q0 -10 -9 -19l-74 -72q-11 -11 -28 -11h-488q-15 0 -15 16v45q0 16 15 16h402q12 0 20 8l32 30q5 5 5 10v58q0 7 -5 12 l-34 30q-5 5 -14 5h-325q-12 0 -21 9l-59 59q-9 9 -9 23v126q0 12 8 20l71 74q8 8 20 8h484q16 0 16 -16v-45zM537 732q0 -12 -9 -16l-170 -86q-6 -3 -12 -3t-12 3l-169 86q-10 4 -10 16v45q0 16 13 16q4 0 9 -2l10 -4l159 -76l160 76q5 2 9.5 4t9.5 2q12 0 12 -16v-45z" />
<glyph unicode="&#x162;" horiz-adv-x="769" d="M756 597q0 -16 -15 -16h-260v-565q0 -16 -16 -16h-160q-15 0 -15 16v565h-261q-16 0 -16 16v78q0 16 16 16h712q15 0 15 -16v-78zM420 -70v-9t-1 -10l-9 -86q-2 -15 -15 -15h-24q-14 0 -15 15l-9 86q-1 5 -1 10v9v9q0 12 14 12h46q14 0 14 -12v-9z" />
<glyph unicode="&#x163;" horiz-adv-x="395" d="M236 549h124q15 0 15 -16v-38q0 -13 -14 -15l-125 -8v-456q0 -16 -16 -16h-115q-16 0 -16 16v456l-63 8q-14 2 -14 15v38q0 16 16 16h66l20 172q1 16 20 16h86q16 0 16 -16v-172zM200 -70v-9t-1 -10l-9 -86q-2 -15 -15 -15h-24q-14 0 -15 15l-9 86q-1 5 -1 10v9v9 q0 12 14 12h46q14 0 14 -12v-9z" />
<glyph unicode="&#x164;" horiz-adv-x="769" d="M756 597q0 -16 -15 -16h-260v-565q0 -16 -16 -16h-160q-15 0 -15 16v565h-261q-16 0 -16 16v78q0 16 16 16h712q15 0 15 -16v-78zM575 874q0 -12 -9 -16l-170 -86q-6 -3 -12 -3t-12 3l-169 86q-10 4 -10 16v45q0 16 13 16q4 0 9 -2l10 -4l159 -76l160 76q5 2 9.5 4t9.5 2 q12 0 12 -16v-45z" />
<glyph unicode="&#x165;" horiz-adv-x="419" d="M236 549h124q15 0 15 -16v-38q0 -13 -14 -15l-125 -8v-456q0 -16 -16 -16h-115q-16 0 -16 16v456l-63 8q-14 2 -14 15v38q0 16 16 16h66l20 172q1 16 20 16h86q16 0 16 -16v-172zM429 716v-9t-1 -10l-9 -86q-2 -15 -15 -15h-24q-14 0 -15 15l-9 86q-1 5 -1 10v9v9 q0 12 14 12h46q14 0 14 -12v-9z" />
<glyph unicode="&#x166;" horiz-adv-x="769" d="M756 597q0 -16 -15 -16h-260v-177h130q16 0 16 -16v-42q0 -15 -16 -15h-130v-315q0 -16 -16 -16h-160q-15 0 -15 16v315h-134q-15 0 -15 15v42q0 16 15 16h134v177h-261q-16 0 -16 16v78q0 16 16 16h712q15 0 15 -16v-78z" />
<glyph unicode="&#x167;" horiz-adv-x="395" d="M236 549h124q15 0 15 -16v-38q0 -13 -14 -15l-125 -8v-116h119q16 0 16 -16v-34q0 -16 -16 -16h-119v-274q0 -16 -16 -16h-115q-16 0 -16 16v274h-58q-15 0 -15 16v34q0 16 15 16h58v116l-63 8q-14 2 -14 15v38q0 16 16 16h66l20 172q1 16 20 16h86q16 0 16 -16v-172z " />
<glyph unicode="&#x168;" horiz-adv-x="900" d="M854 138q0 -13 -9 -20l-108 -104q-8 -8 -17.5 -10.5t-19.5 -3.5h-500q-21 0 -37 14l-108 104q-9 7 -9 20v537q0 16 16 16h159q15 0 15 -16v-500q0 -7 6 -13l57 -52q5 -5 13 -5h279q8 0 13 5l57 52q6 6 6 13v500q0 16 15 16h156q16 0 16 -16v-537zM661 840q0 -15 -12 -19 l-97 -40q-8 -4 -20 -4q-9 0 -12 1l-140 35q-4 1 -10 1q-1 0 -9 -2l-97 -38q-7 -4 -14 -4q-11 0 -11 11v44q0 14 12 19l97 40q8 4 20 4q9 0 12 -1l140 -35q4 -1 10 -1q1 0 9 2l97 38q7 4 14 4q11 0 11 -11v-44z" />
<glyph unicode="&#x169;" d="M656 110q0 -9 -8 -20l-82 -82q-8 -8 -20 -8h-390q-13 0 -21 8l-80 82q-8 11 -8 20v423q0 16 15 16h116q16 0 16 -16v-389q0 -9 7 -16l35 -36q7 -6 11 -6h213q4 0 12 8l35 35q5 5 7 10v394q0 16 16 16h110q16 0 16 -16v-423zM563 698q0 -15 -12 -19l-97 -40q-8 -4 -20 -4 q-9 0 -12 1l-140 35q-4 1 -10 1q-1 0 -9 -2l-97 -38q-7 -4 -14 -4q-11 0 -11 11v44q0 14 12 19l97 40q8 4 20 4q9 0 12 -1l140 -35q4 -1 10 -1q1 0 9 2l97 38q7 4 14 4q11 0 11 -11v-44z" />
<glyph unicode="&#x16a;" horiz-adv-x="900" d="M854 138q0 -13 -9 -20l-108 -104q-8 -8 -17.5 -10.5t-19.5 -3.5h-500q-21 0 -37 14l-108 104q-9 7 -9 20v537q0 16 16 16h159q15 0 15 -16v-500q0 -7 6 -13l57 -52q5 -5 13 -5h279q8 0 13 5l57 52q6 6 6 13v500q0 16 15 16h156q16 0 16 -16v-537zM652 817q0 -15 -15 -15 h-376q-15 0 -15 15v43q0 15 15 15h376q15 0 15 -15v-43z" />
<glyph unicode="&#x16b;" d="M656 110q0 -9 -8 -20l-82 -82q-8 -8 -20 -8h-390q-13 0 -21 8l-80 82q-8 11 -8 20v423q0 16 15 16h116q16 0 16 -16v-389q0 -9 7 -16l35 -36q7 -6 11 -6h213q4 0 12 8l35 35q5 5 7 10v394q0 16 16 16h110q16 0 16 -16v-423zM554 675q0 -15 -15 -15h-376q-15 0 -15 15v43 q0 15 15 15h376q15 0 15 -15v-43z" />
<glyph unicode="&#x16c;" horiz-adv-x="900" d="M854 138q0 -13 -9 -20l-108 -104q-8 -8 -17.5 -10.5t-19.5 -3.5h-500q-21 0 -37 14l-108 104q-9 7 -9 20v537q0 16 16 16h159q15 0 15 -16v-500q0 -7 6 -13l57 -52q5 -5 13 -5h279q8 0 13 5l57 52q6 6 6 13v500q0 16 15 16h156q16 0 16 -16v-537zM640 876q0 -10 -7 -16 l-103 -82q-7 -7 -25 -7h-112q-18 0 -25 7l-103 82q-7 6 -7 16v43q0 17 12 17q6 0 13 -4l109 -80q4 -4 18 -4h78q14 0 18 4l109 80q7 4 13 4q12 0 12 -17v-43z" />
<glyph unicode="&#x16d;" d="M656 110q0 -9 -8 -20l-82 -82q-8 -8 -20 -8h-390q-13 0 -21 8l-80 82q-8 11 -8 20v423q0 16 15 16h116q16 0 16 -16v-389q0 -9 7 -16l35 -36q7 -6 11 -6h213q4 0 12 8l35 35q5 5 7 10v394q0 16 16 16h110q16 0 16 -16v-423zM542 734q0 -10 -7 -16l-103 -82q-7 -7 -25 -7 h-112q-18 0 -25 7l-103 82q-7 6 -7 16v43q0 17 12 17q6 0 13 -4l109 -80q4 -4 18 -4h78q14 0 18 4l109 80q7 4 13 4q12 0 12 -17v-43z" />
<glyph unicode="&#x16e;" horiz-adv-x="900" d="M854 138q0 -13 -9 -20l-108 -104q-8 -8 -17.5 -10.5t-19.5 -3.5h-500q-21 0 -37 14l-108 104q-9 7 -9 20v537q0 16 16 16h159q15 0 15 -16v-500q0 -7 6 -13l57 -52q5 -5 13 -5h279q8 0 13 5l57 52q6 6 6 13v500q0 16 15 16h156q16 0 16 -16v-537zM555 901q9 -11 9 -22 v-59q0 -12 -9 -22l-49 -50q-9 -9 -21 -9h-72q-12 0 -21 9l-49 50q-9 10 -9 22v59q0 11 9 22l49 50q9 9 21 9h72q12 0 21 -9zM483 913q-4 4 -11 4h-46q-7 0 -11 -4l-32 -32q-5 -8 -5 -14v-35q0 -6 5 -14l32 -32q4 -4 11 -4h46q7 0 11 4l32 32q5 8 5 14v35q0 6 -5 14z" />
<glyph unicode="&#x16f;" d="M656 110q0 -9 -8 -20l-82 -82q-8 -8 -20 -8h-390q-13 0 -21 8l-80 82q-8 11 -8 20v423q0 16 15 16h116q16 0 16 -16v-389q0 -9 7 -16l35 -36q7 -6 11 -6h213q4 0 12 8l35 35q5 5 7 10v394q0 16 16 16h110q16 0 16 -16v-423zM457 759q9 -11 9 -22v-59q0 -12 -9 -22 l-49 -50q-9 -9 -21 -9h-72q-12 0 -21 9l-49 50q-9 10 -9 22v59q0 11 9 22l49 50q9 9 21 9h72q12 0 21 -9zM385 771q-4 4 -11 4h-46q-7 0 -11 -4l-32 -32q-5 -8 -5 -14v-35q0 -6 5 -14l32 -32q4 -4 11 -4h46q7 0 11 4l32 32q5 8 5 14v35q0 6 -5 14z" />
<glyph unicode="&#x170;" horiz-adv-x="900" d="M854 138q0 -13 -9 -20l-108 -104q-8 -8 -17.5 -10.5t-19.5 -3.5h-500q-21 0 -37 14l-108 104q-9 7 -9 20v537q0 16 16 16h159q15 0 15 -16v-500q0 -7 6 -13l57 -52q5 -5 13 -5h279q8 0 13 5l57 52q6 6 6 13v500q0 16 15 16h156q16 0 16 -16v-537zM581 757q-5 -12 -15 -12 h-26q-11 0 -14.5 3.5t-3.5 8.5q0 2 2 10l45 143q4 12 9 17.5t16 5.5h25q19 0 19 -13q0 -10 -5 -18zM392 757q-5 -12 -15 -12h-26q-11 0 -14.5 3.5t-3.5 8.5q0 2 2 10l45 143q4 12 9 17.5t16 5.5h25q19 0 19 -13q0 -10 -5 -18z" />
<glyph unicode="&#x171;" d="M656 110q0 -9 -8 -20l-82 -82q-8 -8 -20 -8h-390q-13 0 -21 8l-80 82q-8 11 -8 20v423q0 16 15 16h116q16 0 16 -16v-389q0 -9 7 -16l35 -36q7 -6 11 -6h213q4 0 12 8l35 35q5 5 7 10v394q0 16 16 16h110q16 0 16 -16v-423zM482 615q-5 -12 -15 -12h-26q-11 0 -14.5 3.5 t-3.5 8.5q0 2 2 10l45 143q4 12 9 17.5t16 5.5h25q19 0 19 -13q0 -10 -5 -18zM293 615q-5 -12 -15 -12h-26q-11 0 -14.5 3.5t-3.5 8.5q0 2 2 10l45 143q4 12 9 17.5t16 5.5h25q19 0 19 -13q0 -10 -5 -18z" />
<glyph unicode="&#x172;" horiz-adv-x="900" d="M854 138q0 -13 -9 -20l-183 -177q-5 -5 -5 -13v-20q0 -7 5 -9l43 -19q8 -2 12 -2h132q16 0 16 -15v-19q0 -5 -3 -9.5t-9 -5.5l-103 -15q-5 -1 -10 -1.5t-10 -0.5h-14q-11 0 -26 5l-75 38q-18 9 -18 27v37q0 18 11 27l56 54h-464q-21 0 -37 14l-108 104q-9 7 -9 20v537 q0 16 16 16h159q15 0 15 -16v-500q0 -7 6 -13l57 -52q5 -5 13 -5h279q8 0 13 5l57 52q6 6 6 13v500q0 16 15 16h156q16 0 16 -16v-537z" />
<glyph unicode="&#x173;" d="M656 110q0 -9 -8 -20l-154 -149q-5 -5 -5 -13v-20q0 -7 5 -9l43 -19q8 -2 12 -2h132q16 0 16 -15v-19q0 -5 -3 -9.5t-9 -5.5l-103 -15q-5 -1 -10 -1.5t-10 -0.5h-14q-11 0 -26 5l-75 38q-18 9 -18 27v37q0 18 11 27l56 54h-340q-13 0 -21 8l-80 82q-8 11 -8 20v423 q0 16 15 16h116q16 0 16 -16v-389q0 -9 7 -16l35 -36q7 -6 11 -6h213q4 0 12 8l35 35q5 5 7 10v394q0 16 16 16h110q16 0 16 -16v-423z" />
<glyph unicode="&#x174;" horiz-adv-x="1305" d="M1260 138q0 -13 -9 -20l-108 -104q-8 -8 -17.5 -10.5t-19.5 -3.5h-906q-21 0 -37 14l-108 104q-9 7 -9 20v537q0 16 16 16h159q15 0 15 -16v-500q0 -7 6 -13l57 -52q5 -5 13 -5h258v570q0 16 15 16h138q16 0 16 -16v-570h258q8 0 13 5l57 52q6 6 6 13v500q0 16 15 16h156 q16 0 16 -16v-537zM843 779q0 -16 -13 -16q-4 0 -9 2l-10 4l-159 76l-160 -76q-5 -2 -9.5 -4t-9.5 -2q-12 0 -12 16v45q0 11 9 16l170 86q6 3 12 3t12 -3l169 -86q10 -4 10 -16v-45z" />
<glyph unicode="&#x175;" horiz-adv-x="1016" d="M968 110q0 -9 -8 -20l-82 -82q-8 -8 -20 -8h-702q-13 0 -21 8l-80 82q-8 11 -8 20v423q0 16 15 16h116q16 0 16 -16v-389q0 -9 7 -16l35 -36q7 -6 11 -6h197v447q0 16 15 16h102q16 0 16 -16v-447h195q4 0 12 8l35 35q5 5 7 10v394q0 16 16 16h110q16 0 16 -16v-423z M699 637q0 -16 -13 -16q-4 0 -9 2l-10 4l-159 76l-160 -76q-5 -2 -9.5 -4t-9.5 -2q-12 0 -12 16v45q0 11 9 16l170 86q6 3 12 3t12 -3l169 -86q10 -4 10 -16v-45z" />
<glyph unicode="&#x176;" horiz-adv-x="840" d="M803 461q0 -12 -9 -19l-280 -211v-215q0 -16 -16 -16h-159q-15 0 -15 16v215l-280 211q-9 7 -9 19v214q0 16 15 16h149q16 0 16 -16v-193q0 -14 8 -20l198 -147l197 147q8 6 8 20v193q0 16 16 16h145q16 0 16 -16v-214zM611 779q0 -16 -13 -16q-4 0 -9 2l-10 4l-159 76 l-160 -76q-5 -2 -9.5 -4t-9.5 -2q-12 0 -12 16v45q0 11 9 16l170 86q6 3 12 3t12 -3l169 -86q10 -4 10 -16v-45z" />
<glyph unicode="&#x177;" horiz-adv-x="719" d="M669 -118q0 -17 -16 -26l-65 -37q-13 -7 -29 -7h-266q-37 0 -50 4l-109 16q-12 3 -12 12v38q0 6 3.5 11t12.5 5h322q10 0 21 6l33 18q7 4 7 12v92h-371q-11 0 -19 8l-76 75q-8 8 -8 20v406q0 16 15 16h116q16 0 16 -16v-361q0 -8 2 -12t5 -8l31 -32q5 -5 9 -6.5t14 -1.5 h266v421q0 16 16 16h116q16 0 16 -16v-653zM550 637q0 -16 -13 -16q-4 0 -9 2l-10 4l-159 76l-160 -76q-5 -2 -9.5 -4t-9.5 -2q-12 0 -12 16v45q0 11 9 16l170 86q6 3 12 3t12 -3l169 -86q10 -4 10 -16v-45z" />
<glyph unicode="&#x178;" horiz-adv-x="840" d="M803 461q0 -12 -9 -19l-280 -211v-215q0 -16 -16 -16h-159q-15 0 -15 16v215l-280 211q-9 7 -9 19v214q0 16 15 16h149q16 0 16 -16v-193q0 -14 8 -20l198 -147l197 147q8 6 8 20v193q0 16 16 16h145q16 0 16 -16v-214zM334 787q0 -15 -16 -15h-77q-15 0 -15 15v102 q0 15 15 15h77q16 0 16 -15v-102zM613 787q0 -15 -16 -15h-77q-15 0 -15 15v102q0 15 15 15h77q16 0 16 -15v-102z" />
<glyph unicode="&#x179;" horiz-adv-x="877" d="M830 621q0 -8 -3 -16.5t-9 -13.5l-523 -463q-5 -5 -5 -11q0 -12 14 -12h524q16 0 16 -16v-73q0 -16 -16 -16h-771q-25 0 -25 27v39q0 10 3.5 20t10.5 16l524 455q7 6 7 15q0 14 -17 14h-480q-16 0 -16 15v74q0 16 16 16h724q26 0 26 -26v-44zM657 856q0 -12 -12 -15 l-347 -94q-6 -2 -10 -2q-13 0 -13 16v35q0 12 14 17l338 97q10 3 17 3q13 0 13 -16v-41z" />
<glyph unicode="&#x17a;" horiz-adv-x="700" d="M657 486q0 -14 -11 -25l-388 -351q-8 -6 -8 -14q0 -10 14 -10h387q15 0 15 -16v-54q0 -16 -15 -16h-575q-26 0 -26 27v33q0 17 11 28l393 351q8 8 8 15q0 9 -13 9h-359q-16 0 -16 16v54q0 16 16 16h541q26 0 26 -26v-37zM569 714q0 -12 -12 -15l-347 -94q-6 -2 -10 -2 q-13 0 -13 16v35q0 12 14 17l338 97q10 3 17 3q13 0 13 -16v-41z" />
<glyph unicode="&#x17b;" horiz-adv-x="877" d="M830 621q0 -8 -3 -16.5t-9 -13.5l-523 -463q-5 -5 -5 -11q0 -12 14 -12h524q16 0 16 -16v-73q0 -16 -16 -16h-771q-25 0 -25 27v39q0 10 3.5 20t10.5 16l524 455q7 6 7 15q0 14 -17 14h-480q-16 0 -16 15v74q0 16 16 16h724q26 0 26 -26v-44zM492 787q0 -15 -16 -15h-77 q-15 0 -15 15v102q0 15 15 15h77q16 0 16 -15v-102z" />
<glyph unicode="&#x17c;" horiz-adv-x="700" d="M657 486q0 -14 -11 -25l-388 -351q-8 -6 -8 -14q0 -10 14 -10h387q15 0 15 -16v-54q0 -16 -15 -16h-575q-26 0 -26 27v33q0 17 11 28l393 351q8 8 8 15q0 9 -13 9h-359q-16 0 -16 16v54q0 16 16 16h541q26 0 26 -26v-37zM403 645q0 -15 -16 -15h-77q-15 0 -15 15v102 q0 15 15 15h77q16 0 16 -15v-102z" />
<glyph unicode="&#x17d;" horiz-adv-x="877" d="M830 621q0 -8 -3 -16.5t-9 -13.5l-523 -463q-5 -5 -5 -11q0 -12 14 -12h524q16 0 16 -16v-73q0 -16 -16 -16h-771q-25 0 -25 27v39q0 10 3.5 20t10.5 16l524 455q7 6 7 15q0 14 -17 14h-480q-16 0 -16 15v74q0 16 16 16h724q26 0 26 -26v-44zM629 874q0 -12 -9 -16 l-170 -86q-6 -3 -12 -3t-12 3l-169 86q-10 4 -10 16v45q0 16 13 16q4 0 9 -2l10 -4l159 -76l160 76q5 2 9.5 4t9.5 2q12 0 12 -16v-45z" />
<glyph unicode="&#x17e;" horiz-adv-x="700" d="M657 486q0 -14 -11 -25l-388 -351q-8 -6 -8 -14q0 -10 14 -10h387q15 0 15 -16v-54q0 -16 -15 -16h-575q-26 0 -26 27v33q0 17 11 28l393 351q8 8 8 15q0 9 -13 9h-359q-16 0 -16 16v54q0 16 16 16h541q26 0 26 -26v-37zM541 732q0 -12 -9 -16l-170 -86q-6 -3 -12 -3 t-12 3l-169 86q-10 4 -10 16v45q0 16 13 16q4 0 9 -2l10 -4l159 -76l160 76q5 2 9.5 4t9.5 2q12 0 12 -16v-45z" />
<glyph unicode="&#x1fa;" horiz-adv-x="914" d="M875 59q3 -8 5 -14.5t2 -14.5v-14q0 -16 -15 -16h-152q-10 0 -14 12l-48 131h-424l-47 -131q-5 -12 -15 -12h-123q-15 0 -15 16v14q0 8 2 14.5t5 14.5l220 612q3 9 12.5 14.5t16.5 5.5h341q21 0 29 -20zM400 586q-10 0 -11 -6l-124 -338h352l-124 339q-2 5 -9 5h-84z M568 901q9 -11 9 -22v-59q0 -12 -9 -22l-49 -50q-9 -9 -21 -9h-72q-12 0 -21 9l-49 50q-9 10 -9 22v59q0 11 9 22l49 50q9 9 21 9h72q12 0 21 -9zM496 913q-4 4 -11 4h-46q-7 0 -11 -4l-32 -32q-5 -8 -5 -14v-35q0 -6 5 -14l32 -32q4 -4 11 -4h46q7 0 11 4l32 32q5 8 5 14 v35q0 6 -5 14zM858.38 899.146q0 -9.90137 -7.11035 -12.377l-205.607 -77.5625q-3.55469 -1.65039 -5.92578 -1.65039q-7.70215 0 -7.70215 13.2021v28.8799q0 9.90137 8.29492 14.0273l200.275 80.0381q5.9248 2.47559 10.0732 2.47559q7.70215 0 7.70215 -13.2021 v-33.8311z" />
<glyph unicode="&#x1fb;" horiz-adv-x="702" d="M646 440q2 -2 5 -9t3 -11v-390q0 -30 -29 -30h-464q-13 0 -25 9l-80 74q-9 7 -9 21v186q0 30 28 30h432v74q0 10 -7 17l-46 47q-5 5 -14 5h-378q-15 0 -15 16v54q0 16 15 16h463q12 0 21 -9zM200 257q-17 0 -17 -17v-92q0 -12 8 -20l35 -31q8 -8 18 -8h247q16 0 16 17 v151h-307zM456 759q9 -11 9 -22v-59q0 -12 -9 -22l-49 -50q-9 -9 -21 -9h-72q-12 0 -21 9l-49 50q-9 10 -9 22v59q0 11 9 22l49 50q9 9 21 9h72q12 0 21 -9zM384 771q-4 4 -11 4h-46q-7 0 -11 -4l-32 -32q-5 -8 -5 -14v-35q0 -6 5 -14l32 -32q4 -4 11 -4h46q7 0 11 4l32 32 q5 8 5 14v35q0 6 -5 14zM743.38 762.146q0 -9.90137 -7.11035 -12.377l-205.607 -77.5625q-3.55469 -1.65039 -5.92578 -1.65039q-7.70215 0 -7.70215 13.2021v28.8799q0 9.90137 8.29492 14.0273l200.275 80.0381q5.9248 2.47559 10.0732 2.47559 q7.70215 0 7.70215 -13.2021v-33.8311z" />
<glyph unicode="&#x1fc;" horiz-adv-x="1228" d="M1190 601q0 -15 -15 -15h-467v-184h459q16 0 16 -16v-68q0 -15 -16 -15h-459v-118q0 -6 5 -11l66 -62q7 -7 16 -7h380q16 0 16 -16v-73q0 -16 -16 -16h-467q-19 0 -32 13l-131 123q-9 9 -9 22v428h-180q-13 0 -16 -12l-131 -469h230q15 0 15 -18v-71q0 -16 -15 -16h-387 q-23 0 -23 24v21q0 9 3 17l174 609q6 20 28 20h941q15 0 15 -16v-74zM833 856q0 -12 -12 -15l-347 -94q-6 -2 -10 -2q-13 0 -13 16v35q0 12 14 17l338 97q10 3 17 3q13 0 13 -16v-41z" />
<glyph unicode="&#x1fd;" horiz-adv-x="1032" d="M983 275q0 -29 -29 -29h-362v-160h375q16 0 16 -16v-54q0 -16 -16 -16h-803q-18 0 -29 11l-79 72q-9 7 -9 21v179q0 29 28 29h370v151h-383q-15 0 -15 16v54q0 16 15 16h892q29 0 29 -29v-245zM200 246q-17 0 -17 -15v-87q0 -10 8 -18l36 -33q7 -7 17 -7h201v160h-245z M592 463v-151h239q15 0 15 15v122q0 14 -15 14h-239zM735 714q0 -12 -12 -15l-347 -94q-6 -2 -10 -2q-13 0 -13 16v35q0 12 14 17l338 97q10 3 17 3q13 0 13 -16v-41z" />
<glyph unicode="&#x1fe;" horiz-adv-x="896" d="M667 856q0 -12 -12 -15l-347 -94q-6 -2 -10 -2q-13 0 -13 16v35q0 12 14 17l338 97q10 3 17 3q13 0 13 -16v-41zM736 687l4 -2t4 -3l97 -93q11 -11 11 -27v-433q0 -16 -11 -27l-97 -93q-9 -9 -24 -9h-505l-38 -50q-5 -7 -12 -12.5t-14 -5.5h-23q-16 0 -16 12q0 2 0.5 5.5 t4.5 9.5l36 47l-99 96q-11 11 -11 27v433q0 16 11 27l97 93q9 9 24 9h503l35 46q1 3 5.5 5t8.5 2h21q17 0 17 -11q0 -2 -1.5 -7.5t-4.5 -8.5zM636 554l-341 -449h298q11 0 19 8l45 44q7 7 7 18v341q0 11 -7 18zM302 586q-11 0 -19 -8l-45 -44q-7 -7 -7 -18v-341q0 -11 7 -18 l17 -17l342 446h-295z" />
<glyph unicode="&#x1ff;" horiz-adv-x="711" d="M575 714q0 -12 -12 -15l-347 -94q-6 -2 -10 -2q-13 0 -13 16v35q0 12 14 17l338 97q10 3 17 3q13 0 13 -16v-41zM569 547l83 -81q9 -9 9 -21v-341q0 -12 -9 -21l-75 -74q-9 -9 -20 -9h-362l-35 -51q-3 -5 -7.5 -6.5t-8.5 -1.5h-22q-18 0 -18 11q0 8 7 18l23 33l-82 80 q-9 9 -9 21v341q0 12 9 21l75 74q9 9 20 9h361l47 68q1 4 5.5 6t8.5 2h21q17 0 17 -12q0 -8 -4 -15zM240 460q-8 0 -12 -7l-32 -38q-6 -6 -6 -17v-240q0 -11 6 -17l18 -21l233 340h-207zM260 96h204q8 0 12 7l32 38q6 6 6 17v240q0 11 -6 17l-17 19z" />
<glyph unicode="&#x218;" horiz-adv-x="861" d="M808 601q0 -15 -16 -15h-493q-13 0 -22 -9l-35 -34q-9 -8 -9 -20v-57q0 -7 6 -13l40 -39q6 -6 13 -6h407q21 0 35 -14l73 -78q13 -13 13 -31v-155q0 -16 -12 -28l-92 -88q-8 -8 -17.5 -10.5t-18.5 -3.5h-630q-15 0 -15 16v73q0 16 15 16h521q13 0 23 7l34 35q7 7 7 16v78 q-2 4 -6 8l-39 38q-7 7 -19 8h-417q-12 0 -20 8l-75 83q-8 8 -11 14.5t-2 18.5v148q0 11 5.5 17t13.5 14l86 81q12 12 30 12h611q16 0 16 -16v-74zM467 -70v-9t-1 -10l-9 -86q-2 -15 -15 -15h-24q-14 0 -15 15l-9 86q-1 5 -1 10v9v9q0 12 14 12h46q14 0 14 -12v-9z" />
<glyph unicode="&#x219;" horiz-adv-x="692" d="M641 488q0 -16 -16 -16h-396q-10 0 -17 -7l-27 -29q-6 -6 -6 -14v-47q0 -13 7 -20l20 -24q9 -9 19 -9h324q22 0 36 -14l54 -55q10 -10 10 -29v-122q0 -10 -9 -19l-74 -72q-11 -11 -28 -11h-488q-15 0 -15 16v45q0 16 15 16h402q12 0 20 8l32 30q5 5 5 10v58q0 7 -5 12 l-34 30q-5 5 -14 5h-325q-12 0 -21 9l-59 59q-9 9 -9 23v126q0 12 8 20l71 74q8 8 20 8h484q16 0 16 -16v-45zM382 -70v-9t-1 -10l-9 -86q-2 -15 -15 -15h-24q-14 0 -15 15l-9 86q-1 5 -1 10v9v9q0 12 14 12h46q14 0 14 -12v-9z" />
<glyph unicode="&#x21a;" horiz-adv-x="769" d="M756 597q0 -16 -15 -16h-260v-565q0 -16 -16 -16h-160q-15 0 -15 16v565h-261q-16 0 -16 16v78q0 16 16 16h712q15 0 15 -16v-78zM420 -70v-9t-1 -10l-9 -86q-2 -15 -15 -15h-24q-14 0 -15 15l-9 86q-1 5 -1 10v9v9q0 12 14 12h46q14 0 14 -12v-9z" />
<glyph unicode="&#x21b;" horiz-adv-x="395" d="M236 549h124q15 0 15 -16v-38q0 -13 -14 -15l-125 -8v-456q0 -16 -16 -16h-115q-16 0 -16 16v456l-63 8q-14 2 -14 15v38q0 16 16 16h66l20 172q1 16 20 16h86q16 0 16 -16v-172zM200 -70v-9t-1 -10l-9 -86q-2 -15 -15 -15h-24q-14 0 -15 15l-9 86q-1 5 -1 10v9v9 q0 12 14 12h46q14 0 14 -12v-9z" />
<glyph unicode="&#x2c6;" horiz-adv-x="476" d="M432 637q0 -16 -13 -16q-4 0 -9 2l-10 4l-159 76l-160 -76q-5 -2 -9.5 -4t-9.5 -2q-12 0 -12 16v45q0 11 9 16l170 86q6 3 12 3t12 -3l169 -86q10 -4 10 -16v-45z" />
<glyph unicode="&#x2c7;" horiz-adv-x="484" d="M435 732q0 -12 -9 -16l-170 -86q-6 -3 -12 -3t-12 3l-169 86q-10 4 -10 16v45q0 16 13 16q4 0 9 -2l10 -4l159 -76l160 76q5 2 9.5 4t9.5 2q12 0 12 -16v-45z" />
<glyph unicode="&#x2d8;" horiz-adv-x="480" d="M432 734q0 -10 -7 -16l-103 -82q-7 -7 -25 -7h-112q-18 0 -25 7l-103 82q-7 6 -7 16v43q0 17 12 17q6 0 13 -4l109 -80q4 -4 18 -4h78q14 0 18 4l109 80q7 4 13 4q12 0 12 -17v-43z" />
<glyph unicode="&#x2d9;" horiz-adv-x="215" d="M158 645q0 -15 -16 -15h-77q-15 0 -15 15v102q0 15 15 15h77q16 0 16 -15v-102z" />
<glyph unicode="&#x2da;" horiz-adv-x="316" d="M260 759q9 -11 9 -22v-59q0 -12 -9 -22l-49 -50q-9 -9 -21 -9h-72q-12 0 -21 9l-49 50q-9 10 -9 22v59q0 11 9 22l49 50q9 9 21 9h72q12 0 21 -9zM188 771q-4 4 -11 4h-46q-7 0 -11 -4l-32 -32q-5 -8 -5 -14v-35q0 -6 5 -14l32 -32q4 -4 11 -4h46q7 0 11 4l32 32 q5 8 5 14v35q0 6 -5 14z" />
<glyph unicode="&#x2db;" horiz-adv-x="312" d="M295 -156q0 -5 -3 -9.5t-9 -5.5l-103 -15q-5 -1 -10 -1.5t-10 -0.5h-14q-11 0 -26 5l-75 38q-18 9 -18 27v37q0 18 11 27l56 54h59l-61 -59q-5 -5 -5 -13v-20q0 -7 5 -9l43 -19q8 -2 12 -2h132q16 0 16 -15v-19z" />
<glyph unicode="&#x2dc;" horiz-adv-x="499" d="M450 698q0 -15 -12 -19l-97 -40q-8 -4 -20 -4q-9 0 -12 1l-140 35q-4 1 -10 1q-1 0 -9 -2l-97 -38q-7 -4 -14 -4q-11 0 -11 11v44q0 14 12 19l97 40q8 4 20 4q9 0 12 -1l140 -35q4 -1 10 -1q1 0 9 2l97 38q7 4 14 4q11 0 11 -11v-44z" />
<glyph unicode="&#x2dd;" horiz-adv-x="428" d="M323 615q-5 -12 -15 -12h-26q-11 0 -14.5 3.5t-3.5 8.5q0 2 2 10l45 143q4 12 9 17.5t16 5.5h25q19 0 19 -13q0 -10 -5 -18zM134 615q-5 -12 -15 -12h-26q-11 0 -14.5 3.5t-3.5 8.5q0 2 2 10l45 143q4 12 9 17.5t16 5.5h25q19 0 19 -13q0 -10 -5 -18z" />
<glyph unicode="&#x1e80;" horiz-adv-x="1305" d="M1260 138q0 -13 -9 -20l-108 -104q-8 -8 -17.5 -10.5t-19.5 -3.5h-906q-21 0 -37 14l-108 104q-9 7 -9 20v537q0 16 16 16h159q15 0 15 -16v-500q0 -7 6 -13l57 -52q5 -5 13 -5h258v570q0 16 15 16h138q16 0 16 -16v-570h258q8 0 13 5l57 52q6 6 6 13v500q0 16 15 16h156 q16 0 16 -16v-537zM813 761q0 -16 -13 -16q-2 0 -10 2l-347 94q-12 3 -12 15v41q0 16 13 16q6 0 17 -3l338 -97q14 -5 14 -17v-35z" />
<glyph unicode="&#x1e81;" horiz-adv-x="1016" d="M968 110q0 -9 -8 -20l-82 -82q-8 -8 -20 -8h-702q-13 0 -21 8l-80 82q-8 11 -8 20v423q0 16 15 16h116q16 0 16 -16v-389q0 -9 7 -16l35 -36q7 -6 11 -6h197v447q0 16 15 16h102q16 0 16 -16v-447h195q4 0 12 8l35 35q5 5 7 10v394q0 16 16 16h110q16 0 16 -16v-423z M669 619q0 -16 -13 -16q-2 0 -10 2l-347 94q-12 3 -12 15v41q0 16 13 16q6 0 17 -3l338 -97q14 -5 14 -17v-35z" />
<glyph unicode="&#x1e82;" horiz-adv-x="1305" d="M1260 138q0 -13 -9 -20l-108 -104q-8 -8 -17.5 -10.5t-19.5 -3.5h-906q-21 0 -37 14l-108 104q-9 7 -9 20v537q0 16 16 16h159q15 0 15 -16v-500q0 -7 6 -13l57 -52q5 -5 13 -5h258v570q0 16 15 16h138q16 0 16 -16v-570h258q8 0 13 5l57 52q6 6 6 13v500q0 16 15 16h156 q16 0 16 -16v-537zM871 856q0 -12 -12 -15l-347 -94q-6 -2 -10 -2q-13 0 -13 16v35q0 12 14 17l338 97q10 3 17 3q13 0 13 -16v-41z" />
<glyph unicode="&#x1e83;" horiz-adv-x="1016" d="M968 110q0 -9 -8 -20l-82 -82q-8 -8 -20 -8h-702q-13 0 -21 8l-80 82q-8 11 -8 20v423q0 16 15 16h116q16 0 16 -16v-389q0 -9 7 -16l35 -36q7 -6 11 -6h197v447q0 16 15 16h102q16 0 16 -16v-447h195q4 0 12 8l35 35q5 5 7 10v394q0 16 16 16h110q16 0 16 -16v-423z M727 714q0 -12 -12 -15l-347 -94q-6 -2 -10 -2q-13 0 -13 16v35q0 12 14 17l338 97q10 3 17 3q13 0 13 -16v-41z" />
<glyph unicode="&#x1e84;" horiz-adv-x="1305" d="M1260 138q0 -13 -9 -20l-108 -104q-8 -8 -17.5 -10.5t-19.5 -3.5h-906q-21 0 -37 14l-108 104q-9 7 -9 20v537q0 16 16 16h159q15 0 15 -16v-500q0 -7 6 -13l57 -52q5 -5 13 -5h258v570q0 16 15 16h138q16 0 16 -16v-570h258q8 0 13 5l57 52q6 6 6 13v500q0 16 15 16h156 q16 0 16 -16v-537zM566 787q0 -15 -16 -15h-77q-15 0 -15 15v102q0 15 15 15h77q16 0 16 -15v-102zM845 787q0 -15 -16 -15h-77q-15 0 -15 15v102q0 15 15 15h77q16 0 16 -15v-102z" />
<glyph unicode="&#x1e85;" horiz-adv-x="1016" d="M968 110q0 -9 -8 -20l-82 -82q-8 -8 -20 -8h-702q-13 0 -21 8l-80 82q-8 11 -8 20v423q0 16 15 16h116q16 0 16 -16v-389q0 -9 7 -16l35 -36q7 -6 11 -6h197v447q0 16 15 16h102q16 0 16 -16v-447h195q4 0 12 8l35 35q5 5 7 10v394q0 16 16 16h110q16 0 16 -16v-423z M422 645q0 -15 -16 -15h-77q-15 0 -15 15v102q0 15 15 15h77q16 0 16 -15v-102zM701 645q0 -15 -16 -15h-77q-15 0 -15 15v102q0 15 15 15h77q16 0 16 -15v-102z" />
<glyph unicode="&#x1ef2;" horiz-adv-x="840" d="M803 461q0 -12 -9 -19l-280 -211v-215q0 -16 -16 -16h-159q-15 0 -15 16v215l-280 211q-9 7 -9 19v214q0 16 15 16h149q16 0 16 -16v-193q0 -14 8 -20l198 -147l197 147q8 6 8 20v193q0 16 16 16h145q16 0 16 -16v-214zM580 761q0 -16 -13 -16q-2 0 -10 2l-347 94 q-12 3 -12 15v41q0 16 13 16q6 0 17 -3l338 -97q14 -5 14 -17v-35z" />
<glyph unicode="&#x1ef3;" horiz-adv-x="719" d="M669 -118q0 -17 -16 -26l-65 -37q-13 -7 -29 -7h-266q-37 0 -50 4l-109 16q-12 3 -12 12v38q0 6 3.5 11t12.5 5h322q10 0 21 6l33 18q7 4 7 12v92h-371q-11 0 -19 8l-76 75q-8 8 -8 20v406q0 16 15 16h116q16 0 16 -16v-361q0 -8 2 -12t5 -8l31 -32q5 -5 9 -6.5t14 -1.5 h266v421q0 16 16 16h116q16 0 16 -16v-653zM520 619q0 -16 -13 -16q-2 0 -10 2l-347 94q-12 3 -12 15v41q0 16 13 16q6 0 17 -3l338 -97q14 -5 14 -17v-35z" />
<glyph unicode="&#x2013;" horiz-adv-x="567" d="M545 270q0 -16 -15 -16h-491q-15 0 -15 16v34q0 16 15 16h491q15 0 15 -16v-34z" />
<glyph unicode="&#x2014;" horiz-adv-x="902" d="M880 270q0 -16 -16 -16h-825q-15 0 -15 16v34q0 16 15 16h825q16 0 16 -16v-34z" />
<glyph unicode="&#x2018;" horiz-adv-x="205" d="M173 640q0 -15 -14 -15h-39l-10 -101q-2 -12 -15 -12h-28q-14 0 -15 13l-26 181q-1 2 -1 17q0 14 15 14h110q7 0 12 -4t6 -13z" />
<glyph unicode="&#x2019;" horiz-adv-x="205" d="M149 525q-1 -13 -15 -13h-28q-14 0 -15 12l-10 101h-39q-14 0 -14 15l5 80q1 9 6 13t12 4h110q15 0 15 -14q0 -15 -1 -17z" />
<glyph unicode="&#x201a;" horiz-adv-x="205" d="M148 -70q-1 -13 -15 -13h-28q-14 0 -15 12l-10 101h-39q-14 0 -14 15l5 80q1 9 6 13t12 4h110q15 0 15 -14q0 -15 -1 -17z" />
<glyph unicode="&#x201c;" horiz-adv-x="424" d="M392 640q0 -15 -14 -15h-39l-10 -101q-2 -12 -15 -12h-28q-14 0 -15 13l-26 181q-1 2 -1 17q0 14 15 14h110q7 0 12 -4t6 -13zM173 640q0 -15 -14 -15h-39l-10 -101q-2 -12 -15 -12h-28q-14 0 -15 13l-26 181q-1 2 -1 17q0 14 15 14h110q7 0 12 -4t6 -13z" />
<glyph unicode="&#x201d;" horiz-adv-x="424" d="M149 525q-1 -13 -15 -13h-28q-14 0 -15 12l-10 101h-39q-14 0 -14 15l5 80q1 9 6 13t12 4h110q15 0 15 -14q0 -15 -1 -17zM368 525q-1 -13 -15 -13h-28q-14 0 -15 12l-10 101h-39q-14 0 -14 15l5 80q1 9 6 13t12 4h110q15 0 15 -14q0 -15 -1 -17z" />
<glyph unicode="&#x201e;" horiz-adv-x="424" d="M148 -70q-1 -13 -15 -13h-28q-14 0 -15 12l-10 101h-39q-14 0 -14 15l5 80q1 9 6 13t12 4h110q15 0 15 -14q0 -15 -1 -17zM367 -70q-1 -13 -15 -13h-28q-14 0 -15 12l-10 101h-39q-14 0 -14 15l5 80q1 9 6 13t12 4h110q15 0 15 -14q0 -15 -1 -17z" />
<glyph unicode="&#x2020;" horiz-adv-x="326" d="M187 551h88q15 0 15 -16v-15q0 -16 -15 -16h-88v-488q0 -16 -15 -16h-16q-15 0 -15 16v488h-90q-15 0 -15 16v15q0 16 15 16h90v124q0 16 15 16h16q15 0 15 -16v-124z" />
<glyph unicode="&#x2021;" horiz-adv-x="326" d="M187 551h88q15 0 15 -16v-15q0 -16 -15 -16h-88v-318h88q15 0 15 -15v-15q0 -16 -15 -16h-88v-124q0 -16 -15 -16h-16q-15 0 -15 16v124h-90q-15 0 -15 16v15q0 15 15 15h90v318h-90q-15 0 -15 16v15q0 16 15 16h90v124q0 16 15 16h16q15 0 15 -16v-124z" />
<glyph unicode="&#x2022;" horiz-adv-x="438" d="M349 412q9 -11 9 -25v-74q0 -15 -9 -25l-62 -63q-10 -10 -25 -10h-90q-14 0 -24 10l-62 63q-10 10 -10 25v74q0 15 10 25l62 63q10 10 24 10h90q15 0 25 -10z" />
<glyph unicode="&#x2026;" horiz-adv-x="990" d="M926 16q0 -16 -16 -16h-115q-16 0 -16 16v110q0 16 16 16h115q16 0 16 -16v-110zM567 16q0 -16 -16 -16h-116q-15 0 -15 16v110q0 16 15 16h116q16 0 16 -16v-110zM208 16q0 -16 -16 -16h-115q-16 0 -16 16v110q0 16 16 16h115q16 0 16 -16v-110z" />
<glyph unicode="&#x2030;" horiz-adv-x="1247" d="M1176 271q8 -8 8 -20v-151q0 -12 -8 -20l-72 -71q-9 -9 -21 -9h-110q-12 0 -21 9l-72 71q-8 8 -8 20v151q0 12 8 20l72 71q9 9 21 9h110q12 0 21 -9zM1070 288q-6 3 -12 3h-59q-7 0 -13 -3l-46 -45q-2 -8 -2 -9v-117q0 -7 4 -11l44 -43q6 -3 13 -3h59q6 0 12 3l46 45 q3 7 3 17v101q0 9 -3 17zM821 271q8 -8 8 -20v-151q0 -12 -8 -20l-72 -71q-9 -9 -21 -9h-110q-12 0 -21 9l-72 71q-8 8 -8 20v151q0 12 8 20l72 71q9 9 21 9h110q12 0 21 -9zM715 288q-6 3 -12 3h-59q-7 0 -13 -3l-46 -45q-2 -8 -2 -9v-117q0 -7 4 -11l44 -43q6 -3 13 -3h59 q6 0 12 3l46 45q3 7 3 17v101q0 9 -3 17zM394 611q8 -8 8 -20v-150q0 -12 -8 -20l-72 -71q-9 -9 -21 -9h-110q-12 0 -21 9l-72 71q-8 8 -8 20v150q0 12 8 20l72 71q9 9 21 9h110q12 0 21 -9zM288 628q-6 3 -12 3h-59q-7 0 -13 -3l-46 -45q-2 -8 -2 -9v-116q0 -7 4 -11 l44 -43q6 -3 13 -3h59q6 0 12 3l46 45q3 7 3 17v100q0 9 -3 17zM313 9q-5 -9 -15 -9h-28q-16 0 -16 15q0 6 3 11l345 656q4 9 14 9h27q16 0 16 -15q0 1 -2 -9z" />
<glyph unicode="&#x2039;" horiz-adv-x="270" d="M244 519q4 -3 4 -8t-4 -10l-127 -174q-3 -5 -3 -10q0 -6 3 -9l127 -173q4 -5 4 -10t-4 -8l-36 -34q-5 -4 -11 -4t-11 5l-156 216q-6 9 -6 18t6 18l156 216q5 5 11 5t11 -4z" />
<glyph unicode="&#x203a;" horiz-adv-x="270" d="M242 336q6 -9 6 -18t-6 -18l-156 -216q-5 -5 -11 -5t-11 4l-36 34q-4 3 -4 8t4 10l127 173q3 3 3 9q0 5 -3 10l-127 174q-4 5 -4 10t4 8l36 34q5 4 11 4t11 -5z" />
<glyph unicode="&#x2044;" horiz-adv-x="120" d="M-188 -67q-6 -7 -14 -7h-46q-19 0 -19 12q0 5 1.5 7.5l4.5 7.5l558 805q4 7 13 7h47q18 0 18 -12q0 -7 -5 -15z" />
<glyph unicode="&#x2070;" horiz-adv-x="623" d="M578 639q10 -10 10 -24v-257q0 -14 -10 -24l-83 -89q-8 -9 -21 -9h-307q-14 0 -21 9l-83 89q-10 10 -10 24v257q0 14 10 24l83 89q7 9 21 9h307q13 0 21 -9zM417 649q-6 7 -16 7h-161q-10 0 -16 -7l-39 -45q-6 -6 -6 -18v-199q0 -12 6 -18l39 -45q6 -7 16 -7h161 q10 0 16 7l39 45q6 6 6 18v199q0 12 -6 18z" />
<glyph unicode="&#x2074;" horiz-adv-x="618" d="M534 431h18q16 0 16 -16v-47q0 -16 -16 -16h-18v-100q0 -16 -16 -16h-85q-15 0 -15 16v100h-340q-28 0 -28 29v49q0 13 2 22t8 19l137 245q11 20 32 20h276q29 0 29 -29v-276zM289 670q-14 0 -22 -14l-104 -187q-5 -8 -5 -18v-9q0 -11 11 -11h249v226q0 13 -12 13h-117z " />
<glyph unicode="&#x2075;" horiz-adv-x="606" d="M532 675q0 -17 -16 -17h-325q-14 0 -14 -15v-99q0 -15 14 -15h264q18 0 30 -12l61 -57q9 -8 9 -22v-95q0 -19 -10 -29l-63 -68q-9 -10 -21 -10h-396q-15 0 -15 16v44q0 16 15 16h305q9 0 16 7l31 33q5 5 5 12v44q0 7 -4 11l-33 31q-6 6 -15 6h-291q-28 0 -28 27v224 q0 30 28 30h437q16 0 16 -16v-46z" />
<glyph unicode="&#x2076;" horiz-adv-x="603" d="M540 668q0 -15 -15 -15h-288q-8 0 -13 -5l-41 -42q-5 -5 -5 -14v-63h294q17 0 30 -13l55 -51q8 -8 8 -22v-96q0 -7 -2 -14t-7 -12l-70 -75q-9 -10 -28 -10h-296q-12 0 -21 10l-80 84q-11 11 -11 31v245q0 23 12 37l68 74q9 10 20 15t31 5h344q15 0 15 -16v-53zM419 457 q-7 7 -19 7h-222v-83q0 -10 7 -17l38 -40q6 -7 14 -7h160q9 0 15 6l34 38q6 6 6 15v43q0 7 -4 11z" />
<glyph unicode="&#x2077;" horiz-adv-x="537" d="M487 682q0 -13 -6 -26l-189 -408q-5 -12 -15 -12h-104q-15 0 -15 16v7q0 8 3 14l192 380h-288q-15 0 -15 15v53q0 16 15 16h397q25 0 25 -25v-30z" />
<glyph unicode="&#x2078;" horiz-adv-x="610" d="M526 660q9 -9 9 -23v-113l29 -31q5 -5 6.5 -9t1.5 -9v-119q0 -18 -11 -29l-70 -77q-8 -9 -15 -11.5t-21 -2.5h-288q-14 0 -21 2.5t-15 11.5l-70 77q-11 11 -11 29v119q0 5 1.5 9t6.5 9l29 31v113q0 14 9 23l62 67q7 10 22 10h262q15 0 22 -10zM416 463h-210l-14 -13 q-3 -3 -3 -8v-61q0 -13 7 -20l35 -39q5 -5 13 -5h134q8 0 13 5l35 39q7 7 7 20v61q0 5 -3 8zM377 648q-3 5 -10 5h-112q-7 0 -10 -5l-32 -34q-5 -5 -5 -12v-83h206v83q0 7 -5 12z" />
<glyph unicode="&#x2079;" horiz-adv-x="603" d="M554 653q11 -11 11 -31v-255q0 -24 -12 -37l-68 -74q-9 -10 -20 -15t-31 -5h-320q-15 0 -15 16v53q0 15 15 15h264q8 0 13 5l41 42q5 5 5 14v56h-294q-17 0 -30 13l-55 51q-8 8 -8 22v103q0 7 2 14t7 12l70 75q9 10 28 10h306q12 0 21 -10zM402 649q-6 7 -14 7h-170 q-9 0 -15 -6l-34 -38q-6 -6 -6 -15v-50q0 -7 4 -11l29 -27q7 -7 19 -7h222v100q0 10 -7 17z" />
<glyph unicode="&#x2080;" horiz-adv-x="623" d="M578 340q10 -10 10 -24v-257q0 -14 -10 -24l-83 -89q-8 -9 -21 -9h-307q-14 0 -21 9l-83 89q-10 10 -10 24v257q0 14 10 24l83 89q7 9 21 9h307q13 0 21 -9zM417 350q-6 7 -16 7h-161q-10 0 -16 -7l-39 -45q-6 -6 -6 -18v-199q0 -12 6 -18l39 -45q6 -7 16 -7h161 q10 0 16 7l39 45q6 6 6 18v199q0 12 -6 18z" />
<glyph unicode="&#x2081;" horiz-adv-x="341" d="M284 358q7 -7 7 -17v-388q0 -16 -16 -16h-98q-18 0 -18 16v373q0 10 -7 17l-20 19q-8 5 -16 5h-51q-8 0 -11.5 5t-3.5 12v38q0 16 15 16h129q17 0 29 -12z" />
<glyph unicode="&#x2082;" horiz-adv-x="606" d="M544 362q9 -11 9 -26v-76q0 -9 -2 -14t-6 -10l-66 -69q-8 -8 -21 -8h-222q-8 0 -14 -6l-35 -33q-8 -8 -8 -22v-68q0 -12 12 -12h349q15 0 15 -16v-49q0 -16 -15 -16h-462q-28 0 -28 29v149q0 11 3.5 18t9.5 13l69 74q5 5 10 6.5t17 1.5h232q9 0 16 7l30 31q6 6 6 16v19 q0 10 -4 14l-30 31q-8 8 -19 8h-301q-16 0 -16 15v53q0 16 16 16h372q11 0 21 -10z" />
<glyph unicode="&#x2083;" horiz-adv-x="596" d="M499 361q9 -9 9 -23v-113l29 -31q5 -5 6.5 -9t1.5 -9v-119q0 -18 -11 -29l-70 -77q-8 -9 -15 -11.5t-21 -2.5h-363q-15 0 -15 16v49q0 16 15 16h286q8 0 13 5l35 39q7 7 7 20v61q0 5 -3 8l-14 13h-308q-16 0 -16 16v25q0 15 16 15h306v83q0 7 -5 12l-32 34q-3 5 -10 5 h-264q-16 0 -16 15v53q0 16 16 16h339q15 0 22 -10z" />
<glyph unicode="&#x2084;" horiz-adv-x="618" d="M534 132h18q16 0 16 -16v-47q0 -16 -16 -16h-18v-100q0 -16 -16 -16h-85q-15 0 -15 16v100h-340q-28 0 -28 29v49q0 13 2 22t8 19l137 245q11 20 32 20h276q29 0 29 -29v-276zM289 371q-14 0 -22 -14l-104 -187q-5 -8 -5 -18v-9q0 -11 11 -11h249v226q0 13 -12 13h-117z " />
<glyph unicode="&#x2085;" horiz-adv-x="606" d="M532 376q0 -17 -16 -17h-325q-14 0 -14 -15v-99q0 -15 14 -15h264q18 0 30 -12l61 -57q9 -8 9 -22v-95q0 -19 -10 -29l-63 -68q-9 -10 -21 -10h-396q-15 0 -15 16v44q0 16 15 16h305q9 0 16 7l31 33q5 5 5 12v44q0 7 -4 11l-33 31q-6 6 -15 6h-291q-28 0 -28 27v224 q0 30 28 30h437q16 0 16 -16v-46z" />
<glyph unicode="&#x2086;" horiz-adv-x="603" d="M540 369q0 -15 -15 -15h-288q-8 0 -13 -5l-41 -42q-5 -5 -5 -14v-63h294q17 0 30 -13l55 -51q8 -8 8 -22v-96q0 -7 -2 -14t-7 -12l-70 -75q-9 -10 -28 -10h-296q-12 0 -21 10l-80 84q-11 11 -11 31v245q0 23 12 37l68 74q9 10 20 15t31 5h344q15 0 15 -16v-53zM419 158 q-7 7 -19 7h-222v-83q0 -10 7 -17l38 -40q6 -7 14 -7h160q9 0 15 6l34 38q6 6 6 15v43q0 7 -4 11z" />
<glyph unicode="&#x2087;" horiz-adv-x="537" d="M487 383q0 -13 -6 -26l-189 -408q-5 -12 -15 -12h-104q-15 0 -15 16v7q0 8 3 14l192 380h-288q-15 0 -15 15v53q0 16 15 16h397q25 0 25 -25v-30z" />
<glyph unicode="&#x2088;" horiz-adv-x="610" d="M526 361q9 -9 9 -23v-113l29 -31q5 -5 6.5 -9t1.5 -9v-119q0 -18 -11 -29l-70 -77q-8 -9 -15 -11.5t-21 -2.5h-288q-14 0 -21 2.5t-15 11.5l-70 77q-11 11 -11 29v119q0 5 1.5 9t6.5 9l29 31v113q0 14 9 23l62 67q7 10 22 10h262q15 0 22 -10zM416 164h-210l-14 -13 q-3 -3 -3 -8v-61q0 -13 7 -20l35 -39q5 -5 13 -5h134q8 0 13 5l35 39q7 7 7 20v61q0 5 -3 8zM377 349q-3 5 -10 5h-112q-7 0 -10 -5l-32 -34q-5 -5 -5 -12v-83h206v83q0 7 -5 12z" />
<glyph unicode="&#x2089;" horiz-adv-x="603" d="M554 354q11 -11 11 -31v-255q0 -24 -12 -37l-68 -74q-9 -10 -20 -15t-31 -5h-320q-15 0 -15 16v53q0 15 15 15h264q8 0 13 5l41 42q5 5 5 14v56h-294q-17 0 -30 13l-55 51q-8 8 -8 22v103q0 7 2 14t7 12l70 75q9 10 28 10h306q12 0 21 -10zM402 350q-6 7 -14 7h-170 q-9 0 -15 -6l-34 -38q-6 -6 -6 -15v-50q0 -7 4 -11l29 -27q7 -7 19 -7h222v100q0 10 -7 17z" />
<glyph unicode="&#x20ac;" horiz-adv-x="760" d="M702 596q-4 -10 -15 -10h-343q-10 0 -17 -7l-40 -44q-7 -7 -7 -20v-136h301q14 0 14 -11q0 1 -2 -9l-9 -24q-5 -9 -14 -9h-290v-135q0 -12 7 -19l55 -60q7 -7 16 -7h320q15 0 15 -16v-73q0 -16 -15 -16h-413q-13 0 -21 4t-16 13l-109 119q-12 12 -12 29v161h-65 q-14 0 -14 10q0 4 2 12l7 19q4 12 15 12h55v178q0 22 14 36l85 89q9 9 21 9h491q17 0 17 -12q0 -5 -3 -11z" />
<glyph unicode="&#x2122;" horiz-adv-x="811" d="M323 652q0 -16 -15 -16h-101v-270q0 -15 -15 -15h-32q-15 0 -15 15v270h-102q-15 0 -15 16v23q0 16 15 16h265q15 0 15 -16v-23zM761 366q0 -15 -15 -15h-28q-16 0 -16 15v220l-102 -221q-6 -14 -22 -14h-36q-17 0 -23 13l-103 222v-220q0 -15 -15 -15h-27q-16 0 -16 15 v301q0 24 24 24h51q19 0 24 -15l104 -251l107 251q6 15 24 15h46q23 0 23 -24v-301z" />
<glyph unicode="&#x2153;" horiz-adv-x="1205" d="M273 -67q-6 -7 -14 -7h-46q-19 0 -19 12q0 5 1.5 7.5l4.5 7.5l558 805q4 7 13 7h47q18 0 18 -12q0 -7 -5 -15zM285 657q7 -7 7 -17v-388q0 -16 -16 -16h-98q-18 0 -18 16v373q0 10 -7 17l-20 19q-8 5 -16 5h-51q-8 0 -11.5 5t-3.5 12v38q0 16 15 16h129q17 0 29 -12z M1117 333q9 -9 9 -23v-113l29 -31q5 -5 6.5 -9t1.5 -9v-119q0 -18 -11 -29l-70 -77q-8 -9 -15 -11.5t-21 -2.5h-363q-15 0 -15 16v49q0 16 15 16h286q8 0 13 5l35 39q7 7 7 20v61q0 5 -3 8l-14 13h-308q-16 0 -16 16v25q0 15 16 15h306v83q0 7 -5 12l-32 34q-3 5 -10 5h-264 q-16 0 -16 15v53q0 16 16 16h339q15 0 22 -10z" />
<glyph unicode="&#x2154;" horiz-adv-x="1424" d="M494 -67q-6 -7 -14 -7h-46q-19 0 -19 12q0 5 1.5 7.5l4.5 7.5l558 805q4 7 13 7h47q18 0 18 -12q0 -7 -5 -15zM545 661q9 -11 9 -26v-76q0 -9 -2 -14t-6 -10l-66 -69q-8 -8 -21 -8h-222q-8 0 -14 -6l-35 -33q-8 -8 -8 -22v-68q0 -12 12 -12h349q15 0 15 -16v-49 q0 -16 -15 -16h-462q-28 0 -28 29v149q0 11 3.5 18t9.5 13l69 74q5 5 10 6.5t17 1.5h232q9 0 16 7l30 31q6 6 6 16v19q0 10 -4 14l-30 31q-8 8 -19 8h-301q-16 0 -16 15v53q0 16 16 16h372q11 0 21 -10zM1337 333q9 -9 9 -23v-113l29 -31q5 -5 6.5 -9t1.5 -9v-119 q0 -18 -11 -29l-70 -77q-8 -9 -15 -11.5t-21 -2.5h-363q-15 0 -15 16v49q0 16 15 16h286q8 0 13 5l35 39q7 7 7 20v61q0 5 -3 8l-14 13h-308q-16 0 -16 16v25q0 15 16 15h306v83q0 7 -5 12l-32 34q-3 5 -10 5h-264q-16 0 -16 15v53q0 16 16 16h339q15 0 22 -10z" />
<glyph unicode="&#x215b;" horiz-adv-x="1168" d="M262 -67q-6 -7 -14 -7h-46q-19 0 -19 12q0 5 1.5 7.5l4.5 7.5l558 805q4 7 13 7h47q18 0 18 -12q0 -7 -5 -15zM285 657q7 -7 7 -17v-388q0 -16 -16 -16h-98q-18 0 -18 16v373q0 10 -7 17l-20 19q-8 5 -16 5h-51q-8 0 -11.5 5t-3.5 12v38q0 16 15 16h129q17 0 29 -12z M1084 333q9 -9 9 -23v-113l29 -31q5 -5 6.5 -9t1.5 -9v-119q0 -18 -11 -29l-70 -77q-8 -9 -15 -11.5t-21 -2.5h-288q-14 0 -21 2.5t-15 11.5l-70 77q-11 11 -11 29v119q0 5 1.5 9t6.5 9l29 31v113q0 14 9 23l62 67q7 10 22 10h262q15 0 22 -10zM974 136h-210l-14 -13 q-3 -3 -3 -8v-61q0 -13 7 -20l35 -39q5 -5 13 -5h134q8 0 13 5l35 39q7 7 7 20v61q0 5 -3 8zM935 321q-3 5 -10 5h-112q-7 0 -10 -5l-32 -34q-5 -5 -5 -12v-83h206v83q0 7 -5 12z" />
<glyph unicode="&#x215c;" horiz-adv-x="1386" d="M462 -67q-6 -7 -14 -7h-46q-19 0 -19 12q0 5 1.5 7.5l4.5 7.5l558 805q4 7 13 7h47q18 0 18 -12q0 -7 -5 -15zM1303 333q9 -9 9 -23v-113l29 -31q5 -5 6.5 -9t1.5 -9v-119q0 -18 -11 -29l-70 -77q-8 -9 -15 -11.5t-21 -2.5h-288q-14 0 -21 2.5t-15 11.5l-70 77 q-11 11 -11 29v119q0 5 1.5 9t6.5 9l29 31v113q0 14 9 23l62 67q7 10 22 10h262q15 0 22 -10zM1193 136h-210l-14 -13q-3 -3 -3 -8v-61q0 -13 7 -20l35 -39q5 -5 13 -5h134q8 0 13 5l35 39q7 7 7 20v61q0 5 -3 8zM1154 321q-3 5 -10 5h-112q-7 0 -10 -5l-32 -34 q-5 -5 -5 -12v-83h206v83q0 7 -5 12zM500 660q9 -9 9 -23v-113l29 -31q5 -5 6.5 -9t1.5 -9v-119q0 -18 -11 -29l-70 -77q-8 -9 -15 -11.5t-21 -2.5h-363q-15 0 -15 16v49q0 16 15 16h286q8 0 13 5l35 39q7 7 7 20v61q0 5 -3 8l-14 13h-308q-16 0 -16 16v25q0 15 16 15h306 v83q0 7 -5 12l-32 34q-3 5 -10 5h-264q-16 0 -16 15v53q0 16 16 16h339q15 0 22 -10z" />
<glyph unicode="&#x215d;" horiz-adv-x="1396" d="M473 -67q-6 -7 -14 -7h-46q-19 0 -19 12q0 5 1.5 7.5l4.5 7.5l558 805q4 7 13 7h47q18 0 18 -12q0 -7 -5 -15zM533 675q0 -17 -16 -17h-325q-14 0 -14 -15v-99q0 -15 14 -15h264q18 0 30 -12l61 -57q9 -8 9 -22v-95q0 -19 -10 -29l-63 -68q-9 -10 -21 -10h-396 q-15 0 -15 16v44q0 16 15 16h305q9 0 16 7l31 33q5 5 5 12v44q0 7 -4 11l-33 31q-6 6 -15 6h-291q-28 0 -28 27v224q0 30 28 30h437q16 0 16 -16v-46zM1313 333q9 -9 9 -23v-113l29 -31q5 -5 6.5 -9t1.5 -9v-119q0 -18 -11 -29l-70 -77q-8 -9 -15 -11.5t-21 -2.5h-288 q-14 0 -21 2.5t-15 11.5l-70 77q-11 11 -11 29v119q0 5 1.5 9t6.5 9l29 31v113q0 14 9 23l62 67q7 10 22 10h262q15 0 22 -10zM1203 136h-210l-14 -13q-3 -3 -3 -8v-61q0 -13 7 -20l35 -39q5 -5 13 -5h134q8 0 13 5l35 39q7 7 7 20v61q0 5 -3 8zM1164 321q-3 5 -10 5h-112 q-7 0 -10 -5l-32 -34q-5 -5 -5 -12v-83h206v83q0 7 -5 12z" />
<glyph unicode="&#x215e;" horiz-adv-x="1243" d="M329 -67q-6 -7 -14 -7h-46q-19 0 -19 12q0 5 1.5 7.5l4.5 7.5l558 805q4 7 13 7h47q18 0 18 -12q0 -7 -5 -15zM1160 333q9 -9 9 -23v-113l29 -31q5 -5 6.5 -9t1.5 -9v-119q0 -18 -11 -29l-70 -77q-8 -9 -15 -11.5t-21 -2.5h-288q-14 0 -21 2.5t-15 11.5l-70 77 q-11 11 -11 29v119q0 5 1.5 9t6.5 9l29 31v113q0 14 9 23l62 67q7 10 22 10h262q15 0 22 -10zM1050 136h-210l-14 -13q-3 -3 -3 -8v-61q0 -13 7 -20l35 -39q5 -5 13 -5h134q8 0 13 5l35 39q7 7 7 20v61q0 5 -3 8zM1011 321q-3 5 -10 5h-112q-7 0 -10 -5l-32 -34 q-5 -5 -5 -12v-83h206v83q0 7 -5 12zM488 682q0 -13 -6 -26l-189 -408q-5 -12 -15 -12h-104q-15 0 -15 16v7q0 8 3 14l192 380h-288q-15 0 -15 15v53q0 16 15 16h397q25 0 25 -25v-30z" />
<glyph unicode="&#x220f;" horiz-adv-x="935" d="M902 64q2 -5 2.5 -10.5t0.5 -16.5v-21q0 -16 -16 -16h-156q-12 0 -15 12l-154 565q-3 9 -13 9h-197q-9 0 -12 -9l-132 -472h229q15 0 15 -14v-75q0 -16 -15 -16h-387q-23 0 -23 24v21q0 9 3 17l174 609q6 20 28 20h466q21 0 27 -20z" />
<glyph unicode="&#x2212;" horiz-adv-x="565" d="M515 341q0 -16 -15 -16h-435q-15 0 -15 16v55q0 15 15 15h435q15 0 15 -15v-55z" />
<glyph unicode="&#x2264;" horiz-adv-x="528" d="M251 459h210q16 0 16 -16v-184q0 -16 -16 -16h-210l75 -219q2 -4 2 -9q0 -15 -15 -15h-32q-11 0 -15 7l-213 333q-3 4 -3 11q0 6 3 11l213 333q4 7 15 7h32q15 0 15 -15q0 -5 -2 -9z" />
<glyph unicode="&#x2265;" horiz-adv-x="528" d="M474 362q3 -5 3 -11q0 -7 -3 -11l-213 -333q-4 -7 -15 -7h-32q-15 0 -15 15q0 5 2 9l75 219h-210q-16 0 -16 16v184q0 16 16 16h210l-75 219q-2 4 -2 9q0 15 15 15h32q11 0 15 -7z" />
<glyph unicode="&#xe000;" horiz-adv-x="550" d="M0 550h550v-550h-550v550z" />
<glyph horiz-adv-x="141" d="M112 -70v-9t-1 -10l-9 -86q-2 -15 -15 -15h-24q-14 0 -15 15l-9 86q-1 5 -1 10v9v9q0 12 14 12h46q14 0 14 -12v-9z" />
</font>
</defs>
</svg>
